{
.appVersion = "3343";
.formatVersion = 3;
DisplayStrings = (
"/.notdef",
"!¡?¿·•",
"///backslash",
"«»‹›",
"฿¢¤$₫€₽£¥",
"+±≈~¬^∞∫∏∑√1∂",
"◌◊",
"&¶§©®™°|¦†‡",
"a¨˙̀`´˝ˆˇ̆˘˚¯̉¸˛",
"̧̈̇̊",
"ƒ",
"̦",
"200 ngàn đồng"
);
classes = (
{
code = "a.ss01 aacute.ss01 abreve.ss01 abreveacute.ss01 abrevedotbelow.ss01 abrevegrave.ss01 abrevehookabove.ss01 abrevetilde.ss01 acircumflex.ss01 acircumflexacute.ss01 acircumflexdotbelow.ss01 acircumflexgrave.ss01 acircumflexhookabove.ss01 acircumflextilde.ss01 adotbelow.ss01 agrave.ss01 ahookabove.ss01 atilde.ss01 
b.ss01 
c.ss01 
d.ss01 dcroat.ss01 
e.ss01 eacute.ss01 ecircumflex.ss01 ecircumflexacute.ss01 ecircumflexdotbelow.ss01 ecircumflexgrave.ss01 ecircumflexhookabove.ss01 ecircumflextilde.ss01 edotbelow.ss01 egrave.ss01 ehookabove.ss01 etilde.ss01
f.ss01 
g.ss01 
h.ss01 
i.ss01 dotlessi.ss01 iacute.ss01 idotbelow.ss01 igrave.ss01 ihookabove.ss01 itilde.ss01 j.ss01 
k.ss01 
l.ss01 
m.ss01 n.ss01 p.ss01 q.ss01
o.ss01 oacute.ss01 ocircumflex.ss01 ocircumflexacute.ss01 ocircumflexdotbelow.ss01 ocircumflexgrave.ss01 ocircumflexhookabove.ss01 ocircumflextilde.ss01 odotbelow.ss01 ograve.ss01 ohookabove.ss01 ohorn.ss01 ohornacute.ss01 ohorndotbelow.ss01 ohorngrave.ss01 ohornhookabove.ss01 ohorntilde.ss01 otilde.ss01 

r.begin r.ss02
s.begin s.ss02
t.ss02 
u.ss01 uacute.ss01 udotbelow.ss01 ugrave.ss01 uhookabove.ss01 uhorn.ss01 uhornacute.ss01 uhorndotbelow.ss01 uhorngrave.ss01 uhornhookabove.ss01 uhorntilde.ss01 utilde.ss01
v.ss01 w.ss01
x.ss01 
y.ss01 yacute.ss01 ydotbelow.ss01 ygrave.ss01 yhookabove.ss01 ytilde.ss01 
z.ss01
c_r.liga.ss01 t_r.liga.ss01 

#Ligature

glyphs = (
{
glyphname = .notdef;
lastChange = "2025-03-09 06:46:23 +0000";
layers = (
{
layerId = m01;
shapes = (
{
closed = 1;
nodes = (
(404,5,o),
(510,4,qs),
(527,4,o),
(549,25,o),
(549,41,qs),
(549,124,o),
(552,308,o),
(557,491,o),
(562,654,o),
(566,713,qs),
(567,729,o),
(544,750,o),
(527,750,qs),
(421,750,o),
(278,748,o),
(180,745,o),
(139,742,qs),
(121,742,o),
(99,721,o),
(99,704,qs),
(91,545,o),
(84,220,o),
(84,31,qs),
(84,13,o),
(106,-8,o),
(121,-7,qs),
(209,-1,o)
);
},
{
closed = 1;
nodes = (
(164,296,o),
(168,461,o),
(173,610,o),
(176,667,q),
(275,667,o),
(427,677,o),
(484,675,q),
(477,536,o),
(471,247,o),
(470,77,q),
(350,76,o),
(207,73,o),
(161,71,q),
(161,137,o)
);
}
);
width = 623;
}
);
note = .notdef;
},
{
glyphname = A;
kernLeft = A;
kernRight = A;
lastChange = "2024-08-20 14:39:42 +0000";
layers = (
{
anchors = (
{
name = bottom;
pos = (432,-15);
},
{
name = ogonek;
pos = (1071,20);
},
{
name = top;
pos = (863,921);
}
);
background = {
shapes = (
{
closed = 1;
nodes = (
(1017,221,o),
(1006,232,o),
(993,232,cs),
(987,232,o),
(981,229,o),
(976,225,cs),
(956,205,ls),
(939,188,o),
(852,99,o),
(796,52,cs),
(779,38,o),
(767,30,o),
(760,30,cs),
(750,30,o),
(746,44,o),
(746,72,cs),
(746,134,o),
(779,254,o),
(799,323,c),
(811,322,o),
(834,320,o),
(837,320,cs),
(852,320,o),
(861,332,o),
(861,344,cs),
(861,355,o),
(854,367,o),
(839,369,cs),
(812,371,l),
(838,463,o),
(905,696,o),
(905,725,cs),
(905,751,o),
(895,776,o),
(865,776,cs),
(816,776,o),
(712,690,o),
(556,553,cs),
(506,509,o),
(442,449,o),
(380,383,c),
(294,377,o),
(200,360,o),
(200,282,cs),
(200,265,o),
(209,246,o),
(227,246,cs),
(240,246,o),
(252,255,o),
(252,270,cs),
(252,276,o),
(249,279,o),
(249,284,cs),
(249,315,o),
(292,319,o),
(331,328,c),
(226,206,o),
(137,65,o),
(137,-64,cs),
(137,-79,o),
(149,-88,o),
(161,-88,cs),
(174,-88,o),
(186,-79,o),
(186,-64,cs),
(186,65,o),
(291,212,o),
(403,336,c),
(423,337,o),
(442,337,o),
(457,337,cs),
(491,337,ls),
(567,337,o),
(656,333,o),
(749,327,c),
(729,254,o),
(697,137,o),
(697,72,cs),
(697,29,o),
(710,-20,o),
(757,-20,cs),
(826,-20,o),
(950,131,o),
(990,171,cs),
(1010,190,ls),
(1015,195,o),
(1017,201,o),
(1017,207,cs)
);
},
{
closed = 1;
nodes = (
(856,703,o),
(786,461,o),
(762,375,c),
(664,382,o),
(570,386,o),
(491,386,cs),
(451,386,l),
(501,437,o),
(548,482,o),
(587,516,cs),
(694,609,o),
(811,708,o),
(856,725,c)
);
}
);
};
layerId = m01;
shapes = (
{
closed = 0;
nodes = (
(92,-16,l,{
"Letterink-NibData" = {
AngleInDegrees = 28;
MainAxisWidth = 85;
MinorAxisWidth = 85;
ValidForParentMainAxisWidth = 15;
ValidForParentMinorAxisWidth = 15;
};
"Letterink-NibStyleId" = 7;
}),
(341,323,o),
(679,706,o),
(818,835,c,{
"Letterink-NibData" = {
AngleInDegrees = 28;
MainAxisWidth = 87;
MinorAxisWidth = 87;
ValidForParentMainAxisWidth = 15;
ValidForParentMinorAxisWidth = 15;
};
"Letterink-NibStyleId" = 6;
}),
(697,412,o),
(655,243,o),
(655,148,cs,{
"Letterink-NibData" = {
AngleInDegrees = 28;
MainAxisWidth = 87;
MinorAxisWidth = 87;
ValidForParentMainAxisWidth = 15;
ValidForParentMinorAxisWidth = 15;
};
"Letterink-NibStyleId" = 6;
}),
(655,60,o),
(691,3,o),
(752,3,cs,{
"Letterink-NibData" = {
AngleInDegrees = 28;
MainAxisWidth = 85;
MinorAxisWidth = 85;
ValidForParentMainAxisWidth = 15;
ValidForParentMinorAxisWidth = 15;
};
"Letterink-NibStyleId" = 7;
}),
(797,3,o),
(849,35,o),
(899,87,cs,{
"Letterink-NibData" = {
AngleInDegrees = 28;
MainAxisWidth = 85;
MinorAxisWidth = 85;
ValidForParentMainAxisWidth = 15;
ValidForParentMinorAxisWidth = 15;
};
"Letterink-NibStyleId" = 7;
}),
(966,156,o),
(1042,269,o),
(1154,475,c,{
"Letterink-NibData" = {
AngleInDegrees = 28;
MainAxisWidth = 85;
MinorAxisWidth = 85;
ValidForParentMainAxisWidth = 15;
ValidForParentMinorAxisWidth = 15;
};
"Letterink-NibStyleId" = 7;
})
);
},
{
closed = 0;
nodes = (
(90,353,l,{
"Letterink-NibData" = {
AngleInDegrees = 28;
MainAxisWidth = 85;
MinorAxisWidth = 85;
ValidForParentMainAxisWidth = 15;
ValidForParentMinorAxisWidth = 15;
};
"Letterink-NibStyleId" = 7;
}),
(278,409,o),
(598,421,o),
(799,380,c,{
"Letterink-NibData" = {
AngleInDegrees = 28;
MainAxisWidth = 87;
MinorAxisWidth = 87;
ValidForParentMainAxisWidth = 15;
ValidForParentMinorAxisWidth = 15;
};
"Letterink-NibStyleId" = 6;
})
);
}
);
userData = {
"Letterink-ComputationAllowed" = YES;
};
width = 984;
}
);
metricLeft = A.ss03;
note = A;
unicode = 65;
},
{
glyphname = B;
kernLeft = B;
kernRight = B;
lastChange = "2024-08-20 15:02:42 +0000";
layers = (
{
background = {
shapes = (
{
closed = 1;
nodes = (
(611,-21,o),
(648,-10,o),
(682,8,cs),
(718,27,o),
(752,56,o),
(774,81,cs),
(799,109,o),
(819,143,o),
(831,177,cs),
(844,214,o),
(847,248,o),
(841,279,cs),
(834,314,o),
(818,336,o),
(800,352,cs),
(762,386,o),
(717,390,o),
(645,372,c),
(680,389,o),
(711,411,o),
(732,434,cs),
(756,460,o),
(773,491,o),
(783,532,cs),
(800,602,o),
(784,657,o),
(735,702,cs),
(685,748,o),
(611,775,o),
(525,786,cs),
(422,799,o),
(297,789,o),
(195,754,cs),
(99,721,o),
(31,669,o),
(-6,596,cs),
(-33,543,o),
(-39,488,o),
(-20,446,cs),
(0,402,o),
(47,368,o),
(98,353,cs),
(115,348,o),
(137,344,o),
(156,342,cs),
(165,341,o),
(185,339,o),
(201,339,cs),
(208,339,o),
(208,339,o),
(213,341,cs),
(227,346,o),
(237,359,o),
(237,375,cs),
(237,383,o),
(234,391,o),
(233,401,cs),
(232,408,o),
(228,411,o),
(222,411,cs),
(133,411,o),
(133,411,o),
(110,424,cs),
(44,461,o),
(32,475,o),
(42,522,cs),
(53,573,o),
(77,612,o),
(129,646,cs),
(209,698,o),
(346,731,o),
(491,716,cs),
(531,712,o),
(570,704,o),
(596,696,cs),
(625,687,o),
(646,676,o),
(660,666,cs),
(675,655,o),
(687,643,o),
(696,630,cs),
(705,617,o),
(709,605,o),
(709,586,cs),
(709,577,o),
(708,561,o),
(706,547,c),
(695,502,o),
(668,462,o),
(626,428,cs),
(584,394,o),
(524,363,o),
(439,334,cs),
(424,329,o),
(415,317,o),
(415,302,cs),
(415,281,o),
(436,265,o),
(457,271,cs),
(480,278,ls),
(507,286,o),
(531,293,o),
(552,298,cs),
(565,301,o),
(601,309,o),
(624,313,cs),
(652,318,o),
(676,320,o),
(696,319,cs),
(715,318,o),
(734,314,o),
(748,303,cs),
(761,293,o),
(768,278,o),
(770,260,cs),
(772,241,o),
(768,219,o),
(761,199,cs),
(741,141,o),
(694,96,o),
(651,72,cs),
(601,44,o),
(559,43,o),
(529,65,cs),
(506,82,o),
(497,108,o),
(500,141,cs),
(502,162,o),
(485,181,o),
(462,181,cs),
(443,181,o),
(431,169,o),
(427,147,cs),
(423,125,o),
(428,99,o),
(433,82,cs),
(443,48,o),
(458,26,o),
(483,9,cs),
(508,-8,o),
(538,-16,o),
(567,-18,cs)
);
},
{
closed = 1;
nodes = (
(292,0,o),
(308,13,o),
(312,30,cs),
(441,600,ls),
(447,624,o),
(428,647,o),
(404,647,cs),
(385,647,o),
(370,634,o),
(366,617,cs),
(237,47,ls),
(232,23,o),
(250,0,o),
(274,0,cs)
);
}
);
};
layerId = m01;
shapes = (
{
closed = 0;
nodes = (
(501,865,l,{
"Letterink-NibData" = {
AngleInDegrees = 28;
MainAxisWidth = 87;
MinorAxisWidth = 87;
ValidForParentMainAxisWidth = 15;
ValidForParentMinorAxisWidth = 15;
};
"Letterink-NibStyleId" = 6;
}),
(475,736,o),
(395,461,o),
(294,152,cs,{
"Letterink-NibData" = {
AngleInDegrees = 28;
MainAxisWidth = 87;
MinorAxisWidth = 87;
ValidForParentMainAxisWidth = 15;
ValidForParentMinorAxisWidth = 15;
};
"Letterink-NibStyleId" = 6;
}),
(262,59,o),
(171,12,o),
(90,49,c,{
"Letterink-NibData" = {
AngleInDegrees = 28;
MainAxisWidth = 87;
MinorAxisWidth = 87;
ValidForParentMainAxisWidth = 15;
ValidForParentMinorAxisWidth = 15;
};
"Letterink-NibStyleId" = 6;
})
);
},
{
closed = 0;
nodes = (
(160,658,l,{
"Letterink-NibData" = {
AngleInDegrees = 28;
MainAxisWidth = 85;
MinorAxisWidth = 85;
ValidForParentMainAxisWidth = 15;
ValidForParentMinorAxisWidth = 15;
};
"Letterink-NibStyleId" = 7;
}),
(258,746,o),
(426,806,o),
(573,806,cs,{
"Letterink-NibData" = {
AngleInDegrees = 28;
MainAxisWidth = 85;
MinorAxisWidth = 85;
ValidForParentMainAxisWidth = 15;
ValidForParentMinorAxisWidth = 15;
};
"Letterink-NibStyleId" = 7;
}),
(722,806,o),
(816,746,o),
(816,649,cs,{
"Letterink-NibData" = {
AngleInDegrees = 28;
MainAxisWidth = 87;
MinorAxisWidth = 87;
ValidForParentMainAxisWidth = 15;
ValidForParentMinorAxisWidth = 15;
};
"Letterink-NibStyleId" = 6;
}),
(816,544,o),
(697,454,o),
(508,392,c,{
"Letterink-NibData" = {
AngleInDegrees = 28;
MainAxisWidth = 85;
MinorAxisWidth = 85;
ValidForParentMainAxisWidth = 15;
ValidForParentMinorAxisWidth = 15;
};
"Letterink-NibStyleId" = 7;
}),
(734,454,o),
(877,395,o),
(877,238,cs,{
"Letterink-NibData" = {
AngleInDegrees = 28;
MainAxisWidth = 85;
MinorAxisWidth = 85;
ValidForParentMainAxisWidth = 15;
ValidForParentMinorAxisWidth = 15;
};
"Letterink-NibStyleId" = 7;
}),
(877,114,o),
(777,28,o),
(631,28,cs,{
"Letterink-NibData" = {
AngleInDegrees = 28;
MainAxisWidth = 85;
MinorAxisWidth = 85;
ValidForParentMainAxisWidth = 15;
ValidForParentMinorAxisWidth = 15;
};
"Letterink-NibStyleId" = 7;
}),
(561,28,o),
(489,57,o),
(444,102,c,{
"Letterink-NibData" = {
AngleInDegrees = 28;
MainAxisWidth = 85;
MinorAxisWidth = 85;
ValidForParentMainAxisWidth = 15;
ValidForParentMinorAxisWidth = 15;
};
"Letterink-NibStyleId" = 7;
})
);
},
{
closed = 0;
nodes = (
(680,427,ls,{
"Letterink-NibData" = {
AngleInDegrees = 28;
MainAxisWidth = 87;
MinorAxisWidth = 87;
ValidForParentMainAxisWidth = 15;
ValidForParentMinorAxisWidth = 15;
};
"Letterink-NibStyleId" = 6;
}),
(488,426,o),
(484,400,o),
(488,384,cs,{
"Letterink-NibData" = {
AngleInDegrees = 28;
MainAxisWidth = 87;
MinorAxisWidth = 87;
ValidForParentMainAxisWidth = 15;
ValidForParentMinorAxisWidth = 15;
};
"Letterink-NibStyleId" = 6;
}),
(492,369,o),
(501,356,o),
(660,443,cs,{
"Letterink-NibData" = {
AngleInDegrees = 28;
MainAxisWidth = 87;
MinorAxisWidth = 87;
ValidForParentMainAxisWidth = 15;
ValidForParentMinorAxisWidth = 15;
};
"Letterink-NibStyleId" = 6;
})
);
}
);
userData = {
"Letterink-ComputationAllowed" = YES;
};
width = 937;
}
);
metricLeft = B.ss03;
metricRight = "=B.ss03+20";
note = B;
unicode = 66;
},
{
glyphname = C;
kernLeft = C;
kernRight = C;
lastChange = "2024-08-20 14:40:31 +0000";
layers = (
{
background = {
shapes = (
{
closed = 1;
nodes = (
(335,-14,l),
(369,-11,o),
(405,-2,o),
(441,12,cs),
(482,28,o),
(522,52,o),
(554,74,cs),
(583,94,o),
(622,123,o),
(648,144,cs),
(668,160,o),
(691,180,o),
(717,203,cs),
(724,209,o),
(728,217,o),
(728,226,cs),
(728,244,o),
(714,258,o),
(697,258,cs),
(689,258,o),
(682,255,o),
(676,250,cs),
(672,247,o),
(652,230,o),
(651,229,cs),
(631,212,o),
(579,174,o),
(534,145,cs),
(484,113,o),
(436,87,o),
(391,72,cs),
(337,54,o),
(293,53,o),
(254,75,cs),
(229,89,o),
(208,113,o),
(192,145,cs),
(178,173,o),
(169,205,o),
(165,245,cs),
(160,295,o),
(163,354,o),
(178,417,cs),
(192,476,o),
(215,534,o),
(249,584,cs),
(287,640,o),
(333,678,o),
(384,699,cs),
(418,713,o),
(451,719,o),
(479,716,cs),
(506,713,o),
(527,702,o),
(538,680,cs),
(549,658,o),
(548,631,o),
(530,597,cs),
(506,552,o),
(463,517,o),
(394,487,cs),
(381,481,o),
(372,468,o),
(372,452,cs),
(372,432,o),
(388,415,o),
(409,415,cs),
(415,415,o),
(418,416,o),
(423,418,cs),
(514,455,o),
(574,512,o),
(602,589,cs),
(623,646,o),
(619,693,o),
(589,731,cs),
(562,765,o),
(519,786,o),
(471,791,cs),
(408,798,o),
(340,775,o),
(278,726,cs),
(221,681,o),
(169,614,o),
(134,538,cs),
(106,477,o),
(89,409,o),
(84,340,cs),
(79,268,o),
(88,199,o),
(108,142,cs),
(129,82,o),
(163,35,o),
(208,8,cs),
(241,-12,o),
(280,-21,o),
(321,-18,cs),
(330,-17,o),
(332,-17,o),
(333,-16,cs)
);
}
);
};
layerId = m01;
shapes = (
{
closed = 0;
nodes = (
(576,522,l,{
"Letterink-NibData" = {
AngleInDegrees = 28;
MainAxisWidth = 85;
MinorAxisWidth = 85;
ValidForParentMainAxisWidth = 15;
ValidForParentMinorAxisWidth = 15;
};
"Letterink-NibStyleId" = 7;
}),
(675,691,o),
(640,830,o),
(500,830,cs,{
"Letterink-NibData" = {
AngleInDegrees = 28;
MainAxisWidth = 85;
MinorAxisWidth = 85;
ValidForParentMainAxisWidth = 15;
ValidForParentMinorAxisWidth = 15;
};
"Letterink-NibStyleId" = 7;
}),
(306,830,o),
(131,599,o),
(131,347,cs,{
"Letterink-NibData" = {
AngleInDegrees = 28;
MainAxisWidth = 87;
MinorAxisWidth = 87;
ValidForParentMainAxisWidth = 15;
ValidForParentMinorAxisWidth = 15;
};
"Letterink-NibStyleId" = 6;
}),
(131,147,o),
(242,37,o),
(387,37,cs,{
"Letterink-NibData" = {
AngleInDegrees = 28;
MainAxisWidth = 85;
MinorAxisWidth = 85;
ValidForParentMainAxisWidth = 15;
ValidForParentMinorAxisWidth = 15;
};
"Letterink-NibStyleId" = 7;
}),
(555,37,o),
(699,170,o),
(866,481,c,{
"Letterink-NibData" = {
AngleInDegrees = 28;
MainAxisWidth = 85;
MinorAxisWidth = 85;
ValidForParentMainAxisWidth = 15;
ValidForParentMinorAxisWidth = 15;
};
"Letterink-NibStyleId" = 7;
})
);
}
);
userData = {
"Letterink-ComputationAllowed" = YES;
};
width = 694;
}
);
metricLeft = C.ss03;
note = C;
unicode = 67;
},
{
glyphname = D;
kernLeft = D;
kernRight = D;
lastChange = "2025-03-09 08:06:56 +0000";
layers = (
{
anchors = (
{
name = top;
pos = (520,890);
}
);
background = {
shapes = (
{
closed = 1;
nodes = (
(799,630,o),
(728,759,o),
(554,759,cs),
(495,759,o),
(438,745,o),
(386,723,c),
(391,738,ls),
(392,741,o),
(393,745,o),
(393,747,cs),
(393,762,o),
(380,771,o),
(367,771,cs),
(358,771,o),
(349,767,o),
(345,755,cs),
(322,688,l),
(123,560,o),
(5,282,o),
(5,61,cs),
(5,1,o),
(33,-24,o),
(60,-24,cs),
(95,-24,o),
(119,-2,o),
(139,49,cs),
(217,239,o),
(295,457,o),
(364,656,c),
(421,689,o),
(485,709,o),
(554,709,cs),
(691,709,o),
(750,614,o),
(750,486,cs),
(750,274,o),
(588,9,o),
(372,9,cs),
(322,9,o),
(269,23,o),
(218,54,cs),
(213,56,o),
(208,58,o),
(205,58,cs),
(191,58,o),
(181,45,o),
(181,32,cs),
(181,24,o),
(184,17,o),
(192,12,cs),
(250,-24,o),
(312,-40,o),
(372,-40,cs),
(629,-40,o),
(799,262,o),
(799,486,cs)
);
},
{
closed = 1;
nodes = (
(230,425,o),
(167,245,o),
(95,69,cs),
(81,37,o),
(71,24,o),
(65,24,cs),
(56,24,o),
(54,45,o),
(54,61,cs),
(54,241,o),
(142,473,o),
(293,606,c)
);
}
);
};
layerId = m01;
shapes = (
{
closed = 0;
nodes = (
(421,847,l,{
"Letterink-NibData" = {
AngleInDegrees = 28;
MainAxisWidth = 87;
MinorAxisWidth = 87;
ValidForParentMainAxisWidth = 15;
ValidForParentMinorAxisWidth = 15;
};
"Letterink-NibStyleId" = 6;
}),
(381,654,o),
(291,345,o),
(235,190,cs,{
"Letterink-NibData" = {
AngleInDegrees = 28;
MainAxisWidth = 87;
MinorAxisWidth = 87;
ValidForParentMainAxisWidth = 15;
ValidForParentMinorAxisWidth = 15;
};
"Letterink-NibStyleId" = 6;
}),
(199,94,o),
(155,48,o),
(90,37,c,{
"Letterink-NibData" = {
AngleInDegrees = 28;
MainAxisWidth = 87;
MinorAxisWidth = 87;
ValidForParentMainAxisWidth = 15;
ValidForParentMinorAxisWidth = 15;
};
"Letterink-NibStyleId" = 6;
})
);
},
{
closed = 0;
nodes = (
(253,687,l,{
"Letterink-NibData" = {
AngleInDegrees = 28;
MainAxisWidth = 85;
MinorAxisWidth = 85;
ValidForParentMainAxisWidth = 15;
ValidForParentMinorAxisWidth = 15;
};
"Letterink-NibStyleId" = 7;
}),
(328,750,o),
(425,792,o),
(549,792,cs,{
"Letterink-NibData" = {
AngleInDegrees = 28;
MainAxisWidth = 85;
MinorAxisWidth = 85;
ValidForParentMainAxisWidth = 15;
ValidForParentMinorAxisWidth = 15;
};
"Letterink-NibStyleId" = 7;
}),
(718,792,o),
(835,668,o),
(835,488,cs,{
"Letterink-NibData" = {
AngleInDegrees = 28;
MainAxisWidth = 87;
MinorAxisWidth = 87;
ValidForParentMainAxisWidth = 15;
ValidForParentMinorAxisWidth = 15;
};
"Letterink-NibStyleId" = 6;
}),
(835,234,o),
(657,27,o),
(440,27,cs,{
"Letterink-NibData" = {
AngleInDegrees = 28;
MainAxisWidth = 85;
MinorAxisWidth = 85;
ValidForParentMainAxisWidth = 15;
ValidForParentMinorAxisWidth = 15;
};
"Letterink-NibStyleId" = 7;
}),
(394,27,o),
(352,35,o),
(302,46,c,{
"Letterink-NibData" = {
AngleInDegrees = 28;
MainAxisWidth = 85;
MinorAxisWidth = 85;
ValidForParentMainAxisWidth = 15;
ValidForParentMinorAxisWidth = 15;
};
"Letterink-NibStyleId" = 7;
})
);
}
);
userData = {
"Letterink-ComputationAllowed" = YES;
};
width = 876;
},
{
associatedMasterId = m01;
background = {
shapes = (
{
closed = 1;
nodes = (
(909,630,o),
(838,759,o),
(664,759,cs),
(605,759,o),
(548,745,o),
(496,723,c),
(501,738,ls),
(502,741,o),
(503,745,o),
(503,747,cs),
(503,762,o),
(490,771,o),
(477,771,cs),
(468,771,o),
(459,767,o),
(455,755,cs),
(432,688,l),
(233,560,o),
(115,282,o),
(115,61,cs),
(115,1,o),
(143,-24,o),
(170,-24,cs),
(205,-24,o),
(229,-2,o),
(249,49,cs),
(327,239,o),
(405,457,o),
(474,656,c),
(531,689,o),
(595,709,o),
(664,709,cs),
(801,709,o),
(860,614,o),
(860,486,cs),
(860,274,o),
(698,9,o),
(482,9,cs),
(432,9,o),
(379,23,o),
(328,54,cs),
(323,56,o),
(318,58,o),
(315,58,cs),
(301,58,o),
(291,45,o),
(291,32,cs),
(291,24,o),
(294,17,o),
(302,12,cs),
(360,-24,o),
(422,-40,o),
(482,-40,cs),
(739,-40,o),
(909,262,o),
(909,486,cs)
);
},
{
closed = 1;
nodes = (
(340,425,o),
(277,245,o),
(205,69,cs),
(191,37,o),
(181,24,o),
(175,24,cs),
(166,24,o),
(164,45,o),
(164,61,cs),
(164,241,o),
(252,473,o),
(403,606,c)
);
}
);
};
hints = (
{
horizontal = 1;
place = (635,-20);
target = down;
type = TopGhost;
},
{
horizontal = 1;
place = (721,68);
type = Stem;
},
{
horizontal = 1;
place = (250,67);
type = Stem;
},
{
horizontal = 1;
place = (131,67);
type = Stem;
},
{
horizontal = 1;
place = (-14,74);
type = Stem;
},
{
horizontal = 1;
place = (-18,67);
type = Stem;
},
{
place = (976,76);
type = Stem;
},
{
place = (105,75);
type = Stem;
},
{
place = (30,71);
type = Stem;
},
{
horizontal = 1;
place = (596,-20);
target = down;
type = TopGhost;
},
{
horizontal = 1;
place = (719,72);
type = Stem;
},
{
horizontal = 1;
place = (108,75);
type = Stem;
},
{
horizontal = 1;
place = (-12,68);
type = Stem;
},
{
horizontal = 1;
place = (-145,75);
type = Stem;
},
{
place = (652,75);
type = Stem;
},
{
place = (13,74);
type = Stem;
}
);
layerId = "CD43873C-47B8-4D68-B5CC-5976CFD3EBCC";
name = "27 Jun 24 at 00:03";
shapes = (
{
closed = 0;
nodes = (
(568,613,l,{
"Letterink-NibData" = {
AngleInDegrees = 28;
MainAxisWidth = 87;
MinorAxisWidth = 87;
ValidForParentMainAxisWidth = 15;
ValidForParentMinorAxisWidth = 15;
};
"Letterink-NibStyleId" = 6;
}),
(492,410,o),
(435,230,o),
(379,119,cs,{
"Letterink-NibData" = {
AngleInDegrees = 28;
MainAxisWidth = 87;
MinorAxisWidth = 87;
ValidForParentMainAxisWidth = 15;
ValidForParentMinorAxisWidth = 15;
};
"Letterink-NibStyleId" = 6;
}),
(331,23,o),
(284,-21,o),
(217,-21,cs,{
"Letterink-NibData" = {
AngleInDegrees = 28;
MainAxisWidth = 85;
MinorAxisWidth = 85;
ValidForParentMainAxisWidth = 15;
ValidForParentMinorAxisWidth = 15;
};
"Letterink-NibStyleId" = 7;
}),
(159,-21,o),
(132,12,o),
(132,50,cs,{
"Letterink-NibData" = {
AngleInDegrees = 28;
MainAxisWidth = 85;
MinorAxisWidth = 85;
ValidForParentMainAxisWidth = 15;
ValidForParentMinorAxisWidth = 15;
};
"Letterink-NibStyleId" = 7;
}),
(132,111,o),
(203,151,o),
(306,151,cs,{
"Letterink-NibData" = {
AngleInDegrees = 28;
MainAxisWidth = 87;
MinorAxisWidth = 87;
ValidForParentMainAxisWidth = 15;
ValidForParentMinorAxisWidth = 15;
};
"Letterink-NibStyleId" = 6;
}),
(393,151,o),
(447,122,o),
(484,99,cs,{
"Letterink-NibData" = {
AngleInDegrees = 28;
MainAxisWidth = 87;
MinorAxisWidth = 87;
ValidForParentMainAxisWidth = 15;
ValidForParentMinorAxisWidth = 15;
};
"Letterink-NibStyleId" = 6;
}),
(529,71,o),
(585,30,o),
(671,30,cs,{
"Letterink-NibData" = {
AngleInDegrees = 28;
MainAxisWidth = 87;
MinorAxisWidth = 87;
ValidForParentMainAxisWidth = 15;
ValidForParentMinorAxisWidth = 15;
};
"Letterink-NibStyleId" = 6;
}),
(829,30,o),
(947,166,o),
(947,346,cs,{
"Letterink-NibData" = {
AngleInDegrees = 28;
MainAxisWidth = 57;
MinorAxisWidth = 57;
ValidForParentMainAxisWidth = 15;
ValidForParentMinorAxisWidth = 15;
};
"Letterink-NibStyleId" = 8;
}),
(947,576,o),
(754,723,o),
(480,723,cs,{
"Letterink-NibData" = {
AngleInDegrees = 28;
MainAxisWidth = 87;
MinorAxisWidth = 87;
ValidForParentMainAxisWidth = 15;
ValidForParentMinorAxisWidth = 15;
};
"Letterink-NibStyleId" = "6";
}),
(259,723,o),
(94,628,o),
(94,501,cs,{
"Letterink-NibData" = {
AngleInDegrees = 28;
MainAxisWidth = 87;
MinorAxisWidth = 87;
ValidForParentMainAxisWidth = 15;
ValidForParentMinorAxisWidth = 15;
};
"Letterink-NibStyleId" = "6";
}),
(94,406,o),
(188,365,o),
(303,409,c,{
"Letterink-NibData" = {
AngleInDegrees = 28;
MainAxisWidth = 85;
MinorAxisWidth = 85;
ValidForParentMainAxisWidth = 15;
ValidForParentMinorAxisWidth = 15;
};
"Letterink-NibStyleId" = "7";
})
);
}
);
userData = {
"Letterink-ComputationAllowed" = YES;
};
width = 873;
}
);
metricLeft = D.ss03;
note = D;
unicode = 68;
},
{
glyphname = Dcroat;
lastChange = "2024-08-20 15:07:08 +0000";
layers = (
{
hints = (
{
horizontal = 1;
origin = (0,7);
target = (0,4);
type = Stem;
}
);
layerId = m01;
shapes = (
{
closed = 1;
nodes = (
(545,387,ls),
(594,390,o),
(588,478,o),
(537,472,cs),
(133,434,ls),
(85,430,o),
(93,344,o),
(142,346,c)
);
},
{
pos = (0,1);
ref = D;
}
);
width = 876;
}
);
metricLeft = D;
metricRight = D;
unicode = 272;
},
{
glyphname = E;
kernLeft = E;
kernRight = E;
lastChange = "2024-08-20 14:40:07 +0000";
layers = (
{
anchors = (
{
name = bottom;
pos = (306,-15);
},
{
name = ogonek;
pos = (730,20);
},
{
name = top;
pos = (467,921);
},
{
name = topleft;
pos = (71,883);
}
);
background = {
hints = (
{
horizontal = 1;
place = (555,-20);
target = down;
type = TopGhost;
},
{
horizontal = 1;
place = (708,83);
type = Stem;
},
{
horizontal = 1;
place = (-16,74);
type = Stem;
},
{
place = (440,70);
type = Stem;
},
{
place = (106,79);
type = Stem;
},
{
place = (3,88);
type = Stem;
}
);
shapes = (
{
closed = 1;
nodes = (
(243,-20,o),
(318,-19,o),
(400,10,cs),
(448,27,o),
(495,53,o),
(547,92,cs),
(590,124,o),
(637,166,o),
(695,224,cs),
(701,230,o),
(704,238,o),
(704,247,cs),
(704,265,o),
(690,279,o),
(672,279,cs),
(663,279,o),
(656,276,o),
(650,271,cs),
(638,261,o),
(581,203,o),
(512,153,cs),
(469,122,o),
(426,98,o),
(382,81,cs),
(322,58,o),
(272,55,o),
(235,61,cs),
(193,68,o),
(162,87,o),
(143,113,cs),
(124,139,o),
(119,170,o),
(124,201,cs),
(132,249,o),
(163,286,o),
(208,313,cs),
(251,339,o),
(311,359,o),
(397,376,cs),
(412,379,o),
(424,392,o),
(424,408,cs),
(424,429,o),
(405,445,o),
(386,442,cs),
(366,439,l),
(325,433,ls),
(318,432,o),
(309,432,o),
(298,433,cs),
(287,434,o),
(274,437,o),
(264,442,cs),
(242,453,o),
(225,477,o),
(219,508,cs),
(213,540,o),
(220,575,o),
(232,604,cs),
(253,655,o),
(290,692,o),
(342,709,cs),
(373,719,o),
(403,720,o),
(426,715,cs),
(451,710,o),
(464,698,o),
(470,681,cs),
(477,661,o),
(473,643,o),
(458,622,cs),
(449,609,o),
(435,594,o),
(415,576,cs),
(410,571,o),
(403,565,o),
(403,551,cs),
(403,529,o),
(419,512,o),
(439,512,cs),
(449,512,o),
(457,516,o),
(466,523,cs),
(492,543,o),
(515,584,o),
(522,597,cs),
(551,651,o),
(552,686,o),
(526,727,cs),
(503,763,o),
(470,786,o),
(419,791,cs),
(374,795,o),
(318,785,o),
(267,755,cs),
(219,727,o),
(180,683,o),
(158,632,cs),
(138,585,o),
(133,534,o),
(144,490,cs),
(155,446,o),
(182,413,o),
(218,396,c),
(127,363,o),
(71,312,o),
(47,239,cs),
(29,184,o),
(33,131,o),
(59,84,cs),
(86,35,o),
(130,5,o),
(189,-8,cs)
);
}
);
};
layerId = m01;
shapes = (
{
closed = 0;
nodes = (
(581,698,l,{
"Letterink-NibData" = {
AngleInDegrees = 28;
MainAxisWidth = 85;
MinorAxisWidth = 85;
ValidForParentMainAxisWidth = 15;
ValidForParentMinorAxisWidth = 15;
};
"Letterink-NibStyleId" = 7;
}),
(566,790,o),
(484,845,o),
(384,832,cs,{
"Letterink-NibData" = {
AngleInDegrees = 28;
MainAxisWidth = 85;
MinorAxisWidth = 85;
ValidForParentMainAxisWidth = 15;
ValidForParentMinorAxisWidth = 15;
};
"Letterink-NibStyleId" = 7;
}),
(272,818,o),
(196,720,o),
(196,599,cs,{
"Letterink-NibData" = {
AngleInDegrees = 28;
MainAxisWidth = 87;
MinorAxisWidth = 87;
ValidForParentMainAxisWidth = 15;
ValidForParentMinorAxisWidth = 15;
};
"Letterink-NibStyleId" = 6;
}),
(196,460,o),
(306,412,o),
(392,412,cs,{
"Letterink-NibData" = {
AngleInDegrees = 28;
MainAxisWidth = 50;
MinorAxisWidth = 50;
ValidForParentMainAxisWidth = 15;
ValidForParentMinorAxisWidth = 15;
};
"Letterink-NibStyleId" = 8;
}),
(431,412,o),
(458,424,o),
(458,442,cs,{
"Letterink-NibData" = {
AngleInDegrees = 28;
MainAxisWidth = 50;
MinorAxisWidth = 50;
ValidForParentMainAxisWidth = 15;
ValidForParentMinorAxisWidth = 15;
};
"Letterink-NibStyleId" = 8;
}),
(458,460,o),
(435,471,o),
(394,471,cs,{
"Letterink-NibData" = {
AngleInDegrees = 28;
MainAxisWidth = 50;
MinorAxisWidth = 50;
ValidForParentMainAxisWidth = 15;
ValidForParentMinorAxisWidth = 15;
};
"Letterink-NibStyleId" = 8;
}),
(221,471,o),
(91,374,o),
(91,220,cs,{
"Letterink-NibData" = {
AngleInDegrees = 28;
MainAxisWidth = 87;
MinorAxisWidth = 87;
ValidForParentMainAxisWidth = 15;
ValidForParentMinorAxisWidth = 15;
};
"Letterink-NibStyleId" = "6";
}),
(91,96,o),
(175,18,o),
(303,18,cs,{
"Letterink-NibData" = {
AngleInDegrees = 28;
MainAxisWidth = 85;
MinorAxisWidth = 85;
ValidForParentMainAxisWidth = 15;
ValidForParentMinorAxisWidth = 15;
};
"Letterink-NibStyleId" = 7;
}),
(462,18,o),
(601,155,o),
(767,479,c,{
"Letterink-NibData" = {
AngleInDegrees = 28;
MainAxisWidth = 85;
MinorAxisWidth = 85;
ValidForParentMainAxisWidth = 15;
ValidForParentMinorAxisWidth = 15;
};
"Letterink-NibStyleId" = 7;
})
);
}
);
userData = {
"Letterink-ComputationAllowed" = YES;
};
width = 598;
}
);
metricLeft = E.ss03;
note = E;
unicode = 69;
},
{
glyphname = F;
kernLeft = F;
kernRight = F;
lastChange = "2024-08-21 04:49:33 +0000";
layers = (
{
background = {
shapes = (
{
closed = 0;
nodes = (
(959,715,l,{
"Letterink-NibData" = {
AngleInDegrees = "28";
MainAxisWidth = "59";
MinorAxisWidth = "59";
ValidForParentMainAxisWidth = "15";
ValidForParentMinorAxisWidth = "15";
};
"Letterink-NibStyleId" = "7";
}),
(726,632,o),
(641,743,o),
(338,743,cs,{
"Letterink-NibData" = {
AngleInDegrees = "28";
MainAxisWidth = "64";
MinorAxisWidth = "64";
ValidForParentMainAxisWidth = "15";
ValidForParentMinorAxisWidth = "15";
};
"Letterink-NibStyleId" = "6";
}),
(134,743,o),
(-14,651,o),
(-14,524,cs,{
"Letterink-NibData" = {
AngleInDegrees = "28";
MainAxisWidth = "64";
MinorAxisWidth = "64";
ValidForParentMainAxisWidth = "15";
ValidForParentMinorAxisWidth = "15";
};
"Letterink-NibStyleId" = "6";
}),
(-14,443,o),
(67,408,o),
(158,451,c,{
"Letterink-NibData" = {
AngleInDegrees = "28";
MainAxisWidth = "59";
MinorAxisWidth = "59";
ValidForParentMainAxisWidth = "15";
ValidForParentMinorAxisWidth = "15";
};
"Letterink-NibStyleId" = "7";
})
);
},
{
closed = 0;
nodes = (
(551,632,l,{
"Letterink-NibData" = {
AngleInDegrees = "28";
MainAxisWidth = "64";
MinorAxisWidth = "64";
ValidForParentMainAxisWidth = "15";
ValidForParentMinorAxisWidth = "15";
};
"Letterink-NibStyleId" = "6";
}),
(443,481,o),
(409,236,o),
(363,133,cs,{
"Letterink-NibData" = {
AngleInDegrees = "28";
MainAxisWidth = "64";
MinorAxisWidth = "64";
ValidForParentMainAxisWidth = "15";
ValidForParentMinorAxisWidth = "15";
};
"Letterink-NibStyleId" = "6";
}),
(326,50,o),
(260,10,o),
(186,10,cs,{
"Letterink-NibData" = {
AngleInDegrees = "28";
MainAxisWidth = "59";
MinorAxisWidth = "59";
ValidForParentMainAxisWidth = "15";
ValidForParentMinorAxisWidth = "15";
};
"Letterink-NibStyleId" = "7";
}),
(127,10,o),
(79,36,o),
(48,87,c,{
"Letterink-NibData" = {
AngleInDegrees = "28";
MainAxisWidth = "59";
MinorAxisWidth = "59";
ValidForParentMainAxisWidth = "15";
ValidForParentMinorAxisWidth = "15";
};
"Letterink-NibStyleId" = "7";
})
);
},
{
closed = 0;
nodes = (
(314,330,l,{
"Letterink-NibData" = {
AngleInDegrees = "28";
MainAxisWidth = "59";
MinorAxisWidth = "59";
ValidForParentMainAxisWidth = "15";
ValidForParentMinorAxisWidth = "15";
};
"Letterink-NibStyleId" = "7";
}),
(769,330,l,{
"Letterink-NibData" = {
AngleInDegrees = "28";
MainAxisWidth = "59";
MinorAxisWidth = "59";
ValidForParentMainAxisWidth = "15";
ValidForParentMinorAxisWidth = "15";
};
"Letterink-NibStyleId" = "7";
})
);
}
);
};
layerId = m01;
shapes = (
{
closed = 0;
nodes = (
(990,781,l,{
"Letterink-NibData" = {
AngleInDegrees = 28;
MainAxisWidth = 87;
MinorAxisWidth = 87;
ValidForParentMainAxisWidth = 15;
ValidForParentMinorAxisWidth = 15;
};
"Letterink-NibStyleId" = 6;
}),
(889,766,o),
(832,777,o),
(703,793,cs,{
"Letterink-NibData" = {
AngleInDegrees = 28;
MainAxisWidth = 87;
MinorAxisWidth = 87;
ValidForParentMainAxisWidth = 15;
ValidForParentMinorAxisWidth = 15;
};
"Letterink-NibStyleId" = 6;
}),
(559,811,o),
(457,817,o),
(328,770,c,{
"Letterink-NibData" = {
AngleInDegrees = 28;
MainAxisWidth = 87;
MinorAxisWidth = 87;
ValidForParentMainAxisWidth = 15;
ValidForParentMinorAxisWidth = 15;
};
"Letterink-NibStyleId" = 6;
})
);
},
{
closed = 0;
nodes = (
(587,767,l,{
"Letterink-NibData" = {
AngleInDegrees = 28;
MainAxisWidth = 87;
MinorAxisWidth = 87;
ValidForParentMainAxisWidth = 15;
ValidForParentMinorAxisWidth = 15;
};
"Letterink-NibStyleId" = 6;
}),
(490,533,o),
(454,264,o),
(404,155,cs,{
"Letterink-NibData" = {
AngleInDegrees = 28;
MainAxisWidth = 87;
MinorAxisWidth = 87;
ValidForParentMainAxisWidth = 15;
ValidForParentMinorAxisWidth = 15;
};
"Letterink-NibStyleId" = 6;
}),
(370,80,o),
(312,43,o),
(245,43,cs,{
"Letterink-NibData" = {
AngleInDegrees = 28;
MainAxisWidth = 87;
MinorAxisWidth = 87;
ValidForParentMainAxisWidth = 15;
ValidForParentMinorAxisWidth = 15;
};
"Letterink-NibStyleId" = 6;
}),
(151,43,o),
(91,116,o),
(91,229,c,{
"Letterink-NibData" = {
AngleInDegrees = 28;
MainAxisWidth = 87;
MinorAxisWidth = 87;
ValidForParentMainAxisWidth = 15;
ValidForParentMinorAxisWidth = 15;
};
"Letterink-NibStyleId" = 6;
})
);
},
{
closed = 0;
nodes = (
(327,472,l,{
"Letterink-NibData" = {
AngleInDegrees = 28;
MainAxisWidth = 87;
MinorAxisWidth = 87;
ValidForParentMainAxisWidth = 15;
ValidForParentMinorAxisWidth = 15;
};
"Letterink-NibStyleId" = 6;
}),
(836,472,l,{
"Letterink-NibData" = {
AngleInDegrees = 28;
MainAxisWidth = 87;
MinorAxisWidth = 87;
ValidForParentMainAxisWidth = 15;
ValidForParentMinorAxisWidth = 15;
};
"Letterink-NibStyleId" = 6;
})
);
}
);
userData = {
"Letterink-ComputationAllowed" = YES;
};
width = 880;
}
);
metricLeft = F.ss03;
note = F;
unicode = 70;
},
{
glyphname = G;
kernLeft = G;
kernRight = G;
lastChange = "2025-03-09 08:11:32 +0000";
layers = (
{
anchors = (
{
name = bottom;
pos = (741,0);
},
{
name = top;
pos = (549,890);
}
);
background = {
hints = (
{
horizontal = 1;
place = (578,-20);
target = down;
type = TopGhost;
},
{
horizontal = 1;
place = (524,-20);
target = down;
type = TopGhost;
},
{
horizontal = 1;
place = (712,80);
type = Stem;
},
{
horizontal = 1;
place = (383,62);
type = Stem;
},
{
horizontal = 1;
place = (-325,66);
type = Stem;
},
{
horizontal = 1;
place = (-16,21);
target = up;
type = BottomGhost;
},
{
place = (604,72);
type = Stem;
},
{
place = (283,70);
type = Stem;
},
{
place = (133,75);
type = Stem;
}
);
shapes = (
{
pos = (-11,0);
ref = S;
}
);
};
layerId = m01;
shapes = (
{
closed = 0;
nodes = (
(651,574,l,{
"Letterink-NibData" = {
AngleInDegrees = 28;
MainAxisWidth = 85;
MinorAxisWidth = 85;
ValidForParentMainAxisWidth = 15;
ValidForParentMinorAxisWidth = 15;
};
"Letterink-NibStyleId" = 7;
}),
(741,720,o),
(692,830,o),
(537,830,cs,{
"Letterink-NibData" = {
AngleInDegrees = 28;
MainAxisWidth = 85;
MinorAxisWidth = 85;
ValidForParentMainAxisWidth = 15;
ValidForParentMinorAxisWidth = 15;
};
"Letterink-NibStyleId" = 7;
}),
(293,830,o),
(131,556,o),
(131,322,cs,{
"Letterink-NibData" = {
AngleInDegrees = 28;
MainAxisWidth = 87;
MinorAxisWidth = 87;
ValidForParentMainAxisWidth = 15;
ValidForParentMinorAxisWidth = 15;
};
"Letterink-NibStyleId" = "6";
}),
(131,147,o),
(210,37,o),
(337,37,cs,{
"Letterink-NibData" = {
AngleInDegrees = 28;
MainAxisWidth = 85;
MinorAxisWidth = 85;
ValidForParentMainAxisWidth = 15;
ValidForParentMinorAxisWidth = 15;
};
"Letterink-NibStyleId" = "7";
}),
(469,37,o),
(615,185,o),
(694,402,c,{
"Letterink-NibData" = {
AngleInDegrees = 28;
MainAxisWidth = 87;
MinorAxisWidth = 87;
ValidForParentMainAxisWidth = 15;
ValidForParentMinorAxisWidth = 15;
};
"Letterink-NibStyleId" = 6;
}),
(548,-103,ls,{
"Letterink-NibData" = {
AngleInDegrees = 28;
MainAxisWidth = 87;
MinorAxisWidth = 87;
ValidForParentMainAxisWidth = 15;
ValidForParentMinorAxisWidth = 15;
};
"Letterink-NibStyleId" = 6;
}),
(507,-243,o),
(428,-323,o),
(353,-309,cs,{
"Letterink-NibData" = {
AngleInDegrees = 28;
MainAxisWidth = 85;
MinorAxisWidth = 85;
ValidForParentMainAxisWidth = 15;
ValidForParentMinorAxisWidth = 15;
};
"Letterink-NibStyleId" = 7;
}),
(283,-296,o),
(300,-218,o),
(363,-152,cs,{
"Letterink-NibData" = {
AngleInDegrees = 28;
MainAxisWidth = 85;
MinorAxisWidth = 85;
ValidForParentMainAxisWidth = 15;
ValidForParentMinorAxisWidth = 15;
};
"Letterink-NibStyleId" = 7;
}),
(522,7,o),
(767,138,o),
(1045,480,c,{
"Letterink-NibData" = {
AngleInDegrees = 28;
MainAxisWidth = 85;
MinorAxisWidth = 85;
ValidForParentMainAxisWidth = 15;
ValidForParentMinorAxisWidth = 15;
};
"Letterink-NibStyleId" = 7;
})
);
}
);
userData = {
"Letterink-ComputationAllowed" = YES;
};
width = 875;
}
);
metricLeft = G.ss03;
note = G;
unicode = 71;
},
{
glyphname = H;
kernLeft = H;
kernRight = H;
lastChange = "2024-09-04 04:52:12 +0000";
layers = (
{
background = {
hints = (
{
horizontal = 1;
place = (779,-20);
target = down;
type = TopGhost;
},
{
horizontal = 1;
place = (564,-20);
target = down;
type = TopGhost;
},
{
horizontal = 1;
place = (662,70);
type = Stem;
},
{
horizontal = 1;
place = (293,69);
type = Stem;
},
{
horizontal = 1;
place = (-16,68);
type = Stem;
},
{
place = (6,899);
type = Stem;
}
);
shapes = (
{
closed = 0;
nodes = (
(783,778,l,{
"Letterink-NibData" = {
AngleInDegrees = "28";
MainAxisWidth = "64";
MinorAxisWidth = "64";
ValidForParentMainAxisWidth = "15";
ValidForParentMinorAxisWidth = "15";
};
"Letterink-NibStyleId" = "6";
}),
(639,157,ls,{
"Letterink-NibData" = {
AngleInDegrees = "28";
MainAxisWidth = "64";
MinorAxisWidth = "64";
ValidForParentMainAxisWidth = "15";
ValidForParentMinorAxisWidth = "15";
};
"Letterink-NibStyleId" = "6";
}),
(614,49,o),
(641,-15,o),
(706,-15,cs,{
"Letterink-NibData" = {
AngleInDegrees = "28";
MainAxisWidth = "59";
MinorAxisWidth = "59";
ValidForParentMainAxisWidth = "15";
ValidForParentMinorAxisWidth = "15";
};
"Letterink-NibStyleId" = "7";
}),
(756,-15,o),
(805,25,o),
(871,115,cs,{
"Letterink-NibData" = {
AngleInDegrees = "28";
MainAxisWidth = "59";
MinorAxisWidth = "59";
ValidForParentMainAxisWidth = "15";
ValidForParentMinorAxisWidth = "15";
};
"Letterink-NibStyleId" = "7";
}),
(926,190,o),
(996,307,o),
(1045,385,c,{
"Letterink-NibData" = {
AngleInDegrees = "28";
MainAxisWidth = "57";
MinorAxisWidth = "57";
ValidForParentMainAxisWidth = "15";
ValidForParentMinorAxisWidth = "15";
};
"Letterink-NibStyleId" = "8";
})
);
},
{
closed = 0;
nodes = (
(379,389,l,{
"Letterink-NibData" = {
AngleInDegrees = "28";
MainAxisWidth = "59";
MinorAxisWidth = "59";
ValidForParentMainAxisWidth = "15";
ValidForParentMinorAxisWidth = "15";
};
"Letterink-NibStyleId" = "7";
}),
(819,389,l,{
"Letterink-NibData" = {
AngleInDegrees = "28";
MainAxisWidth = "59";
MinorAxisWidth = "59";
ValidForParentMainAxisWidth = "15";
ValidForParentMinorAxisWidth = "15";
};
"Letterink-NibStyleId" = "7";
})
);
},
{
closed = 0;
nodes = (
(28,716,l,{
"Letterink-NibData" = {
AngleInDegrees = "28";
MainAxisWidth = "64";
MinorAxisWidth = "64";
ValidForParentMainAxisWidth = "15";
ValidForParentMinorAxisWidth = "15";
};
"Letterink-NibStyleId" = "6";
}),
(121,624,o),
(279,647,o),
(462,778,c,{
"Letterink-NibData" = {
AngleInDegrees = "28";
MainAxisWidth = "59";
MinorAxisWidth = "59";
ValidForParentMainAxisWidth = "15";
ValidForParentMinorAxisWidth = "15";
};
"Letterink-NibStyleId" = "7";
}),
(283,8,l,{
"Letterink-NibData" = {
AngleInDegrees = "28";
MainAxisWidth = "64";
MinorAxisWidth = "64";
ValidForParentMainAxisWidth = "15";
ValidForParentMinorAxisWidth = "15";
};
"Letterink-NibStyleId" = "6";
})
);
}
);
};
layerId = m01;
shapes = (
{
closed = 0;
nodes = (
(864,860,l,{
"Letterink-NibData" = {
AngleInDegrees = 28;
MainAxisWidth = 87;
MinorAxisWidth = 87;
ValidForParentMainAxisWidth = 15;
ValidForParentMinorAxisWidth = 15;
};
"Letterink-NibStyleId" = 6;
}),
(718,233,ls,{
"Letterink-NibData" = {
AngleInDegrees = 28;
MainAxisWidth = 87;
MinorAxisWidth = 87;
ValidForParentMainAxisWidth = 15;
ValidForParentMinorAxisWidth = 15;
};
"Letterink-NibStyleId" = 6;
}),
(691,114,o),
(725,38,o),
(807,38,cs,{
"Letterink-NibData" = {
AngleInDegrees = 28;
MainAxisWidth = 85;
MinorAxisWidth = 85;
ValidForParentMainAxisWidth = 15;
ValidForParentMinorAxisWidth = 15;
};
"Letterink-NibStyleId" = 7;
}),
(863,38,o),
(932,83,o),
(986,154,cs,{
"Letterink-NibData" = {
AngleInDegrees = 28;
MainAxisWidth = 85;
MinorAxisWidth = 85;
ValidForParentMainAxisWidth = 15;
ValidForParentMinorAxisWidth = 15;
};
"Letterink-NibStyleId" = 7;
}),
(1047,233,o),
(1110,308,o),
(1177,473,c,{
"Letterink-NibData" = {
AngleInDegrees = 28;
MainAxisWidth = 85;
MinorAxisWidth = 85;
ValidForParentMainAxisWidth = 15;
ValidForParentMinorAxisWidth = 15;
};
"Letterink-NibStyleId" = 7;
})
);
},
{
closed = 0;
nodes = (
(421,435,l,{
"Letterink-NibData" = {
AngleInDegrees = 28;
MainAxisWidth = 85;
MinorAxisWidth = 85;
ValidForParentMainAxisWidth = 15;
ValidForParentMinorAxisWidth = 15;
};
"Letterink-NibStyleId" = 7;
}),
(902,435,l,{
"Letterink-NibData" = {
AngleInDegrees = 28;
MainAxisWidth = 85;
MinorAxisWidth = 85;
ValidForParentMainAxisWidth = 15;
ValidForParentMinorAxisWidth = 15;
};
"Letterink-NibStyleId" = 7;
})
);
},
{
closed = 0;
nodes = (
(278,612,l,{
"Letterink-NibData" = {
AngleInDegrees = 28;
MainAxisWidth = 85;
MinorAxisWidth = 85;
ValidForParentMainAxisWidth = 15;
ValidForParentMinorAxisWidth = 15;
};
"Letterink-NibStyleId" = 7;
}),
(166,572,o),
(90,607,o),
(90,697,cs,{
"Letterink-NibData" = {
AngleInDegrees = 28;
MainAxisWidth = 85;
MinorAxisWidth = 85;
ValidForParentMainAxisWidth = 15;
ValidForParentMinorAxisWidth = 15;
};
"Letterink-NibStyleId" = 7;
}),
(90,810,o),
(215,864,o),
(512,860,c,{
"Letterink-NibData" = {
AngleInDegrees = 28;
MainAxisWidth = 85;
MinorAxisWidth = 85;
ValidForParentMainAxisWidth = 15;
ValidForParentMinorAxisWidth = 15;
};
"Letterink-NibStyleId" = 7;
}),
(316,18,l,{
"Letterink-NibData" = {
AngleInDegrees = 28;
MainAxisWidth = 87;
MinorAxisWidth = 87;
ValidForParentMainAxisWidth = 15;
ValidForParentMinorAxisWidth = 15;
};
"Letterink-NibStyleId" = 6;
})
);
}
);
userData = {
"Letterink-ComputationAllowed" = YES;
};
width = 1008;
}
);
metricLeft = H.ss03;
note = H;
unicode = 72;
},
{
glyphname = I;
kernLeft = I;
kernRight = I;
lastChange = "2024-08-21 04:11:46 +0000";
layers = (
{
anchors = (
{
name = bottom;
pos = (436,-15);
},
{
name = top;
pos = (537,921);
}
);
background = {
shapes = (
{
closed = 0;
nodes = (
(352,519,l,{
"Letterink-NibData" = {
AngleInDegrees = "28";
MainAxisWidth = "85";
MinorAxisWidth = "85";
ValidForParentMainAxisWidth = "15";
ValidForParentMinorAxisWidth = "15";
};
"Letterink-NibStyleId" = "7";
}),
(240,480,o),
(164,515,o),
(164,604,cs,{
"Letterink-NibData" = {
AngleInDegrees = "28";
MainAxisWidth = "85";
MinorAxisWidth = "85";
ValidForParentMainAxisWidth = "15";
ValidForParentMinorAxisWidth = "15";
};
"Letterink-NibStyleId" = "7";
}),
(164,718,o),
(289,774,o),
(407,774,cs,{
"Letterink-NibData" = {
AngleInDegrees = "28";
MainAxisWidth = "85";
MinorAxisWidth = "85";
ValidForParentMainAxisWidth = "15";
ValidForParentMinorAxisWidth = "15";
};
"Letterink-NibStyleId" = "7";
}),
(539,774,o),
(583,776,o),
(643,839,c,{
"Letterink-NibData" = {
AngleInDegrees = "28";
MainAxisWidth = "85";
MinorAxisWidth = "85";
ValidForParentMainAxisWidth = "15";
ValidForParentMinorAxisWidth = "15";
};
"Letterink-NibStyleId" = "7";
}),
(516,595,o),
(485,281,o),
(429,154,cs,{
"Letterink-NibData" = {
AngleInDegrees = "28";
MainAxisWidth = "87";
MinorAxisWidth = "87";
ValidForParentMainAxisWidth = "15";
ValidForParentMinorAxisWidth = "15";
};
"Letterink-NibStyleId" = "6";
}),
(387,63,o),
(316,20,o),
(234,20,cs,{
"Letterink-NibData" = {
AngleInDegrees = "28";
MainAxisWidth = "85";
MinorAxisWidth = "85";
ValidForParentMainAxisWidth = "15";
ValidForParentMinorAxisWidth = "15";
};
"Letterink-NibStyleId" = "7";
}),
(160,20,o),
(101,58,o),
(60,106,c,{
"Letterink-NibData" = {
AngleInDegrees = "28";
MainAxisWidth = "85";
MinorAxisWidth = "85";
ValidForParentMainAxisWidth = "15";
ValidForParentMinorAxisWidth = "15";
};
"Letterink-NibStyleId" = "7";
})
);
}
);
};
layerId = m01;
shapes = (
{
closed = 0;
nodes = (
(850,805,l,{
"Letterink-NibData" = {
AngleInDegrees = 28;
MainAxisWidth = 85;
MinorAxisWidth = 85;
ValidForParentMainAxisWidth = 15;
ValidForParentMinorAxisWidth = 15;
};
"Letterink-NibStyleId" = "7";
}),
(749,797,o),
(723,799,o),
(533,807,cs,{
"Letterink-NibData" = {
AngleInDegrees = 28;
MainAxisWidth = 85;
MinorAxisWidth = 85;
ValidForParentMainAxisWidth = 15;
ValidForParentMinorAxisWidth = 15;
};
"Letterink-NibStyleId" = "7";
}),
(294,820,o),
(135,757,o),
(119,643,cs,{
"Letterink-NibData" = {
AngleInDegrees = 28;
MainAxisWidth = 85;
MinorAxisWidth = 85;
ValidForParentMainAxisWidth = 15;
ValidForParentMinorAxisWidth = 15;
};
"Letterink-NibStyleId" = "7";
}),
(106,546,o),
(182,494,o),
(307,514,c,{
"Letterink-NibData" = {
AngleInDegrees = 28;
MainAxisWidth = 85;
MinorAxisWidth = 85;
ValidForParentMainAxisWidth = 15;
ValidForParentMinorAxisWidth = 15;
};
"Letterink-NibStyleId" = "7";
})
);
},
{
closed = 0;
nodes = (
(569,785,l,{
"Letterink-NibData" = {
AngleInDegrees = 28;
MainAxisWidth = 87;
MinorAxisWidth = 87;
ValidForParentMainAxisWidth = 15;
ValidForParentMinorAxisWidth = 15;
};
"Letterink-NibStyleId" = "6";
}),
(480,576,o),
(453,213,o),
(407,66,c,{
"Letterink-NibData" = {
AngleInDegrees = 28;
MainAxisWidth = 87;
MinorAxisWidth = 87;
ValidForParentMainAxisWidth = 15;
ValidForParentMinorAxisWidth = 15;
};
"Letterink-NibStyleId" = "6";
})
);
},
{
closed = 0;
nodes = (
(750,37,l,{
"Letterink-NibData" = {
AngleInDegrees = 28;
MainAxisWidth = 85;
MinorAxisWidth = 85;
ValidForParentMainAxisWidth = 15;
ValidForParentMinorAxisWidth = 15;
};
"Letterink-NibStyleId" = "7";
}),
(649,29,o),
(623,31,o),
(433,39,cs,{
"Letterink-NibData" = {
AngleInDegrees = 28;
MainAxisWidth = 85;
MinorAxisWidth = 85;
ValidForParentMainAxisWidth = 15;
ValidForParentMinorAxisWidth = 15;
};
"Letterink-NibStyleId" = "7";
}),
(262,48,o),
(156,41,o),
(79,34,c,{
"Letterink-NibData" = {
AngleInDegrees = 28;
MainAxisWidth = 85;
MinorAxisWidth = 85;
ValidForParentMainAxisWidth = 15;
ValidForParentMinorAxisWidth = 15;
};
"Letterink-NibStyleId" = "7";
})
);
}
);
userData = {
"Letterink-ComputationAllowed" = YES;
};
width = 809;
}
);
metricLeft = I.ss03;
note = I;
unicode = 73;
},
{
glyphname = J;
kernLeft = I;
kernRight = I;
lastChange = "2024-08-20 14:41:20 +0000";
layers = (
{
background = {
shapes = (
{
closed = 1;
nodes = (
(392,-232,o),
(432,-196,o),
(459,-119,cs),
(474,-77,o),
(492,1,o),
(553,274,c),
(838,375,ls),
(852,380,o),
(859,392,o),
(859,405,cs),
(859,428,o),
(835,440,o),
(817,434,cs),
(571,349,l),
(584,408,o),
(600,485,o),
(619,579,c),
(637,582,o),
(665,592,o),
(686,601,cs),
(738,623,o),
(773,650,o),
(792,686,cs),
(811,722,o),
(812,762,o),
(795,798,cs),
(781,828,o),
(759,846,o),
(728,853,cs),
(697,860,o),
(664,854,o),
(638,838,cs),
(612,822,o),
(594,797,o),
(586,763,cs),
(580,738,ls),
(577,725,o),
(574,715,o),
(569,690,cs),
(557,632,l),
(512,632,o),
(420,663,o),
(383,674,cs),
(332,689,o),
(277,696,o),
(220,672,cs),
(170,651,o),
(143,616,o),
(133,568,cs),
(124,525,o),
(131,482,o),
(150,447,cs),
(172,406,o),
(207,379,o),
(250,364,cs),
(281,353,o),
(315,349,o),
(344,350,cs),
(373,351,o),
(396,356,o),
(406,359,cs),
(425,365,o),
(432,375,o),
(432,390,cs),
(432,408,o),
(421,421,o),
(408,426,cs),
(404,428,o),
(400,427,o),
(396,426,cs),
(384,423,ls),
(378,422,o),
(362,419,o),
(360,419,cs),
(351,418,o),
(342,417,o),
(332,417,cs),
(296,417,o),
(265,429,o),
(240,453,cs),
(217,475,o),
(204,504,o),
(204,535,cs),
(204,569,o),
(219,595,o),
(246,609,cs),
(280,627,o),
(323,621,o),
(367,609,cs),
(419,595,o),
(486,570,o),
(543,568,c),
(486,318,l),
(232,230,ls),
(171,209,o),
(118,183,o),
(78,153,cs),
(37,122,o),
(12,89,o),
(2,50,cs),
(-16,-19,o),
(18,-86,o),
(108,-157,cs),
(187,-219,o),
(260,-244,o),
(325,-238,cs)
);
},
{
closed = 1;
nodes = (
(94,87,o),
(153,132,o),
(247,165,cs),
(470,243,l),
(422,38,o),
(393,-80,o),
(383,-110,c),
(383,-110,l),
(383,-110,o),
(381,-113,o),
(379,-118,cs),
(367,-150,o),
(339,-165,o),
(308,-165,cs),
(275,-165,o),
(216,-149,o),
(164,-115,cs),
(132,-94,o),
(105,-67,o),
(90,-39,cs),
(76,-12,o),
(73,14,o),
(80,38,cs)
);
},
{
closed = 1;
nodes = (
(654,737,o),
(648,718,o),
(653,742,cs),
(657,761,o),
(661,771,o),
(675,780,cs),
(686,787,o),
(697,789,o),
(709,785,cs),
(718,782,o),
(728,775,o),
(732,763,c),
(733,764,l),
(742,740,o),
(736,718,o),
(716,697,cs),
(696,676,o),
(668,660,o),
(633,649,c)
);
}
);
};
layerId = m01;
shapes = (
{
closed = 0;
nodes = (
(278,502,l,{
"Letterink-NibData" = {
AngleInDegrees = 28;
MainAxisWidth = 85;
MinorAxisWidth = 85;
ValidForParentMainAxisWidth = 15;
ValidForParentMinorAxisWidth = 15;
};
"Letterink-NibStyleId" = 7;
}),
(166,463,o),
(90,498,o),
(90,587,cs,{
"Letterink-NibData" = {
AngleInDegrees = 28;
MainAxisWidth = 85;
MinorAxisWidth = 85;
ValidForParentMainAxisWidth = 15;
ValidForParentMinorAxisWidth = 15;
};
"Letterink-NibStyleId" = 7;
}),
(90,701,o),
(215,767,o),
(377,753,cs,{
"Letterink-NibData" = {
AngleInDegrees = 28;
MainAxisWidth = 85;
MinorAxisWidth = 85;
ValidForParentMainAxisWidth = 15;
ValidForParentMinorAxisWidth = 15;
};
"Letterink-NibStyleId" = 7;
}),
(540,739,o),
(624,768,o),
(725,841,c,{
"Letterink-NibData" = {
AngleInDegrees = 28;
MainAxisWidth = 85;
MinorAxisWidth = 85;
ValidForParentMainAxisWidth = 15;
ValidForParentMinorAxisWidth = 15;
};
"Letterink-NibStyleId" = 7;
}),
(523,111,ls,{
"Letterink-NibData" = {
AngleInDegrees = 28;
MainAxisWidth = 87;
MinorAxisWidth = 87;
ValidForParentMainAxisWidth = 15;
ValidForParentMinorAxisWidth = 15;
};
"Letterink-NibStyleId" = 6;
}),
(473,-72,o),
(359,-182,o),
(236,-182,cs,{
"Letterink-NibData" = {
AngleInDegrees = 28;
MainAxisWidth = 85;
MinorAxisWidth = 85;
ValidForParentMainAxisWidth = 15;
ValidForParentMinorAxisWidth = 15;
};
"Letterink-NibStyleId" = 7;
}),
(178,-182,o),
(142,-144,o),
(142,-93,cs,{
"Letterink-NibData" = {
AngleInDegrees = 28;
MainAxisWidth = 85;
MinorAxisWidth = 85;
ValidForParentMainAxisWidth = 15;
ValidForParentMinorAxisWidth = 15;
};
"Letterink-NibStyleId" = 7;
}),
(142,-23,o),
(197,36,o),
(324,114,cs,{
"Letterink-NibData" = {
AngleInDegrees = 28;
MainAxisWidth = 85;
MinorAxisWidth = 85;
ValidForParentMainAxisWidth = 15;
ValidForParentMinorAxisWidth = 15;
};
"Letterink-NibStyleId" = 7;
}),
(520,232,o),
(865,425,o),
(975,476,c,{
"Letterink-NibData" = {
AngleInDegrees = 28;
MainAxisWidth = 85;
MinorAxisWidth = 85;
ValidForParentMainAxisWidth = 15;
ValidForParentMinorAxisWidth = 15;
};
"Letterink-NibStyleId" = 7;
})
);
}
);
userData = {
"Letterink-ComputationAllowed" = YES;
};
width = 808;
}
);
metricLeft = J.ss03;
note = J;
unicode = 74;
},
{
glyphname = K;
kernLeft = K;
kernRight = K;
lastChange = "2024-08-20 14:41:24 +0000";
layers = (
{
background = {
shapes = (
{
closed = 1;
nodes = (
(319,-16,o),
(351,11,o),
(379,53,cs),
(412,102,o),
(442,179,o),
(471,283,c),
(552,167,o),
(613,89,o),
(665,43,cs),
(709,4,o),
(754,-19,o),
(809,-19,cs),
(834,-19,o),
(861,-14,o),
(888,-2,cs),
(915,10,o),
(943,30,o),
(975,57,cs),
(1001,79,o),
(1030,106,o),
(1052,128,cs),
(1070,145,o),
(1120,200,o),
(1123,203,cs),
(1129,209,o),
(1132,216,o),
(1132,225,cs),
(1132,242,o),
(1118,257,o),
(1100,257,cs),
(1091,257,o),
(1083,253,o),
(1077,247,cs),
(1070,240,o),
(1010,175,o),
(946,125,cs),
(890,81,o),
(849,62,o),
(813,62,cs),
(777,62,o),
(741,81,o),
(699,123,cs),
(659,164,o),
(605,232,o),
(537,328,c),
(549,341,o),
(574,370,o),
(612,414,cs),
(729,549,ls),
(770,596,o),
(813,644,o),
(840,669,cs),
(869,696,o),
(886,704,o),
(909,703,cs),
(934,702,o),
(947,690,o),
(957,675,cs),
(975,648,o),
(975,621,o),
(957,590,cs),
(935,553,o),
(892,519,o),
(876,502,cs),
(871,497,o),
(864,489,o),
(864,476,cs),
(864,457,o),
(880,441,o),
(899,441,cs),
(907,441,o),
(915,443,o),
(920,448,c),
(980,492,o),
(1017,536,o),
(1034,581,cs),
(1054,635,o),
(1041,692,o),
(1005,732,cs),
(988,751,o),
(968,763,o),
(946,769,cs),
(920,776,o),
(890,775,o),
(862,766,cs),
(830,756,o),
(804,737,o),
(776,706,cs),
(671,590,o),
(562,465,o),
(494,384,c),
(568,663,o),
(546,585,o),
(554,612,cs),
(569,664,ls),
(573,678,o),
(576,690,o),
(579,698,cs),
(580,701,o),
(580,705,o),
(579,710,cs),
(574,735,o),
(554,749,o),
(532,749,cs),
(520,749,o),
(508,745,o),
(502,735,c),
(489,724,o),
(475,716,o),
(458,710,cs),
(435,702,o),
(411,699,o),
(387,701,cs),
(363,702,o),
(362,704,o),
(298,719,cs),
(238,733,o),
(125,754,o),
(52,591,cs),
(50,587,o),
(49,582,o),
(49,577,cs),
(49,558,o),
(65,542,o),
(84,542,cs),
(97,542,o),
(110,550,o),
(116,563,cs),
(137,608,o),
(158,632,o),
(180,645,cs),
(207,661,o),
(241,663,o),
(282,651,cs),
(364,627,o),
(436,626,o),
(490,649,c),
(482,618,o),
(479,608,o),
(454,512,cs),
(410,343,o),
(376,214,o),
(342,138,cs),
(312,71,o),
(283,47,o),
(239,47,cs),
(224,47,o),
(210,50,o),
(198,56,cs),
(186,62,o),
(177,71,o),
(168,86,cs),
(162,96,o),
(155,110,o),
(150,123,cs),
(148,128,o),
(146,134,o),
(144,141,cs),
(141,150,o),
(131,164,o),
(108,164,cs),
(86,164,o),
(77,151,o),
(77,122,cs),
(77,120,o),
(77,114,o),
(77,116,cs),
(77,91,o),
(116,45,o),
(136,24,cs),
(170,-12,o),
(198,-25,o),
(252,-21,cs)
);
}
);
};
layerId = m01;
shapes = (
{
closed = 0;
nodes = (
(237,555,l,{
"Letterink-NibData" = {
AngleInDegrees = 28;
MainAxisWidth = 85;
MinorAxisWidth = 85;
ValidForParentMainAxisWidth = 15;
ValidForParentMinorAxisWidth = 15;
};
"Letterink-NibStyleId" = 7;
}),
(154,524,o),
(102,552,o),
(107,622,cs,{
"Letterink-NibData" = {
AngleInDegrees = 28;
MainAxisWidth = 85;
MinorAxisWidth = 85;
ValidForParentMainAxisWidth = 15;
ValidForParentMinorAxisWidth = 15;
};
"Letterink-NibStyleId" = 7;
}),
(113,714,o),
(206,767,o),
(320,755,cs,{
"Letterink-NibData" = {
AngleInDegrees = 28;
MainAxisWidth = 85;
MinorAxisWidth = 85;
ValidForParentMainAxisWidth = 15;
ValidForParentMinorAxisWidth = 15;
};
"Letterink-NibStyleId" = 7;
}),
(481,740,o),
(560,761,o),
(671,839,c,{
"Letterink-NibData" = {
AngleInDegrees = 28;
MainAxisWidth = 85;
MinorAxisWidth = 85;
ValidForParentMainAxisWidth = 15;
ValidForParentMinorAxisWidth = 15;
};
"Letterink-NibStyleId" = 7;
}),
(527,597,o),
(475,286,o),
(409,156,cs,{
"Letterink-NibData" = {
AngleInDegrees = 28;
MainAxisWidth = 87;
MinorAxisWidth = 87;
ValidForParentMainAxisWidth = 15;
ValidForParentMinorAxisWidth = 15;
};
"Letterink-NibStyleId" = 6;
}),
(366,70,o),
(296,20,o),
(228,20,cs,{
"Letterink-NibData" = {
AngleInDegrees = 28;
MainAxisWidth = 85;
MinorAxisWidth = 85;
ValidForParentMainAxisWidth = 15;
ValidForParentMinorAxisWidth = 15;
};
"Letterink-NibStyleId" = 7;
}),
(172,20,o),
(118,53,o),
(91,106,c,{
"Letterink-NibData" = {
AngleInDegrees = 28;
MainAxisWidth = 85;
MinorAxisWidth = 85;
ValidForParentMainAxisWidth = 15;
ValidForParentMinorAxisWidth = 15;
};
"Letterink-NibStyleId" = 7;
})
);
},
{
closed = 0;
nodes = (
(984,662,l,{
"Letterink-NibData" = {
AngleInDegrees = 28;
MainAxisWidth = 85;
MinorAxisWidth = 85;
ValidForParentMainAxisWidth = 15;
ValidForParentMinorAxisWidth = 15;
};
"Letterink-NibStyleId" = 7;
}),
(1039,750,o),
(1052,800,o),
(1012,834,cs,{
"Letterink-NibData" = {
AngleInDegrees = 28;
MainAxisWidth = 85;
MinorAxisWidth = 85;
ValidForParentMainAxisWidth = 15;
ValidForParentMinorAxisWidth = 15;
};
"Letterink-NibStyleId" = 7;
}),
(910,925,o),
(741,697,o),
(566,401,c,{
"Letterink-NibData" = {
AngleInDegrees = 28;
MainAxisWidth = 87;
MinorAxisWidth = 87;
ValidForParentMainAxisWidth = 15;
ValidForParentMinorAxisWidth = 15;
};
"Letterink-NibStyleId" = 6;
}),
(597,163,o),
(674,26,o),
(775,26,cs,{
"Letterink-NibData" = {
AngleInDegrees = 28;
MainAxisWidth = 85;
MinorAxisWidth = 85;
ValidForParentMainAxisWidth = 15;
ValidForParentMinorAxisWidth = 15;
};
"Letterink-NibStyleId" = 7;
}),
(877,26,o),
(986,138,o),
(1214,472,c,{
"Letterink-NibData" = {
AngleInDegrees = 28;
MainAxisWidth = 85;
MinorAxisWidth = 85;
ValidForParentMainAxisWidth = 15;
ValidForParentMinorAxisWidth = 15;
};
"Letterink-NibStyleId" = 7;
})
);
}
);
userData = {
"Letterink-ComputationAllowed" = YES;
};
width = 1044;
}
);
metricLeft = K.ss03;
note = K;
unicode = 75;
},
{
glyphname = L;
kernLeft = L;
kernRight = L;
lastChange = "2024-08-20 14:41:28 +0000";
layers = (
{
background = {
shapes = (
{
closed = 1;
nodes = (
(899,203,o),
(888,214,o),
(875,214,cs),
(869,214,o),
(863,211,o),
(858,206,cs),
(839,187,ls),
(749,97,o),
(685,63,o),
(600,63,cs),
(522,63,o),
(438,100,o),
(349,125,c),
(400,208,o),
(438,304,o),
(461,363,cs),
(469,382,o),
(483,422,o),
(501,469,c),
(627,552,o),
(747,652,o),
(747,732,cs),
(747,772,o),
(721,800,o),
(682,800,cs),
(649,800,o),
(611,780,o),
(579,740,cs),
(541,692,o),
(504,605,o),
(465,505,c),
(356,435,o),
(243,375,o),
(210,357,cs),
(201,352,o),
(197,344,o),
(197,337,cs),
(197,325,o),
(207,312,o),
(220,312,cs),
(223,312,o),
(228,312,o),
(232,314,cs),
(275,338,o),
(354,378,o),
(435,428,c),
(395,324,o),
(350,217,o),
(300,137,c),
(271,142,o),
(240,146,o),
(209,146,cs),
(104,146,o),
(44,105,o),
(44,43,cs),
(44,-14,o),
(88,-40,o),
(134,-40,cs),
(208,-40,o),
(271,13,o),
(322,83,c),
(416,60,o),
(506,16,o),
(600,16,cs),
(703,16,o),
(779,61,o),
(873,154,cs),
(892,173,ls),
(896,178,o),
(899,184,o),
(899,190,cs)
);
},
{
closed = 1;
nodes = (
(700,684,o),
(625,616,o),
(534,551,c),
(576,652,o),
(632,753,o),
(682,753,cs),
(692,753,o),
(700,748,o),
(700,732,cs)
);
},
{
closed = 1;
nodes = (
(230,41,o),
(185,7,o),
(134,7,cs),
(105,7,o),
(92,20,o),
(92,43,cs),
(92,62,o),
(111,99,o),
(209,99,cs),
(230,99,o),
(251,97,o),
(271,94,c)
);
}
);
};
layerId = m01;
shapes = (
{
closed = 0;
nodes = (
(208,366,l,{
"Letterink-NibData" = {
AngleInDegrees = 28;
MainAxisWidth = 85;
MinorAxisWidth = 85;
ValidForParentMainAxisWidth = 15;
ValidForParentMinorAxisWidth = 15;
};
"Letterink-NibStyleId" = 7;
}),
(502,464,o),
(662,561,o),
(751,643,cs,{
"Letterink-NibData" = {
AngleInDegrees = 28;
MainAxisWidth = 85;
MinorAxisWidth = 85;
ValidForParentMainAxisWidth = 15;
ValidForParentMinorAxisWidth = 15;
};
"Letterink-NibStyleId" = 7;
}),
(845,729,o),
(872,810,o),
(825,847,cs,{
"Letterink-NibData" = {
AngleInDegrees = 28;
MainAxisWidth = 85;
MinorAxisWidth = 85;
ValidForParentMainAxisWidth = 15;
ValidForParentMinorAxisWidth = 15;
};
"Letterink-NibStyleId" = 7;
}),
(758,899,o),
(626,806,o),
(484,430,cs,{
"Letterink-NibData" = {
AngleInDegrees = 28;
MainAxisWidth = 87;
MinorAxisWidth = 87;
ValidForParentMainAxisWidth = 15;
ValidForParentMinorAxisWidth = 15;
};
"Letterink-NibStyleId" = 6;
}),
(447,333,o),
(411,221,o),
(361,132,cs,{
"Letterink-NibData" = {
AngleInDegrees = 28;
MainAxisWidth = 85;
MinorAxisWidth = 85;
ValidForParentMainAxisWidth = 15;
ValidForParentMinorAxisWidth = 15;
};
"Letterink-NibStyleId" = 7;
}),
(308,37,o),
(247,-15,o),
(179,-15,cs,{
"Letterink-NibData" = {
AngleInDegrees = 28;
MainAxisWidth = 85;
MinorAxisWidth = 85;
ValidForParentMainAxisWidth = 15;
ValidForParentMinorAxisWidth = 15;
};
"Letterink-NibStyleId" = 7;
}),
(124,-15,o),
(90,20,o),
(90,64,cs,{
"Letterink-NibData" = {
AngleInDegrees = 28;
MainAxisWidth = 85;
MinorAxisWidth = 85;
ValidForParentMainAxisWidth = 15;
ValidForParentMinorAxisWidth = 15;
};
"Letterink-NibStyleId" = 7;
}),
(90,129,o),
(168,174,o),
(278,174,cs,{
"Letterink-NibData" = {
AngleInDegrees = 28;
MainAxisWidth = 85;
MinorAxisWidth = 85;
ValidForParentMainAxisWidth = 15;
ValidForParentMinorAxisWidth = 15;
};
"Letterink-NibStyleId" = 7;
}),
(345,174,o),
(402,153,o),
(465,117,cs,{
"Letterink-NibData" = {
AngleInDegrees = 28;
MainAxisWidth = 87;
MinorAxisWidth = 87;
ValidForParentMainAxisWidth = 15;
ValidForParentMinorAxisWidth = 15;
};
"Letterink-NibStyleId" = 6;
}),
(529,80,o),
(591,33,o),
(667,33,cs,{
"Letterink-NibData" = {
AngleInDegrees = 28;
MainAxisWidth = 85;
MinorAxisWidth = 85;
ValidForParentMainAxisWidth = 15;
ValidForParentMinorAxisWidth = 15;
};
"Letterink-NibStyleId" = 7;
}),
(776,33,o),
(906,167,o),
(1053,481,c,{
"Letterink-NibData" = {
AngleInDegrees = 28;
MainAxisWidth = 85;
MinorAxisWidth = 85;
ValidForParentMainAxisWidth = 15;
ValidForParentMinorAxisWidth = 15;
};
"Letterink-NibStyleId" = 7;
})
);
}
);
userData = {
"Letterink-ComputationAllowed" = YES;
};
width = 883;
}
);
metricLeft = L.ss03;
note = L;
unicode = 76;
},
{
glyphname = M;
kernLeft = M;
kernRight = M;
lastChange = "2024-08-20 14:41:33 +0000";
layers = (
{
background = {
shapes = (
{
closed = 0;
nodes = (
(263,783,l,{
"Letterink-NibData" = {
AngleInDegrees = "28";
MainAxisWidth = "87";
MinorAxisWidth = "87";
ValidForParentMainAxisWidth = "15";
ValidForParentMinorAxisWidth = "15";
};
"Letterink-NibStyleId" = "6";
}),
(252,702,o),
(190,404,o),
(111,4,c,{
"Letterink-NibData" = {
AngleInDegrees = "28";
MainAxisWidth = "85";
MinorAxisWidth = "85";
ValidForParentMainAxisWidth = "15";
ValidForParentMinorAxisWidth = "15";
};
"Letterink-NibStyleId" = "7";
}),
(325,528,o),
(443,822,o),
(559,775,cs,{
"Letterink-NibData" = {
AngleInDegrees = "28";
MainAxisWidth = "85";
MinorAxisWidth = "85";
ValidForParentMainAxisWidth = "15";
ValidForParentMinorAxisWidth = "15";
};
"Letterink-NibStyleId" = "7";
}),
(683,725,o),
(558,355,o),
(511,9,c,{
"Letterink-NibData" = {
AngleInDegrees = "28";
MainAxisWidth = "85";
MinorAxisWidth = "85";
ValidForParentMainAxisWidth = "15";
ValidForParentMinorAxisWidth = "15";
};
"Letterink-NibStyleId" = "7";
}),
(640,294,o),
(842,798,o),
(1016,743,cs,{
"Letterink-NibData" = {
AngleInDegrees = "28";
MainAxisWidth = "85";
MinorAxisWidth = "85";
ValidForParentMainAxisWidth = "15";
ValidForParentMinorAxisWidth = "15";
};
"Letterink-NibStyleId" = "7";
}),
(1151,700,o),
(976,397,o),
(920,207,cs,{
"Letterink-NibData" = {
AngleInDegrees = "28";
MainAxisWidth = "87";
MinorAxisWidth = "87";
ValidForParentMainAxisWidth = "15";
ValidForParentMinorAxisWidth = "15";
};
"Letterink-NibStyleId" = "6";
}),
(882,78,o),
(908,4,o),
(990,4,cs,{
"Letterink-NibData" = {
AngleInDegrees = "28";
MainAxisWidth = "85";
MinorAxisWidth = "85";
ValidForParentMainAxisWidth = "15";
ValidForParentMinorAxisWidth = "15";
};
"Letterink-NibStyleId" = "7";
}),
(1054,4,o),
(1110,48,o),
(1172,124,cs,{
"Letterink-NibData" = {
AngleInDegrees = "28";
MainAxisWidth = "85";
MinorAxisWidth = "85";
ValidForParentMainAxisWidth = "15";
ValidForParentMinorAxisWidth = "15";
};
"Letterink-NibStyleId" = "7";
}),
(1232,197,o),
(1296,267,o),
(1370,420,c,{
"Letterink-NibData" = {
AngleInDegrees = "28";
MainAxisWidth = "79";
MinorAxisWidth = "79";
ValidForParentMainAxisWidth = "15";
ValidForParentMinorAxisWidth = "15";
};
"Letterink-NibStyleId" = "1";
})
);
}
);
};
layerId = m01;
shapes = (
{
closed = 0;
nodes = (
(91,34,l,{
"Letterink-NibData" = {
AngleInDegrees = 28;
MainAxisWidth = 87;
MinorAxisWidth = 87;
ValidForParentMainAxisWidth = 15;
ValidForParentMinorAxisWidth = 15;
};
"Letterink-NibStyleId" = 6;
}),
(133,251,o),
(201,439,o),
(276,576,cs,{
"Letterink-NibData" = {
AngleInDegrees = 28;
MainAxisWidth = 87;
MinorAxisWidth = 87;
ValidForParentMainAxisWidth = 15;
ValidForParentMinorAxisWidth = 15;
};
"Letterink-NibStyleId" = 6;
}),
(369,747,o),
(473,838,o),
(549,805,cs,{
"Letterink-NibData" = {
AngleInDegrees = 28;
MainAxisWidth = 85;
MinorAxisWidth = 85;
ValidForParentMainAxisWidth = 15;
ValidForParentMinorAxisWidth = 15;
};
"Letterink-NibStyleId" = "7";
}),
(677,750,o),
(558,450,o),
(491,69,c,{
"Letterink-NibData" = {
AngleInDegrees = 28;
MainAxisWidth = 87;
MinorAxisWidth = 87;
ValidForParentMainAxisWidth = 15;
ValidForParentMinorAxisWidth = 15;
};
"Letterink-NibStyleId" = 6;
}),
(588,339,o),
(830,818,o),
(997,756,cs,{
"Letterink-NibData" = {
AngleInDegrees = 28;
MainAxisWidth = 85;
MinorAxisWidth = 85;
ValidForParentMainAxisWidth = 15;
ValidForParentMinorAxisWidth = 15;
};
"Letterink-NibStyleId" = "7";
}),
(1141,703,o),
(981,443,o),
(920,237,cs,{
"Letterink-NibData" = {
AngleInDegrees = 28;
MainAxisWidth = 87;
MinorAxisWidth = 87;
ValidForParentMainAxisWidth = 15;
ValidForParentMinorAxisWidth = 15;
};
"Letterink-NibStyleId" = "6";
}),
(877,95,o),
(905,34,o),
(990,34,cs,{
"Letterink-NibData" = {
AngleInDegrees = 28;
MainAxisWidth = 85;
MinorAxisWidth = 85;
ValidForParentMainAxisWidth = 15;
ValidForParentMinorAxisWidth = 15;
};
"Letterink-NibStyleId" = "7";
}),
(1044,34,o),
(1110,78,o),
(1172,154,cs,{
"Letterink-NibData" = {
AngleInDegrees = 28;
MainAxisWidth = 85;
MinorAxisWidth = 85;
ValidForParentMainAxisWidth = 15;
ValidForParentMinorAxisWidth = 15;
};
"Letterink-NibStyleId" = 7;
}),
(1232,227,o),
(1296,297,o),
(1370,450,c,{
"Letterink-NibData" = {
AngleInDegrees = 28;
MainAxisWidth = 79;
MinorAxisWidth = 79;
ValidForParentMainAxisWidth = 15;
ValidForParentMinorAxisWidth = 15;
};
"Letterink-NibStyleId" = 1;
})
);
}
);
userData = {
"Letterink-ComputationAllowed" = YES;
};
width = 1197;
}
);
metricLeft = M.ss03;
note = M;
unicode = 77;
},
{
glyphname = N;
kernLeft = N;
kernRight = N;
lastChange = "2024-08-20 14:41:36 +0000";
layers = (
{
background = {
shapes = (
{
closed = 0;
nodes = (
(3,232,l,{
"Letterink-NibData" = {
AngleInDegrees = "28";
MainAxisWidth = "85";
MinorAxisWidth = "85";
ValidForParentMainAxisWidth = "15";
ValidForParentMinorAxisWidth = "15";
};
"Letterink-NibStyleId" = "7";
}),
(-64,206,o),
(-101,160,o),
(-101,106,cs,{
"Letterink-NibData" = {
AngleInDegrees = "28";
MainAxisWidth = "85";
MinorAxisWidth = "85";
ValidForParentMainAxisWidth = "15";
ValidForParentMinorAxisWidth = "15";
};
"Letterink-NibStyleId" = "7";
}),
(-101,52,o),
(-65,18,o),
(-9,18,cs,{
"Letterink-NibData" = {
AngleInDegrees = "28";
MainAxisWidth = "85";
MinorAxisWidth = "85";
ValidForParentMainAxisWidth = "15";
ValidForParentMinorAxisWidth = "15";
};
"Letterink-NibStyleId" = "7";
}),
(48,18,o),
(96,53,o),
(148,145,cs,{
"Letterink-NibData" = {
AngleInDegrees = "28";
MainAxisWidth = "85";
MinorAxisWidth = "85";
ValidForParentMainAxisWidth = "15";
ValidForParentMinorAxisWidth = "15";
};
"Letterink-NibStyleId" = "7";
}),
(222,278,o),
(299,517,o),
(360,767,c,{
"Letterink-NibData" = {
AngleInDegrees = "28";
MainAxisWidth = "85";
MinorAxisWidth = "85";
ValidForParentMainAxisWidth = "15";
ValidForParentMinorAxisWidth = "15";
};
"Letterink-NibStyleId" = "7";
}),
(426,502,o),
(488,210,o),
(523,7,c,{
"Letterink-NibData" = {
AngleInDegrees = "28";
MainAxisWidth = "85";
MinorAxisWidth = "85";
ValidForParentMainAxisWidth = "15";
ValidForParentMinorAxisWidth = "15";
};
"Letterink-NibStyleId" = "7";
}),
(599,356,o),
(722,658,o),
(843,790,c,{
"Letterink-NibData" = {
AngleInDegrees = "28";
MainAxisWidth = "85";
MinorAxisWidth = "85";
ValidForParentMainAxisWidth = "15";
ValidForParentMinorAxisWidth = "15";
};
"Letterink-NibStyleId" = "7";
})
);
}
);
};
layerId = m01;
shapes = (
{
closed = 0;
nodes = (
(296,810,l,{
"Letterink-NibData" = {
AngleInDegrees = 28;
MainAxisWidth = 85;
MinorAxisWidth = 85;
ValidForParentMainAxisWidth = 15;
ValidForParentMinorAxisWidth = 15;
};
"Letterink-NibStyleId" = "7";
}),
(263,656,o),
(179,355,o),
(91,29,c,{
"Letterink-NibData" = {
AngleInDegrees = 28;
MainAxisWidth = 87;
MinorAxisWidth = 87;
ValidForParentMainAxisWidth = 15;
ValidForParentMinorAxisWidth = 15;
};
"Letterink-NibStyleId" = "6";
}),
(179,209,o),
(378,532,o),
(463,641,cs,{
"Letterink-NibData" = {
AngleInDegrees = 28;
MainAxisWidth = 85;
MinorAxisWidth = 85;
ValidForParentMainAxisWidth = 15;
ValidForParentMinorAxisWidth = 15;
};
"Letterink-NibStyleId" = "7";
}),
(544,745,o),
(632,795,o),
(695,760,cs,{
"Letterink-NibData" = {
AngleInDegrees = 28;
MainAxisWidth = 87;
MinorAxisWidth = 87;
ValidForParentMainAxisWidth = 15;
ValidForParentMinorAxisWidth = 15;
};
"Letterink-NibStyleId" = "6";
}),
(751,730,o),
(754,663,o),
(700,529,cs,{
"Letterink-NibData" = {
AngleInDegrees = 28;
MainAxisWidth = 87;
MinorAxisWidth = 87;
ValidForParentMainAxisWidth = 15;
ValidForParentMinorAxisWidth = 15;
};
"Letterink-NibStyleId" = "6";
}),
(689,501,o),
(585,262,o),
(563,180,cs,{
"Letterink-NibData" = {
AngleInDegrees = 28;
MainAxisWidth = 87;
MinorAxisWidth = 87;
ValidForParentMainAxisWidth = 15;
ValidForParentMinorAxisWidth = 15;
};
"Letterink-NibStyleId" = "6";
}),
(543,103,o),
(581,36,o),
(648,31,cs,{
"Letterink-NibData" = {
AngleInDegrees = 28;
MainAxisWidth = 85;
MinorAxisWidth = 85;
ValidForParentMainAxisWidth = 15;
ValidForParentMinorAxisWidth = 15;
};
"Letterink-NibStyleId" = "7";
}),
(709,24,o),
(762,65,o),
(835,154,cs,{
"Letterink-NibData" = {
AngleInDegrees = 28;
MainAxisWidth = 85;
MinorAxisWidth = 85;
ValidForParentMainAxisWidth = 15;
ValidForParentMinorAxisWidth = 15;
};
"Letterink-NibStyleId" = 7;
}),
(911,247,o),
(997,378,o),
(1059,471,c,{
"Letterink-NibData" = {
AngleInDegrees = 28;
MainAxisWidth = 79;
MinorAxisWidth = 79;
ValidForParentMainAxisWidth = 15;
ValidForParentMinorAxisWidth = 15;
};
"Letterink-NibStyleId" = 1;
})
);
}
);
userData = {
"Letterink-ComputationAllowed" = YES;
};
width = 886;
}
);
metricLeft = N.ss03;
note = N;
unicode = 78;
},
{
glyphname = O;
kernLeft = O;
kernRight = O;
lastChange = "2024-08-20 14:41:40 +0000";
layers = (
{
anchors = (
{
name = bottom;
pos = (408,-15);
},
{
name = center;
pos = (518,455);
},
{
name = ogonek;
pos = (914,26);
},
{
name = top;
pos = (556,901);
},
{
name = topright;
pos = (635,878);
}
);
background = {
hints = (
{
horizontal = 1;
place = (721,75);
type = Stem;
},
{
horizontal = 1;
place = (577,64);
type = Stem;
},
{
horizontal = 1;
place = (-8,70);
type = Stem;
},
{
place = (564,73);
type = Stem;
},
{
place = (314,73);
type = Stem;
},
{
place = (18,76);
type = Stem;
}
);
shapes = (
{
closed = 1;
nodes = (
(382,-6,o),
(408,-1,o),
(432,7,cs),
(462,17,o),
(489,31,o),
(516,53,cs),
(542,74,o),
(565,100,o),
(589,134,cs),
(613,168,o),
(637,212,o),
(652,247,c),
(701,254,o),
(750,271,o),
(812,300,cs),
(863,324,o),
(910,351,o),
(945,376,cs),
(952,381,o),
(958,390,o),
(958,401,cs),
(958,418,o),
(944,431,o),
(927,431,cs),
(922,431,o),
(916,430,o),
(909,425,cs),
(831,371,o),
(753,334,o),
(680,317,c),
(710,417,o),
(704,504,o),
(662,572,cs),
(638,611,o),
(607,634,o),
(563,641,cs),
(517,648,o),
(475,635,o),
(442,607,cs),
(415,584,o),
(392,550,o),
(382,508,cs),
(372,467,o),
(376,426,o),
(387,393,cs),
(399,357,o),
(420,326,o),
(449,302,cs),
(478,278,o),
(516,260,o),
(571,247,c),
(559,224,o),
(544,200,o),
(526,174,cs),
(490,123,o),
(455,92,o),
(415,76,cs),
(375,60,o),
(330,58,o),
(290,68,cs),
(259,76,o),
(233,91,o),
(211,116,cs),
(189,141,o),
(176,167,o),
(167,201,cs),
(152,257,o),
(152,327,o),
(166,393,cs),
(179,454,o),
(204,512,o),
(240,561,cs),
(284,621,o),
(340,663,o),
(394,687,cs),
(439,707,o),
(489,717,o),
(548,720,cs),
(568,721,o),
(584,736,o),
(584,761,cs),
(584,786,o),
(569,794,o),
(524,794,cs),
(508,794,o),
(493,793,o),
(473,790,cs),
(440,785,o),
(407,777,o),
(375,766,cs),
(335,752,o),
(304,735,o),
(272,709,cs),
(240,683,o),
(206,647,o),
(176,603,cs),
(131,537,o),
(99,459,o),
(86,375,cs),
(74,297,o),
(80,221,o),
(102,170,c),
(137,73,o),
(197,16,o),
(280,-3,cs),
(302,-8,o),
(324,-10,o),
(352,-8,cs)
);
},
{
closed = 1;
nodes = (
(443,454,o),
(449,495,o),
(464,526,cs),
(480,559,o),
(505,577,o),
(541,577,cs),
(572,577,o),
(593,563,o),
(608,533,cs),
(632,484,o),
(635,400,o),
(599,313,c),
(596,313,o),
(592,314,o),
(587,315,cs),
(588,315,o),
(569,320,o),
(559,323,cs),
(532,331,o),
(510,344,o),
(498,354,cs),
(480,369,o),
(464,392,o),
(456,416,cs)
);
}
);
};
layerId = m01;
shapes = (
{
closed = 0;
nodes = (
(1015,447,ls,{
"Letterink-NibData" = {
AngleInDegrees = 28;
MainAxisWidth = 79;
MinorAxisWidth = 79;
ValidForParentMainAxisWidth = 15;
ValidForParentMinorAxisWidth = 15;
};
"Letterink-NibStyleId" = 1;
}),
(937,364,o),
(803,326,o),
(686,335,cs,{
"Letterink-NibData" = {
AngleInDegrees = 28;
MainAxisWidth = 85;
MinorAxisWidth = 85;
ValidForParentMainAxisWidth = 15;
ValidForParentMinorAxisWidth = 15;
};
"Letterink-NibStyleId" = 7;
}),
(542,348,o),
(451,427,o),
(451,536,cs,{
"Letterink-NibData" = {
AngleInDegrees = 28;
MainAxisWidth = 87;
MinorAxisWidth = 87;
ValidForParentMainAxisWidth = 15;
ValidForParentMinorAxisWidth = 15;
};
"Letterink-NibStyleId" = 6;
}),
(451,625,o),
(507,691,o),
(583,691,cs,{
"Letterink-NibData" = {
AngleInDegrees = 28;
MainAxisWidth = 87;
MinorAxisWidth = 87;
ValidForParentMainAxisWidth = 15;
ValidForParentMinorAxisWidth = 15;
};
"Letterink-NibStyleId" = 6;
}),
(673,691,o),
(728,599,o),
(728,461,cs,{
"Letterink-NibData" = {
AngleInDegrees = 28;
MainAxisWidth = 85;
MinorAxisWidth = 85;
ValidForParentMainAxisWidth = 15;
ValidForParentMinorAxisWidth = 15;
};
"Letterink-NibStyleId" = 7;
}),
(728,432,o),
(725,379,o),
(711,322,cs,{
"Letterink-NibData" = {
AngleInDegrees = 28;
MainAxisWidth = 85;
MinorAxisWidth = 85;
ValidForParentMainAxisWidth = 15;
ValidForParentMinorAxisWidth = 15;
};
"Letterink-NibStyleId" = 7;
}),
(669,145,o),
(548,37,o),
(400,37,cs,{
"Letterink-NibData" = {
AngleInDegrees = 28;
MainAxisWidth = 85;
MinorAxisWidth = 85;
ValidForParentMainAxisWidth = 15;
ValidForParentMinorAxisWidth = 15;
};
"Letterink-NibStyleId" = 7;
}),
(240,37,o),
(131,169,o),
(131,360,cs,{
"Letterink-NibData" = {
AngleInDegrees = 28;
MainAxisWidth = 87;
MinorAxisWidth = 87;
ValidForParentMainAxisWidth = 15;
ValidForParentMinorAxisWidth = 15;
};
"Letterink-NibStyleId" = 6;
}),
(131,599,o),
(295,801,o),
(522,830,cs,{
"Letterink-NibData" = {
AngleInDegrees = 28;
MainAxisWidth = 85;
MinorAxisWidth = 85;
ValidForParentMainAxisWidth = 15;
ValidForParentMinorAxisWidth = 15;
};
"Letterink-NibStyleId" = 7;
}),
(583,838,o),
(647,831,o),
(693,817,c,{
"Letterink-NibData" = {
AngleInDegrees = 28;
MainAxisWidth = 85;
MinorAxisWidth = 85;
ValidForParentMainAxisWidth = 15;
ValidForParentMinorAxisWidth = 15;
};
"Letterink-NibStyleId" = 7;
})
);
}
);
userData = {
"Letterink-ComputationAllowed" = YES;
};
width = 846;
}
);
metricLeft = O.ss03;
note = O;
unicode = 79;
},
{
glyphname = Ohorn;
kernLeft = O;
kernRight = O;
lastChange = "2024-08-20 14:41:45 +0000";
layers = (
{
anchors = (
{
name = bottom;
pos = (408,-1);
},
{
name = center;
pos = (518,455);
},
{
name = ogonek;
pos = (914,26);
},
{
name = top;
pos = (506,901);
},
{
name = topright;
pos = (635,878);
}
);
background = {
shapes = (
{
closed = 1;
nodes = (
(544,741,o),
(563,730,o),
(595,730,cs,{
"Letterink-NibData" = {
AngleInDegrees = "90";
};
}),
(691,730,o),
(805,816,o),
(806,899,cs),
(806,931,o),
(791,947,o),
(768,947,cs,{
"Letterink-NibData" = {
AngleInDegrees = "270";
};
}),
(746,947,o),
(730,933,o),
(727,912,cs,{
"Letterink-NibData" = {
AngleInDegrees = "188.01711";
};
}),
(717,841,o),
(668,801,o),
(578,795,cs,{
"Letterink-NibData" = {
AngleInDegrees = "266.18594";
};
}),
(563,794,o),
(544,780,o),
(544,760,cs,{
"Letterink-NibData" = {
AngleInDegrees = "180";
};
})
);
}
);
};
layerId = m01;
shapes = (
{
closed = 0;
nodes = (
(1015,447,l,{
"Letterink-NibData" = {
AngleInDegrees = 28;
MainAxisWidth = 85;
MinorAxisWidth = 85;
ValidForParentMainAxisWidth = 15;
ValidForParentMinorAxisWidth = 15;
};
"Letterink-NibStyleId" = 7;
}),
(951,373,o),
(819,325,o),
(686,335,cs,{
"Letterink-NibData" = {
AngleInDegrees = 28;
MainAxisWidth = 85;
MinorAxisWidth = 85;
ValidForParentMainAxisWidth = 15;
ValidForParentMinorAxisWidth = 15;
};
"Letterink-NibStyleId" = 7;
}),
(539,348,o),
(451,421,o),
(451,526,cs,{
"Letterink-NibData" = {
AngleInDegrees = 28;
MainAxisWidth = 87;
MinorAxisWidth = 87;
ValidForParentMainAxisWidth = 15;
ValidForParentMinorAxisWidth = 15;
};
"Letterink-NibStyleId" = 6;
}),
(451,615,o),
(507,681,o),
(583,681,cs,{
"Letterink-NibData" = {
AngleInDegrees = 28;
MainAxisWidth = 85;
MinorAxisWidth = 85;
ValidForParentMainAxisWidth = 15;
ValidForParentMinorAxisWidth = 15;
};
"Letterink-NibStyleId" = 7;
}),
(673,681,o),
(728,593,o),
(728,461,cs,{
"Letterink-NibData" = {
AngleInDegrees = 28;
MainAxisWidth = 85;
MinorAxisWidth = 85;
ValidForParentMainAxisWidth = 15;
ValidForParentMinorAxisWidth = 15;
};
"Letterink-NibStyleId" = 7;
}),
(728,432,o),
(725,379,o),
(711,322,cs,{
"Letterink-NibData" = {
AngleInDegrees = 28;
MainAxisWidth = 85;
MinorAxisWidth = 85;
ValidForParentMainAxisWidth = 15;
ValidForParentMinorAxisWidth = 15;
};
"Letterink-NibStyleId" = 7;
}),
(669,145,o),
(548,37,o),
(400,37,cs,{
"Letterink-NibData" = {
AngleInDegrees = 28;
MainAxisWidth = 85;
MinorAxisWidth = 85;
ValidForParentMainAxisWidth = 15;
ValidForParentMinorAxisWidth = 15;
};
"Letterink-NibStyleId" = 7;
}),
(242,37,o),
(131,164,o),
(131,360,cs,{
"Letterink-NibData" = {
AngleInDegrees = 28;
MainAxisWidth = 87;
MinorAxisWidth = 87;
ValidForParentMainAxisWidth = 15;
ValidForParentMinorAxisWidth = 15;
};
"Letterink-NibStyleId" = 6;
}),
(131,599,o),
(295,779,o),
(522,807,cs,{
"Letterink-NibData" = {
AngleInDegrees = 28;
MainAxisWidth = 85;
MinorAxisWidth = 85;
ValidForParentMainAxisWidth = 15;
ValidForParentMinorAxisWidth = 15;
};
"Letterink-NibStyleId" = 7;
}),
(739,835,o),
(836,898,o),
(844,1018,c,{
"Letterink-NibData" = {
AngleInDegrees = 28;
MainAxisWidth = 87;
MinorAxisWidth = 87;
ValidForParentMainAxisWidth = 15;
ValidForParentMinorAxisWidth = 15;
};
"Letterink-NibStyleId" = 6;
})
);
}
);
userData = {
"Letterink-ComputationAllowed" = YES;
};
width = 849;
}
);
metricLeft = O;
metricRight = O;
unicode = 416;
},
{
glyphname = P;
kernLeft = P;
kernRight = P;
lastChange = "2024-09-03 10:29:15 +0000";
layers = (
{
background = {
shapes = (
{
closed = 0;
nodes = (
(498,240,l,{
"Letterink-NibData" = {
AngleInDegrees = "28";
MainAxisWidth = "64";
MinorAxisWidth = "64";
ValidForParentMainAxisWidth = "15";
ValidForParentMinorAxisWidth = "15";
};
"Letterink-NibStyleId" = "6";
}),
(680,222,o),
(833,339,o),
(833,492,cs,{
"Letterink-NibData" = {
AngleInDegrees = "28";
MainAxisWidth = "57";
MinorAxisWidth = "57";
ValidForParentMainAxisWidth = "15";
ValidForParentMinorAxisWidth = "15";
};
"Letterink-NibStyleId" = "8";
}),
(833,652,o),
(667,753,o),
(445,753,cs,{
"Letterink-NibData" = {
AngleInDegrees = "28";
MainAxisWidth = "64";
MinorAxisWidth = "64";
ValidForParentMainAxisWidth = "15";
ValidForParentMinorAxisWidth = "15";
};
"Letterink-NibStyleId" = "6";
}),
(216,753,o),
(51,645,o),
(51,507,cs,{
"Letterink-NibData" = {
AngleInDegrees = "28";
MainAxisWidth = "64";
MinorAxisWidth = "64";
ValidForParentMainAxisWidth = "15";
ValidForParentMinorAxisWidth = "15";
};
"Letterink-NibStyleId" = "6";
}),
(51,406,o),
(139,364,o),
(260,409,c,{
"Letterink-NibData" = {
AngleInDegrees = "28";
MainAxisWidth = "59";
MinorAxisWidth = "59";
ValidForParentMainAxisWidth = "15";
ValidForParentMinorAxisWidth = "15";
};
"Letterink-NibStyleId" = "7";
})
);
},
{
closed = 0;
nodes = (
(525,612,l,{
"Letterink-NibData" = {
AngleInDegrees = "28";
MainAxisWidth = "64";
MinorAxisWidth = "64";
ValidForParentMainAxisWidth = "15";
ValidForParentMinorAxisWidth = "15";
};
"Letterink-NibStyleId" = "6";
}),
(450,433,o),
(380,205,o),
(348,133,cs,{
"Letterink-NibData" = {
AngleInDegrees = "28";
MainAxisWidth = "64";
MinorAxisWidth = "64";
ValidForParentMainAxisWidth = "15";
ValidForParentMinorAxisWidth = "15";
};
"Letterink-NibStyleId" = "6";
}),
(309,45,o),
(245,10,o),
(173,10,cs,{
"Letterink-NibData" = {
AngleInDegrees = "28";
MainAxisWidth = "59";
MinorAxisWidth = "59";
ValidForParentMainAxisWidth = "15";
ValidForParentMinorAxisWidth = "15";
};
"Letterink-NibStyleId" = "7";
}),
(112,10,o),
(65,35,o),
(33,87,c,{
"Letterink-NibData" = {
AngleInDegrees = "28";
MainAxisWidth = "59";
MinorAxisWidth = "59";
ValidForParentMainAxisWidth = "15";
ValidForParentMinorAxisWidth = "15";
};
"Letterink-NibStyleId" = "7";
})
);
}
);
};
layerId = m01;
shapes = (
{
closed = 0;
nodes = (
(420,843,l,{
"Letterink-NibData" = {
AngleInDegrees = 28;
MainAxisWidth = 87;
MinorAxisWidth = 87;
ValidForParentMainAxisWidth = 15;
ValidForParentMinorAxisWidth = 15;
};
"Letterink-NibStyleId" = "6";
}),
(395,708,o),
(317,403,o),
(269,239,cs,{
"Letterink-NibData" = {
AngleInDegrees = 28;
MainAxisWidth = 87;
MinorAxisWidth = 87;
ValidForParentMainAxisWidth = 15;
ValidForParentMinorAxisWidth = 15;
};
"Letterink-NibStyleId" = "6";
}),
(209,26,o),
(155,-17,o),
(88,-17,c,{
"Letterink-NibData" = {
AngleInDegrees = 28;
MainAxisWidth = 85;
MinorAxisWidth = 85;
ValidForParentMainAxisWidth = 15;
ValidForParentMinorAxisWidth = 15;
};
"Letterink-NibStyleId" = "7";
})
);
},
{
closed = 0;
nodes = (
(219,583,l,{
"Letterink-NibData" = {
AngleInDegrees = 28;
MainAxisWidth = 85;
MinorAxisWidth = 85;
ValidForParentMainAxisWidth = 15;
ValidForParentMinorAxisWidth = 15;
};
"Letterink-NibStyleId" = 7;
}),
(315,713,o),
(397,762,o),
(536,762,cs,{
"Letterink-NibData" = {
AngleInDegrees = 28;
MainAxisWidth = 85;
MinorAxisWidth = 85;
ValidForParentMainAxisWidth = 15;
ValidForParentMinorAxisWidth = 15;
};
"Letterink-NibStyleId" = 7;
}),
(680,762,o),
(778,672,o),
(778,541,cs,{
"Letterink-NibData" = {
AngleInDegrees = 28;
MainAxisWidth = 87;
MinorAxisWidth = 87;
ValidForParentMainAxisWidth = 15;
ValidForParentMinorAxisWidth = 15;
};
"Letterink-NibStyleId" = "6";
}),
(778,393,o),
(677,291,o),
(524,291,cs,{
"Letterink-NibData" = {
AngleInDegrees = 28;
MainAxisWidth = 85;
MinorAxisWidth = 85;
ValidForParentMainAxisWidth = 15;
ValidForParentMinorAxisWidth = 15;
};
"Letterink-NibStyleId" = 7;
}),
(499,291,o),
(473,294,o),
(442,299,c,{
"Letterink-NibData" = {
AngleInDegrees = 28;
MainAxisWidth = 85;
MinorAxisWidth = 85;
ValidForParentMainAxisWidth = 15;
ValidForParentMinorAxisWidth = 15;
};
"Letterink-NibStyleId" = 7;
})
);
}
);
userData = {
"Letterink-ComputationAllowed" = YES;
};
width = 809;
}
);
metricLeft = P.ss03;
metricRight = "=P.ss03-30";
note = P;
unicode = 80;
},
{
glyphname = Q;
kernLeft = Q;
kernRight = Q;
lastChange = "2024-08-20 14:42:00 +0000";
layers = (
{
anchors = (
{
name = bottom;
pos = (260,10);
},
{
name = center;
pos = (385,455);
},
{
name = ogonek;
pos = (-162,26);
},
{
name = top;
pos = (508,901);
},
{
name = topleft;
pos = (417,878);
}
);
background = {
anchors = (
{
name = bottom;
pos = (284,-22);
},
{
name = center;
pos = (420,462);
},
{
name = ogonek;
pos = (-174,-4);
},
{
name = top;
pos = (554,947);
},
{
name = topleft;
pos = (455,922);
}
);
shapes = (
{
closed = 0;
nodes = (
(369,855,l,{
"Letterink-NibData" = {
AngleInDegrees = "28";
MainAxisWidth = "65";
MinorAxisWidth = "65";
ValidForParentMainAxisWidth = "15";
ValidForParentMinorAxisWidth = "15";
};
"Letterink-NibStyleId" = "7";
}),
(423,871,o),
(493,878,o),
(557,870,cs,{
"Letterink-NibData" = {
AngleInDegrees = "28";
MainAxisWidth = "65";
MinorAxisWidth = "65";
ValidForParentMainAxisWidth = "15";
ValidForParentMinorAxisWidth = "15";
};
"Letterink-NibStyleId" = "7";
}),
(792,841,o),
(894,622,o),
(803,359,cs,{
"Letterink-NibData" = {
AngleInDegrees = "28";
MainAxisWidth = "69";
MinorAxisWidth = "69";
ValidForParentMainAxisWidth = "15";
ValidForParentMinorAxisWidth = "15";
};
"Letterink-NibStyleId" = "6";
}),
(730,148,o),
(569,8,o),
(399,8,cs,{
"Letterink-NibData" = {
AngleInDegrees = "28";
MainAxisWidth = "65";
MinorAxisWidth = "65";
ValidForParentMainAxisWidth = "15";
ValidForParentMinorAxisWidth = "15";
};
"Letterink-NibStyleId" = "7";
}),
(239,8,o),
(133,133,o),
(145,335,cs,{
"Letterink-NibData" = {
AngleInDegrees = "28";
MainAxisWidth = "65";
MinorAxisWidth = "65";
ValidForParentMainAxisWidth = "15";
ValidForParentMinorAxisWidth = "15";
};
"Letterink-NibStyleId" = "7";
}),
(157,542,o),
(288,744,o),
(487,744,c,{
"Letterink-NibData" = {
AngleInDegrees = "28";
MainAxisWidth = "65";
MinorAxisWidth = "65";
ValidForParentMainAxisWidth = "15";
ValidForParentMinorAxisWidth = "15";
};
"Letterink-NibStyleId" = "7";
})
);
},
{
closed = 0;
nodes = (
(254,55,l,{
"Letterink-NibData" = {
AngleInDegrees = "28";
MainAxisWidth = "57";
MinorAxisWidth = "57";
ValidForParentMainAxisWidth = "15";
ValidForParentMinorAxisWidth = "15";
};
"Letterink-NibStyleId" = "8";
}),
(225,166,o),
(269,243,o),
(355,243,cs,{
"Letterink-NibData" = {
AngleInDegrees = "28";
MainAxisWidth = "65";
MinorAxisWidth = "65";
ValidForParentMainAxisWidth = "15";
ValidForParentMinorAxisWidth = "15";
};
"Letterink-NibStyleId" = "7";
}),
(463,243,o),
(528,126,o),
(552,86,cs,{
"Letterink-NibData" = {
AngleInDegrees = "28";
MainAxisWidth = "69";
MinorAxisWidth = "69";
ValidForParentMainAxisWidth = "15";
ValidForParentMinorAxisWidth = "15";
};
"Letterink-NibStyleId" = "6";
}),
(610,-11,o),
(677,-69,o),
(752,-69,cs,{
"Letterink-NibData" = {
AngleInDegrees = "28";
MainAxisWidth = "65";
MinorAxisWidth = "65";
ValidForParentMainAxisWidth = "15";
ValidForParentMinorAxisWidth = "15";
};
"Letterink-NibStyleId" = "7";
}),
(807,-69,o),
(867,-38,o),
(934,35,cs,{
"Letterink-NibData" = {
AngleInDegrees = "28";
MainAxisWidth = "65";
MinorAxisWidth = "65";
ValidForParentMainAxisWidth = "15";
ValidForParentMinorAxisWidth = "15";
};
"Letterink-NibStyleId" = "7";
}),
(1012,120,o),
(1098,262,o),
(1203,486,c,{
"Letterink-NibData" = {
AngleInDegrees = "28";
MainAxisWidth = "65";
MinorAxisWidth = "65";
ValidForParentMainAxisWidth = "15";
ValidForParentMinorAxisWidth = "15";
};
"Letterink-NibStyleId" = "7";
})
);
}
);
};
layerId = m01;
shapes = (
{
closed = 0;
nodes = (
(338,817,l,{
"Letterink-NibData" = {
AngleInDegrees = 28;
MainAxisWidth = 85;
MinorAxisWidth = 85;
ValidForParentMainAxisWidth = 15;
ValidForParentMinorAxisWidth = 15;
};
"Letterink-NibStyleId" = 7;
}),
(388,831,o),
(452,838,o),
(511,830,cs,{
"Letterink-NibData" = {
AngleInDegrees = 28;
MainAxisWidth = 85;
MinorAxisWidth = 85;
ValidForParentMainAxisWidth = 15;
ValidForParentMinorAxisWidth = 15;
};
"Letterink-NibStyleId" = 7;
}),
(727,804,o),
(821,602,o),
(737,360,cs,{
"Letterink-NibData" = {
AngleInDegrees = 28;
MainAxisWidth = 85;
MinorAxisWidth = 85;
ValidForParentMainAxisWidth = 15;
ValidForParentMinorAxisWidth = 15;
};
"Letterink-NibStyleId" = 7;
}),
(670,166,o),
(522,37,o),
(366,37,cs,{
"Letterink-NibData" = {
AngleInDegrees = 28;
MainAxisWidth = 85;
MinorAxisWidth = 85;
ValidForParentMainAxisWidth = 15;
ValidForParentMinorAxisWidth = 15;
};
"Letterink-NibStyleId" = 7;
}),
(218,37,o),
(121,152,o),
(132,339,cs,{
"Letterink-NibData" = {
AngleInDegrees = 28;
MainAxisWidth = 87;
MinorAxisWidth = 87;
ValidForParentMainAxisWidth = 15;
ValidForParentMinorAxisWidth = 15;
};
"Letterink-NibStyleId" = 6;
}),
(143,520,o),
(264,694,o),
(447,694,c,{
"Letterink-NibData" = {
AngleInDegrees = 28;
MainAxisWidth = 87;
MinorAxisWidth = 87;
ValidForParentMainAxisWidth = 15;
ValidForParentMinorAxisWidth = 15;
};
"Letterink-NibStyleId" = 6;
})
);
},
{
closed = 0;
nodes = (
(232,81,l,{
"Letterink-NibData" = {
AngleInDegrees = 28;
MainAxisWidth = 85;
MinorAxisWidth = 85;
ValidForParentMainAxisWidth = 15;
ValidForParentMinorAxisWidth = 15;
};
"Letterink-NibStyleId" = 7;
}),
(206,183,o),
(246,254,o),
(325,254,cs,{
"Letterink-NibData" = {
AngleInDegrees = 28;
MainAxisWidth = 85;
MinorAxisWidth = 85;
ValidForParentMainAxisWidth = 15;
ValidForParentMinorAxisWidth = 15;
};
"Letterink-NibStyleId" = 7;
}),
(425,254,o),
(484,146,o),
(506,109,cs,{
"Letterink-NibData" = {
AngleInDegrees = 28;
MainAxisWidth = 87;
MinorAxisWidth = 87;
ValidForParentMainAxisWidth = 15;
ValidForParentMinorAxisWidth = 15;
};
"Letterink-NibStyleId" = 6;
}),
(560,20,o),
(621,-33,o),
(690,-33,cs,{
"Letterink-NibData" = {
AngleInDegrees = 28;
MainAxisWidth = 85;
MinorAxisWidth = 85;
ValidForParentMainAxisWidth = 15;
ValidForParentMinorAxisWidth = 15;
};
"Letterink-NibStyleId" = 7;
}),
(741,-33,o),
(796,-5,o),
(858,62,cs,{
"Letterink-NibData" = {
AngleInDegrees = 28;
MainAxisWidth = 85;
MinorAxisWidth = 85;
ValidForParentMainAxisWidth = 15;
ValidForParentMinorAxisWidth = 15;
};
"Letterink-NibStyleId" = 7;
}),
(930,140,o),
(1009,271,o),
(1105,477,c,{
"Letterink-NibData" = {
AngleInDegrees = 28;
MainAxisWidth = 85;
MinorAxisWidth = 85;
ValidForParentMainAxisWidth = 15;
ValidForParentMinorAxisWidth = 15;
};
"Letterink-NibStyleId" = 7;
})
);
}
);
userData = {
"Letterink-ComputationAllowed" = YES;
};
width = 940;
}
);
metricLeft = O.ss03;
note = Q;
unicode = 81;
},
{
glyphname = R;
kernLeft = R;
kernRight = R;
lastChange = "2024-08-20 15:05:45 +0000";
layers = (
{
background = {
shapes = (
{
closed = 1;
nodes = (
(716,-15,o),
(758,-4,o),
(797,18,cs),
(829,36,o),
(862,65,o),
(897,105,cs),
(904,113,o),
(906,118,o),
(906,125,cs),
(906,146,o),
(891,161,o),
(872,161,cs),
(863,161,o),
(854,158,o),
(846,149,cs),
(787,83,o),
(731,55,o),
(667,55,cs),
(612,55,o),
(558,75,o),
(515,115,cs),
(497,132,o),
(476,157,o),
(424,228,c),
(466,230,o),
(507,236,o),
(547,246,cs),
(586,256,o),
(627,271,o),
(664,291,cs),
(705,313,o),
(735,338,o),
(760,369,cs),
(788,404,o),
(807,443,o),
(816,482,cs),
(832,551,o),
(814,611,o),
(775,658,cs),
(732,710,o),
(661,749,o),
(576,771,cs),
(522,785,o),
(463,792,o),
(409,793,cs),
(356,794,o),
(298,790,o),
(240,778,cs),
(177,765,o),
(126,745,o),
(84,720,cs),
(38,693,o),
(-1,659,o),
(-25,624,cs),
(-45,595,o),
(-55,565,o),
(-55,533,cs),
(-55,519,o),
(-53,504,o),
(-47,486,cs),
(-42,470,o),
(-35,458,o),
(-27,448,cs),
(-7,424,o),
(29,407,o),
(60,404,cs),
(69,403,o),
(90,402,o),
(97,402,cs),
(109,402,o),
(119,402,o),
(127,403,cs),
(150,406,l),
(167,409,l),
(172,410,ls),
(177,411,o),
(179,413,o),
(182,417,cs),
(187,424,o),
(189,431,o),
(189,439,cs),
(189,451,o),
(184,462,o),
(176,471,cs),
(172,476,o),
(168,477,o),
(162,475,cs),
(159,474,l),
(145,471,l),
(127,468,ls),
(121,467,o),
(112,466,o),
(102,466,cs),
(75,466,o),
(48,474,o),
(33,489,cs),
(22,500,o),
(20,513,o),
(20,523,cs),
(20,535,o),
(23,551,o),
(29,565,cs),
(36,582,o),
(47,597,o),
(60,611,cs),
(75,627,o),
(93,641,o),
(114,654,cs),
(145,673,o),
(181,688,o),
(223,698,cs),
(268,709,o),
(327,717,o),
(377,718,cs),
(431,719,o),
(501,712,o),
(556,698,cs),
(638,677,o),
(690,640,o),
(718,605,cs),
(745,571,o),
(754,533,o),
(747,494,cs),
(741,460,o),
(722,427,o),
(695,399,cs),
(668,371,o),
(633,349,o),
(596,333,cs),
(561,318,o),
(520,305,o),
(479,297,cs),
(439,289,o),
(401,285,o),
(366,285,c),
(344,296,o),
(322,306,o),
(299,314,c),
(364,601,ls),
(370,625,o),
(351,648,o),
(327,648,cs),
(308,648,o),
(293,635,o),
(289,618,cs),
(223,329,l),
(194,329,ls),
(177,329,o),
(160,323,o),
(149,312,cs),
(139,302,o),
(137,290,o),
(138,279,cs),
(140,265,o),
(146,258,o),
(156,251,cs),
(167,243,o),
(183,236,o),
(201,231,c),
(159,47,ls),
(154,23,o),
(172,0,o),
(196,0,cs),
(214,0,o),
(230,13,o),
(234,30,cs),
(277,217,l),
(299,215,o),
(321,215,o),
(342,216,c),
(352,204,o),
(367,185,o),
(386,159,cs),
(403,136,o),
(416,117,o),
(429,102,cs),
(440,89,o),
(455,73,o),
(472,57,cs),
(490,40,o),
(507,27,o),
(525,18,cs),
(541,10,o),
(562,2,o),
(587,-5,cs),
(613,-12,o),
(639,-15,o),
(665,-15,cs)
);
}
);
};
layerId = m01;
shapes = (
{
closed = 0;
nodes = (
(430,883,l,{
"Letterink-NibData" = {
AngleInDegrees = 28;
MainAxisWidth = 87;
MinorAxisWidth = 87;
ValidForParentMainAxisWidth = 15;
ValidForParentMinorAxisWidth = 15;
};
"Letterink-NibStyleId" = 6;
}),
(393,682,o),
(257,204,o),
(252,188,cs,{
"Letterink-NibData" = {
AngleInDegrees = 28;
MainAxisWidth = 87;
MinorAxisWidth = 87;
ValidForParentMainAxisWidth = 15;
ValidForParentMinorAxisWidth = 15;
};
"Letterink-NibStyleId" = 6;
}),
(219,82,o),
(149,14,o),
(70,14,c,{
"Letterink-NibData" = {
AngleInDegrees = 28;
MainAxisWidth = 87;
MinorAxisWidth = 87;
ValidForParentMainAxisWidth = 15;
ValidForParentMinorAxisWidth = 15;
};
"Letterink-NibStyleId" = 6;
})
);
},
{
closed = 0;
nodes = (
(229,671,l,{
"Letterink-NibData" = {
AngleInDegrees = 28;
MainAxisWidth = 85;
MinorAxisWidth = 85;
ValidForParentMainAxisWidth = 15;
ValidForParentMinorAxisWidth = 15;
};
"Letterink-NibStyleId" = 7;
}),
(306,768,o),
(412,836,o),
(556,836,cs,{
"Letterink-NibData" = {
AngleInDegrees = 28;
MainAxisWidth = 85;
MinorAxisWidth = 85;
ValidForParentMainAxisWidth = 15;
ValidForParentMinorAxisWidth = 15;
};
"Letterink-NibStyleId" = 7;
}),
(707,836,o),
(802,762,o),
(802,642,cs,{
"Letterink-NibData" = {
AngleInDegrees = 28;
MainAxisWidth = 87;
MinorAxisWidth = 87;
ValidForParentMainAxisWidth = 15;
ValidForParentMinorAxisWidth = 15;
};
"Letterink-NibStyleId" = 6;
}),
(802,512,o),
(688,401,o),
(548,401,cs,{
"Letterink-NibData" = {
AngleInDegrees = 28;
MainAxisWidth = 85;
MinorAxisWidth = 85;
ValidForParentMainAxisWidth = 15;
ValidForParentMinorAxisWidth = 15;
};
"Letterink-NibStyleId" = 7;
}),
(479,401,l,{
"Letterink-NibData" = {
AngleInDegrees = 28;
MainAxisWidth = 85;
MinorAxisWidth = 85;
ValidForParentMainAxisWidth = 15;
ValidForParentMinorAxisWidth = 15;
};
"Letterink-NibStyleId" = 7;
}),
(510,115,o),
(566,5,o),
(668,5,cs,{
"Letterink-NibData" = {
AngleInDegrees = 28;
MainAxisWidth = 85;
MinorAxisWidth = 85;
ValidForParentMainAxisWidth = 15;
ValidForParentMinorAxisWidth = 15;
};
"Letterink-NibStyleId" = 7;
}),
(728,5,o),
(783,39,o),
(840,108,cs,{
"Letterink-NibData" = {
AngleInDegrees = 28;
MainAxisWidth = 85;
MinorAxisWidth = 85;
ValidForParentMainAxisWidth = 15;
ValidForParentMinorAxisWidth = 15;
};
"Letterink-NibStyleId" = 7;
}),
(903,185,o),
(969,304,o),
(1044,475,c,{
"Letterink-NibData" = {
AngleInDegrees = 28;
MainAxisWidth = 85;
MinorAxisWidth = 85;
ValidForParentMainAxisWidth = 15;
ValidForParentMinorAxisWidth = 15;
};
"Letterink-NibStyleId" = 7;
})
);
},
{
closed = 0;
nodes = (
(479,410,ls,{
"Letterink-NibData" = {
AngleInDegrees = 28;
MainAxisWidth = 85;
MinorAxisWidth = 85;
ValidForParentMainAxisWidth = 15;
ValidForParentMinorAxisWidth = 15;
};
"Letterink-NibStyleId" = 7;
}),
(444,440,o),
(407,449,o),
(407,429,cs,{
"Letterink-NibData" = {
AngleInDegrees = 28;
MainAxisWidth = 85;
MinorAxisWidth = 85;
ValidForParentMainAxisWidth = 15;
ValidForParentMinorAxisWidth = 15;
};
"Letterink-NibStyleId" = 7;
}),
(407,406,o),
(457,398,o),
(563,402,cs,{
"Letterink-NibData" = {
AngleInDegrees = 28;
MainAxisWidth = 85;
MinorAxisWidth = 85;
ValidForParentMainAxisWidth = 15;
ValidForParentMinorAxisWidth = 15;
};
"Letterink-NibStyleId" = 7;
})
);
}
);
userData = {
"Letterink-ComputationAllowed" = YES;
};
width = 881;
}
);
metricLeft = R.ss03;
note = R;
unicode = 82;
},
{
glyphname = S;
kernLeft = S;
kernRight = S;
lastChange = "2024-09-03 10:57:38 +0000";
layers = (
{
background = {
shapes = (
{
closed = 1;
nodes = (
(798,241,o),
(787,252,o),
(773,252,cs),
(767,252,o),
(760,250,o),
(755,245,cs),
(735,224,ls),
(667,157,o),
(590,122,o),
(505,103,c),
(512,125,o),
(514,148,o),
(514,172,cs),
(514,386,o),
(216,403,o),
(216,540,cs),
(216,637,o),
(337,740,o),
(479,740,cs),
(575,740,o),
(622,685,o),
(622,614,cs),
(622,578,o),
(610,538,o),
(586,499,cs),
(583,494,o),
(582,491,o),
(582,486,cs),
(582,472,o),
(595,460,o),
(608,460,cs),
(616,460,o),
(623,463,o),
(629,472,cs),
(656,516,o),
(671,566,o),
(671,614,cs),
(671,708,o),
(613,791,o),
(479,791,cs),
(321,791,o),
(165,676,o),
(165,540,cs),
(165,363,o),
(464,354,o),
(464,172,cs),
(464,143,o),
(459,118,o),
(449,93,c),
(398,85,o),
(344,83,o),
(290,81,cs),
(123,79,o),
(41,42,o),
(41,-29,cs),
(41,-98,o),
(108,-132,o),
(168,-132,cs),
(296,-132,o),
(425,-63,o),
(483,46,c),
(588,65,o),
(685,104,o),
(770,189,cs),
(790,209,ls),
(795,214,o),
(798,221,o),
(798,227,cs)
);
},
{
closed = 1;
nodes = (
(361,-38,o),
(262,-82,o),
(168,-82,cs),
(119,-82,o),
(91,-57,o),
(91,-29,cs),
(91,-11,o),
(110,27,o),
(290,31,cs),
(334,32,o),
(376,34,o),
(418,37,c)
);
}
);
};
layerId = m01;
shapes = (
{
closed = 0;
nodes = (
(631,598,l,{
"Letterink-NibData" = {
AngleInDegrees = 28;
MainAxisWidth = 85;
MinorAxisWidth = 85;
ValidForParentMainAxisWidth = 15;
ValidForParentMinorAxisWidth = 15;
};
"Letterink-NibStyleId" = 7;
}),
(718,744,o),
(656,841,o),
(460,841,cs,{
"Letterink-NibData" = {
AngleInDegrees = 28;
MainAxisWidth = 85;
MinorAxisWidth = 85;
ValidForParentMainAxisWidth = 15;
ValidForParentMinorAxisWidth = 15;
};
"Letterink-NibStyleId" = 7;
}),
(308,841,o),
(209,747,o),
(209,606,cs,{
"Letterink-NibData" = {
AngleInDegrees = 28;
MainAxisWidth = 87;
MinorAxisWidth = 87;
ValidForParentMainAxisWidth = 15;
ValidForParentMinorAxisWidth = 15;
};
"Letterink-NibStyleId" = 6;
}),
(209,509,o),
(269,456,o),
(377,387,cs,{
"Letterink-NibData" = {
AngleInDegrees = 28;
MainAxisWidth = 87;
MinorAxisWidth = 87;
ValidForParentMainAxisWidth = 15;
ValidForParentMinorAxisWidth = 15;
};
"Letterink-NibStyleId" = 6;
}),
(461,334,o),
(558,282,o),
(558,167,cs,{
"Letterink-NibData" = {
AngleInDegrees = 28;
MainAxisWidth = 87;
MinorAxisWidth = 87;
ValidForParentMainAxisWidth = 15;
ValidForParentMinorAxisWidth = 15;
};
"Letterink-NibStyleId" = 6;
}),
(558,27,o),
(417,-134,o),
(233,-134,cs,{
"Letterink-NibData" = {
AngleInDegrees = 28;
MainAxisWidth = 85;
MinorAxisWidth = 85;
ValidForParentMainAxisWidth = 15;
ValidForParentMinorAxisWidth = 15;
};
"Letterink-NibStyleId" = 7;
}),
(142,-134,o),
(90,-95,o),
(90,-34,cs,{
"Letterink-NibData" = {
AngleInDegrees = 28;
MainAxisWidth = 85;
MinorAxisWidth = 85;
ValidForParentMainAxisWidth = 15;
ValidForParentMinorAxisWidth = 15;
};
"Letterink-NibStyleId" = 7;
}),
(90,59,o),
(210,112,o),
(422,125,cs,{
"Letterink-NibData" = {
AngleInDegrees = 28;
MainAxisWidth = 85;
MinorAxisWidth = 85;
ValidForParentMainAxisWidth = 15;
ValidForParentMinorAxisWidth = 15;
};
"Letterink-NibStyleId" = 7;
}),
(646,141,o),
(791,247,o),
(904,479,c,{
"Letterink-NibData" = {
AngleInDegrees = 28;
MainAxisWidth = 85;
MinorAxisWidth = 85;
ValidForParentMainAxisWidth = 15;
ValidForParentMinorAxisWidth = 15;
};
"Letterink-NibStyleId" = 7;
})
);
}
);
userData = {
"Letterink-ComputationAllowed" = YES;
};
width = 734;
}
);
metricLeft = S.ss03;
note = S;
unicode = 83;
},
{
glyphname = T;
kernLeft = T;
kernRight = T;
lastChange = "2025-03-09 08:15:35 +0000";
layers = (
{
anchors = (
{
name = bottom;
pos = (363,0);
},
{
name = center;
pos = (363,375);
},
{
name = top;
pos = (670,950);
}
);
background = {
shapes = (
{
closed = 0;
nodes = (
(1026,851,l,{
"Letterink-NibData" = {
AngleInDegrees = "28";
MainAxisWidth = "85";
MinorAxisWidth = "85";
ValidForParentMainAxisWidth = "15";
ValidForParentMinorAxisWidth = "15";
};
"Letterink-NibStyleId" = "7";
}),
(776,825,o),
(711,859,o),
(453,859,cs,{
"Letterink-NibData" = {
AngleInDegrees = "28";
MainAxisWidth = "85";
MinorAxisWidth = "85";
ValidForParentMainAxisWidth = "15";
ValidForParentMinorAxisWidth = "15";
};
"Letterink-NibStyleId" = "7";
}),
(265,859,o),
(92,753,o),
(92,623,cs,{
"Letterink-NibData" = {
AngleInDegrees = "28";
MainAxisWidth = "85";
MinorAxisWidth = "85";
ValidForParentMainAxisWidth = "15";
ValidForParentMinorAxisWidth = "15";
};
"Letterink-NibStyleId" = "7";
}),
(92,536,o),
(171,501,o),
(280,541,c,{
"Letterink-NibData" = {
AngleInDegrees = "28";
MainAxisWidth = "85";
MinorAxisWidth = "85";
ValidForParentMainAxisWidth = "15";
ValidForParentMinorAxisWidth = "15";
};
"Letterink-NibStyleId" = "7";
})
);
},
{
closed = 0;
nodes = (
(689,822,l,{
"Letterink-NibData" = {
AngleInDegrees = "28";
MainAxisWidth = "87";
MinorAxisWidth = "87";
ValidForParentMainAxisWidth = "15";
ValidForParentMinorAxisWidth = "15";
};
"Letterink-NibStyleId" = "6";
}),
(571,631,o),
(522,290,o),
(461,154,cs,{
"Letterink-NibData" = {
AngleInDegrees = "28";
MainAxisWidth = "87";
MinorAxisWidth = "87";
ValidForParentMainAxisWidth = "15";
ValidForParentMinorAxisWidth = "15";
};
"Letterink-NibStyleId" = "6";
}),
(420,63,o),
(348,20,o),
(268,20,cs,{
"Letterink-NibData" = {
AngleInDegrees = "28";
MainAxisWidth = "85";
MinorAxisWidth = "85";
ValidForParentMainAxisWidth = "15";
ValidForParentMinorAxisWidth = "15";
};
"Letterink-NibStyleId" = "7";
}),
(203,20,o),
(151,49,o),
(117,105,c,{
"Letterink-NibData" = {
AngleInDegrees = "28";
MainAxisWidth = "85";
MinorAxisWidth = "85";
ValidForParentMainAxisWidth = "15";
ValidForParentMinorAxisWidth = "15";
};
"Letterink-NibStyleId" = "7";
})
);
}
);
};
layerId = m01;
shapes = (
{
closed = 0;
nodes = (
(1026,951,l,{
"Letterink-NibData" = {
AngleInDegrees = 28;
MainAxisWidth = 85;
MinorAxisWidth = 85;
ValidForParentMainAxisWidth = 15;
ValidForParentMinorAxisWidth = 15;
};
"Letterink-NibStyleId" = "7";
}),
(886,909,o),
(851,904,o),
(588,914,cs,{
"Letterink-NibData" = {
AngleInDegrees = 28;
MainAxisWidth = 85;
MinorAxisWidth = 85;
ValidForParentMainAxisWidth = 15;
ValidForParentMinorAxisWidth = 15;
};
"Letterink-NibStyleId" = "7";
}),
(294,924,o),
(108,865,o),
(92,750,cs,{
"Letterink-NibData" = {
AngleInDegrees = 28;
MainAxisWidth = 85;
MinorAxisWidth = 85;
ValidForParentMainAxisWidth = 15;
ValidForParentMinorAxisWidth = 15;
};
"Letterink-NibStyleId" = "7";
}),
(80,662,o),
(158,601,o),
(280,621,c,{
"Letterink-NibData" = {
AngleInDegrees = 28;
MainAxisWidth = 85;
MinorAxisWidth = 85;
ValidForParentMainAxisWidth = 15;
ValidForParentMinorAxisWidth = 15;
};
"Letterink-NibStyleId" = "7";
})
);
},
{
closed = 0;
nodes = (
(634,892,l,{
"Letterink-NibData" = {
AngleInDegrees = 28;
MainAxisWidth = 87;
MinorAxisWidth = 87;
ValidForParentMainAxisWidth = 15;
ValidForParentMinorAxisWidth = 15;
};
"Letterink-NibStyleId" = "6";
}),
(522,672,o),
(428,209,o),
(391,38,c,{
"Letterink-NibData" = {
AngleInDegrees = 28;
MainAxisWidth = 87;
MinorAxisWidth = 87;
ValidForParentMainAxisWidth = 15;
ValidForParentMinorAxisWidth = 15;
};
"Letterink-NibStyleId" = "6";
})
);
}
);
userData = {
"Letterink-ComputationAllowed" = YES;
};
width = 725;
}
);
metricLeft = T.ss03;
note = T;
unicode = 84;
},
{
glyphname = U;
kernLeft = U;
kernRight = U;
lastChange = "2024-08-21 16:45:09 +0000";
layers = (
{
anchors = (
{
name = bottom;
pos = (333,-15);
},
{
name = ogonek;
pos = (1022,-8);
},
{
name = top;
pos = (499,922);
},
{
name = topright;
pos = (698,870);
}
);
background = {
shapes = (
{
closed = 1;
nodes = (
(557,-62,o),
(617,-32,o),
(687,40,cs),
(693,46,o),
(697,54,o),
(697,63,cs),
(697,81,o),
(682,95,o),
(664,95,cs),
(656,95,o),
(648,92,o),
(642,87,cs),
(635,81,o),
(625,70,o),
(601,52,cs),
(582,38,o),
(568,29,o),
(553,24,cs),
(536,18,o),
(524,20,o),
(515,25,cs),
(504,31,o),
(495,41,o),
(487,59,cs),
(472,93,o),
(467,140,o),
(472,205,cs),
(475,243,o),
(481,284,o),
(495,353,cs),
(507,411,o),
(518,460,o),
(529,500,cs),
(546,562,o),
(555,594,o),
(572,653,cs),
(605,769,o),
(576,663,o),
(594,729,cs),
(600,751,o),
(583,775,o),
(558,775,cs),
(547,775,o),
(530,770,o),
(523,748,cs),
(518,732,o),
(445,471,o),
(375,294,cs),
(351,233,o),
(324,175,o),
(293,132,cs),
(261,88,o),
(229,65,o),
(193,65,cs),
(119,65,o),
(105,160,o),
(150,333,cs),
(157,359,o),
(167,395,o),
(182,448,cs),
(193,487,o),
(196,496,o),
(209,545,cs),
(215,568,o),
(221,592,o),
(223,616,cs),
(228,666,o),
(219,707,o),
(181,742,cs),
(144,776,o),
(96,791,o),
(39,791,cs),
(-24,791,o),
(-94,773,o),
(-153,736,cs),
(-209,701,o),
(-250,652,o),
(-266,596,cs),
(-282,541,o),
(-270,492,o),
(-254,459,cs),
(-234,418,o),
(-199,386,o),
(-151,371,cs),
(-123,362,o),
(-90,358,o),
(-59,359,cs),
(-28,360,o),
(-3,366,o),
(1,367,cs),
(24,373,o),
(30,383,o),
(30,398,cs),
(30,411,o),
(25,420,o),
(17,433,cs),
(13,439,o),
(7,437,o),
(5,437,cs),
(1,437,o),
(2,437,o),
(0,437,cs),
(-18,434,l),
(-42,431,ls),
(-50,430,o),
(-53,430,o),
(-67,430,cs),
(-118,430,o),
(-155,444,o),
(-178,471,cs),
(-201,498,o),
(-207,536,o),
(-196,576,cs),
(-183,623,o),
(-150,655,o),
(-109,678,cs),
(-71,699,o),
(-19,716,o),
(29,720,cs),
(79,724,o),
(106,711,o),
(122,697,cs),
(145,677,o),
(150,649,o),
(149,620,cs),
(148,595,o),
(143,568,o),
(137,545,cs),
(132,527,o),
(119,481,o),
(107,439,cs),
(96,402,o),
(87,375,o),
(77,338,cs),
(69,308,o),
(65,292,o),
(56,250,cs),
(50,221,o),
(48,209,o),
(46,172,cs),
(44,135,o),
(44,121,o),
(50,97,cs),
(56,71,o),
(66,51,o),
(77,36,cs),
(91,17,o),
(110,1,o),
(133,-10,cs),
(184,-34,o),
(234,-22,o),
(282,20,cs),
(330,62,o),
(371,129,o),
(399,204,c),
(389,133,o),
(396,72,o),
(415,27,cs),
(434,-18,o),
(466,-49,o),
(507,-55,cs)
);
}
);
};
layerId = m01;
shapes = (
{
closed = 0;
nodes = (
(1012,478,l,{
"Letterink-NibData" = {
AngleInDegrees = 28;
MainAxisWidth = 85;
MinorAxisWidth = 85;
ValidForParentMainAxisWidth = 15;
ValidForParentMinorAxisWidth = 15;
};
"Letterink-NibStyleId" = 7;
}),
(944,307,o),
(875,189,o),
(820,112,cs,{
"Letterink-NibData" = {
AngleInDegrees = 28;
MainAxisWidth = 85;
MinorAxisWidth = 85;
ValidForParentMainAxisWidth = 15;
ValidForParentMinorAxisWidth = 15;
};
"Letterink-NibStyleId" = 7;
}),
(768,41,o),
(720,11,o),
(668,11,cs,{
"Letterink-NibData" = {
AngleInDegrees = 28;
MainAxisWidth = 85;
MinorAxisWidth = 85;
ValidForParentMainAxisWidth = 15;
ValidForParentMinorAxisWidth = 15;
};
"Letterink-NibStyleId" = 7;
}),
(555,11,o),
(538,95,o),
(581,289,cs,{
"Letterink-NibData" = {
AngleInDegrees = 28;
MainAxisWidth = 87;
MinorAxisWidth = 87;
ValidForParentMainAxisWidth = 15;
ValidForParentMinorAxisWidth = 15;
};
"Letterink-NibStyleId" = 6;
}),
(698,823,l,{
"Letterink-NibData" = {
AngleInDegrees = 28;
MainAxisWidth = 85;
MinorAxisWidth = 85;
ValidForParentMainAxisWidth = 15;
ValidForParentMinorAxisWidth = 15;
};
"Letterink-NibStyleId" = 7;
}),
(590,597,o),
(488,404,o),
(365,218,cs,{
"Letterink-NibData" = {
AngleInDegrees = 28;
MainAxisWidth = 85;
MinorAxisWidth = 85;
ValidForParentMainAxisWidth = 15;
ValidForParentMinorAxisWidth = 15;
};
"Letterink-NibStyleId" = 7;
}),
(259,58,o),
(204,2,o),
(147,19,cs,{
"Letterink-NibData" = {
AngleInDegrees = 28;
MainAxisWidth = 85;
MinorAxisWidth = 85;
ValidForParentMainAxisWidth = 15;
ValidForParentMinorAxisWidth = 15;
};
"Letterink-NibStyleId" = 7;
}),
(70,42,o),
(83,166,o),
(125,332,cs,{
"Letterink-NibData" = {
AngleInDegrees = 28;
MainAxisWidth = 87;
MinorAxisWidth = 87;
ValidForParentMainAxisWidth = 15;
ValidForParentMinorAxisWidth = 15;
};
"Letterink-NibStyleId" = 6;
}),
(260,856,l,{
"Letterink-NibData" = {
AngleInDegrees = 28;
MainAxisWidth = 85;
MinorAxisWidth = 85;
ValidForParentMainAxisWidth = 15;
ValidForParentMinorAxisWidth = 15;
};
"Letterink-NibStyleId" = 7;
})
);
}
);
userData = {
"Letterink-ComputationAllowed" = YES;
};
width = 842;
}
);
metricLeft = U.ss03;
note = U;
unicode = 85;
},
{
glyphname = V;
kernLeft = V;
kernRight = V;
lastChange = "2024-08-20 17:19:33 +0000";
layers = (
{
background = {
hints = (
{
horizontal = 1;
place = (722,69);
type = Stem;
},
{
horizontal = 1;
place = (360,70);
type = Stem;
},
{
horizontal = 1;
place = (2,21);
target = up;
type = BottomGhost;
},
{
place = (751,67);
type = Stem;
},
{
place = (420,83);
type = Stem;
},
{
place = (4,66);
type = Stem;
}
);
shapes = (
{
closed = 1;
nodes = (
(490,88,o),
(476,76,o),
(491,89,cs),
(552,143,o),
(551,142,o),
(578,167,cs),
(616,202,o),
(639,224,o),
(658,245,cs),
(675,264,o),
(695,287,o),
(719,315,cs),
(742,342,o),
(760,367,o),
(773,390,cs),
(785,412,o),
(798,441,o),
(806,462,cs),
(816,488,o),
(824,521,o),
(828,545,cs),
(837,600,o),
(833,661,o),
(821,704,cs),
(808,750,o),
(786,787,o),
(745,835,cs),
(739,842,o),
(728,847,o),
(718,847,cs),
(699,847,o),
(683,831,o),
(683,811,cs),
(683,804,o),
(685,796,o),
(692,788,cs),
(724,752,o),
(744,720,o),
(755,685,cs),
(767,648,o),
(770,607,o),
(765,565,cs),
(760,523,o),
(747,483,o),
(732,450,cs),
(714,411,o),
(687,373,o),
(660,340,cs),
(628,301,o),
(580,253,o),
(557,231,cs),
(521,197,o),
(474,156,o),
(417,107,c),
(513,582,ls),
(519,612,o),
(518,644,o),
(510,672,cs),
(503,697,o),
(490,720,o),
(474,737,cs),
(442,771,o),
(385,791,o),
(323,791,cs),
(262,791,o),
(193,772,o),
(136,736,cs),
(79,700,o),
(41,651,o),
(25,598,cs),
(8,542,o),
(19,491,o),
(36,456,cs),
(55,417,o),
(89,384,o),
(138,369,cs),
(164,361,o),
(191,359,o),
(213,359,cs),
(235,359,o),
(270,361,o),
(291,367,cs),
(309,372,o),
(320,380,o),
(320,400,cs),
(320,414,o),
(314,423,o),
(306,434,cs),
(303,438,o),
(299,438,o),
(293,438,cs),
(291,438,o),
(289,437,o),
(287,437,cs),
(268,434,l),
(244,431,ls),
(236,430,o),
(232,430,o),
(218,430,cs),
(167,430,o),
(130,444,o),
(107,472,cs),
(84,500,o),
(78,540,o),
(89,579,cs),
(101,622,o),
(129,653,o),
(171,678,cs),
(210,701,o),
(260,718,o),
(307,722,cs),
(353,726,o),
(394,717,o),
(416,690,cs),
(435,667,o),
(439,630,o),
(429,582,cs),
(325,70,ls),
(319,38,o),
(342,7,o),
(376,7,cs),
(389,7,o),
(401,12,o),
(410,20,cs)
);
}
);
};
layerId = m01;
shapes = (
{
closed = 0;
nodes = (
(791,921,l,{
"Letterink-NibData" = {
AngleInDegrees = 28;
MainAxisWidth = 85;
MinorAxisWidth = 85;
ValidForParentMainAxisWidth = 15;
ValidForParentMinorAxisWidth = 15;
};
"Letterink-NibStyleId" = 7;
}),
(889,759,o),
(885,563,o),
(782,349,cs,{
"Letterink-NibData" = {
AngleInDegrees = 28;
MainAxisWidth = 85;
MinorAxisWidth = 85;
ValidForParentMainAxisWidth = 15;
ValidForParentMinorAxisWidth = 15;
};
"Letterink-NibStyleId" = 7;
}),
(682,141,o),
(568,32,o),
(450,32,cs,{
"Letterink-NibData" = {
AngleInDegrees = 28;
MainAxisWidth = 85;
MinorAxisWidth = 85;
ValidForParentMainAxisWidth = 15;
ValidForParentMinorAxisWidth = 15;
};
"Letterink-NibStyleId" = 7;
}),
(366,32,o),
(325,113,o),
(337,254,cs,{
"Letterink-NibData" = {
AngleInDegrees = 28;
MainAxisWidth = 87;
MinorAxisWidth = 87;
ValidForParentMainAxisWidth = 15;
ValidForParentMinorAxisWidth = 15;
};
"Letterink-NibStyleId" = 6;
}),
(350,404,o),
(420,611,o),
(505,756,c,{
"Letterink-NibData" = {
AngleInDegrees = 28;
MainAxisWidth = 85;
MinorAxisWidth = 85;
ValidForParentMainAxisWidth = 15;
ValidForParentMinorAxisWidth = 15;
};
"Letterink-NibStyleId" = 7;
}),
(440,790,o),
(379,806,o),
(317,804,cs,{
"Letterink-NibData" = {
AngleInDegrees = 28;
MainAxisWidth = 85;
MinorAxisWidth = 85;
ValidForParentMainAxisWidth = 15;
ValidForParentMinorAxisWidth = 15;
};
"Letterink-NibStyleId" = 7;
}),
(193,799,o),
(90,717,o),
(90,622,cs,{
"Letterink-NibData" = {
AngleInDegrees = 28;
MainAxisWidth = 85;
MinorAxisWidth = 85;
ValidForParentMainAxisWidth = 15;
ValidForParentMinorAxisWidth = 15;
};
"Letterink-NibStyleId" = 7;
}),
(90,552,o),
(145,478,o),
(210,460,c,{
"Letterink-NibData" = {
AngleInDegrees = 28;
MainAxisWidth = 85;
MinorAxisWidth = 85;
ValidForParentMainAxisWidth = 15;
ValidForParentMinorAxisWidth = 15;
};
"Letterink-NibStyleId" = 7;
})
);
}
);
userData = {
"Letterink-ComputationAllowed" = YES;
};
width = 901;
}
);
metricLeft = V.ss03;
metricRight = V.ss03;
note = V;
unicode = 86;
},
{
glyphname = W;
kernLeft = W;
kernRight = W;
lastChange = "2024-08-20 14:42:31 +0000";
layers = (
{
background = {
shapes = (
{
closed = 1;
nodes = (
(819,-20,o),
(889,10,o),
(947,69,cs),
(1005,128,o),
(1038,200,o),
(1054,277,cs),
(1069,349,o),
(1069,428,o),
(1052,499,cs),
(1036,565,o),
(1005,623,o),
(955,686,cs),
(948,695,o),
(938,699,o),
(928,699,cs),
(908,699,o),
(892,683,o),
(892,664,cs),
(892,655,o),
(896,646,o),
(900,641,cs),
(904,636,o),
(892,653,o),
(918,618,cs),
(927,605,o),
(937,590,o),
(949,570,cs),
(960,551,o),
(968,533,o),
(974,515,cs),
(980,497,o),
(985,479,o),
(989,454,cs),
(993,431,o),
(994,415,o),
(993,383,cs),
(992,355,o),
(990,332,o),
(983,299,cs),
(971,244,o),
(951,189,o),
(915,142,cs),
(879,95,o),
(836,69,o),
(796,60,cs),
(773,55,o),
(751,56,o),
(733,62,cs),
(710,69,o),
(695,84,o),
(686,97,cs),
(654,143,o),
(650,223,o),
(671,328,cs),
(682,383,ls),
(684,393,o),
(690,417,o),
(694,432,cs),
(698,446,o),
(702,459,o),
(706,470,cs),
(713,490,ls),
(714,494,o),
(715,498,o),
(713,503,cs),
(709,517,o),
(693,538,o),
(665,538,cs),
(647,538,o),
(632,530,o),
(627,514,c),
(394,190,l),
(472,370,ls),
(485,400,o),
(506,454,o),
(520,493,cs),
(538,543,o),
(545,573,o),
(547,601,cs),
(550,648,o),
(539,692,o),
(504,728,cs),
(466,767,o),
(409,787,o),
(348,791,cs),
(267,796,o),
(198,771,o),
(154,746,cs),
(98,714,o),
(63,670,o),
(48,619,cs),
(32,565,o),
(41,511,o),
(58,473,cs),
(80,424,o),
(117,396,o),
(159,383,cs),
(201,370,o),
(251,370,o),
(313,382,cs),
(329,385,o),
(342,399,o),
(342,415,cs),
(342,432,o),
(328,455,o),
(300,451,cs),
(286,449,o),
(267,443,o),
(236,443,cs),
(189,443,o),
(154,456,o),
(132,484,cs),
(110,512,o),
(102,555,o),
(114,596,cs),
(122,623,o),
(138,648,o),
(163,668,cs),
(189,689,o),
(221,703,o),
(256,710,cs),
(291,717,o),
(326,717,o),
(356,712,cs),
(386,707,o),
(417,696,o),
(437,678,cs),
(457,660,o),
(465,634,o),
(462,600,cs),
(458,551,o),
(431,463,o),
(376,325,cs),
(331,212,o),
(288,114,o),
(268,66,cs),
(266,61,o),
(264,57,o),
(264,49,cs),
(264,24,o),
(284,4,o),
(308,4,cs),
(323,4,o),
(335,11,o),
(343,22,cs),
(611,378,l),
(573,203,o),
(579,105,o),
(622,46,cs),
(652,5,o),
(702,-20,o),
(758,-20,cs)
);
}
);
};
layerId = m01;
shapes = (
{
closed = 0;
nodes = (
(1129,921,l,{
"Letterink-NibData" = {
AngleInDegrees = 28;
MainAxisWidth = 85;
MinorAxisWidth = 85;
ValidForParentMainAxisWidth = 15;
ValidForParentMinorAxisWidth = 15;
};
"Letterink-NibStyleId" = 7;
}),
(1182,840,o),
(1204,750,o),
(1204,661,cs,{
"Letterink-NibData" = {
AngleInDegrees = 28;
MainAxisWidth = 85;
MinorAxisWidth = 85;
ValidForParentMainAxisWidth = 15;
ValidForParentMinorAxisWidth = 15;
};
"Letterink-NibStyleId" = 7;
}),
(1204,466,o),
(1100,272,o),
(986,152,cs,{
"Letterink-NibData" = {
AngleInDegrees = 28;
MainAxisWidth = 85;
MinorAxisWidth = 85;
ValidForParentMainAxisWidth = 15;
ValidForParentMinorAxisWidth = 15;
};
"Letterink-NibStyleId" = 7;
}),
(915,78,o),
(840,32,o),
(783,32,cs,{
"Letterink-NibData" = {
AngleInDegrees = 28;
MainAxisWidth = 85;
MinorAxisWidth = 85;
ValidForParentMainAxisWidth = 15;
ValidForParentMinorAxisWidth = 15;
};
"Letterink-NibStyleId" = 7;
}),
(716,32,o),
(691,93,o),
(691,179,cs,{
"Letterink-NibData" = {
AngleInDegrees = 28;
MainAxisWidth = 87;
MinorAxisWidth = 87;
ValidForParentMainAxisWidth = 15;
ValidForParentMinorAxisWidth = 15;
};
"Letterink-NibStyleId" = 6;
}),
(691,339,o),
(779,602,o),
(832,756,c,{
"Letterink-NibData" = {
AngleInDegrees = 28;
MainAxisWidth = 85;
MinorAxisWidth = 85;
ValidForParentMainAxisWidth = 15;
ValidForParentMinorAxisWidth = 15;
};
"Letterink-NibStyleId" = 7;
}),
(760,624,o),
(651,335,o),
(553,191,cs,{
"Letterink-NibData" = {
AngleInDegrees = 28;
MainAxisWidth = 85;
MinorAxisWidth = 85;
ValidForParentMainAxisWidth = 15;
ValidForParentMinorAxisWidth = 15;
};
"Letterink-NibStyleId" = 7;
}),
(489,96,o),
(422,53,o),
(360,53,cs,{
"Letterink-NibData" = {
AngleInDegrees = 28;
MainAxisWidth = 85;
MinorAxisWidth = 85;
ValidForParentMainAxisWidth = 15;
ValidForParentMinorAxisWidth = 15;
};
"Letterink-NibStyleId" = 7;
}),
(290,53,o),
(251,109,o),
(251,199,cs,{
"Letterink-NibData" = {
AngleInDegrees = 28;
MainAxisWidth = 87;
MinorAxisWidth = 87;
ValidForParentMainAxisWidth = 15;
ValidForParentMinorAxisWidth = 15;
};
"Letterink-NibStyleId" = 6;
}),
(251,357,o),
(373,627,o),
(505,756,c,{
"Letterink-NibData" = {
AngleInDegrees = 28;
MainAxisWidth = 87;
MinorAxisWidth = 87;
ValidForParentMainAxisWidth = 15;
ValidForParentMinorAxisWidth = 15;
};
"Letterink-NibStyleId" = 6;
}),
(443,789,o),
(387,804,o),
(326,804,cs,{
"Letterink-NibData" = {
AngleInDegrees = 28;
MainAxisWidth = 85;
MinorAxisWidth = 85;
ValidForParentMainAxisWidth = 15;
ValidForParentMinorAxisWidth = 15;
};
"Letterink-NibStyleId" = 7;
}),
(189,804,o),
(90,727,o),
(90,618,cs,{
"Letterink-NibData" = {
AngleInDegrees = 28;
MainAxisWidth = 85;
MinorAxisWidth = 85;
ValidForParentMainAxisWidth = 15;
ValidForParentMinorAxisWidth = 15;
};
"Letterink-NibStyleId" = 7;
}),
(90,554,o),
(124,495,o),
(176,470,c,{
"Letterink-NibData" = {
AngleInDegrees = 28;
MainAxisWidth = 85;
MinorAxisWidth = 85;
ValidForParentMainAxisWidth = 15;
ValidForParentMinorAxisWidth = 15;
};
"Letterink-NibStyleId" = 7;
})
);
}
);
userData = {
"Letterink-ComputationAllowed" = YES;
};
width = 1244;
}
);
metricLeft = W.ss03;
metricRight = W.ss03;
note = W;
unicode = 87;
},
{
glyphname = X;
kernLeft = X;
kernRight = X;
lastChange = "2024-08-20 14:42:34 +0000";
layers = (
{
background = {
shapes = (
{
closed = 0;
nodes = (
(264,-22,l,{
"Letterink-NibData" = {
AngleInDegrees = "28";
MainAxisWidth = "69";
MinorAxisWidth = "69";
ValidForParentMainAxisWidth = "15";
ValidForParentMinorAxisWidth = "15";
};
"Letterink-NibStyleId" = "6";
}),
(467,287,o),
(759,640,o),
(978,864,cs,{
"Letterink-NibData" = {
AngleInDegrees = "28";
MainAxisWidth = "69";
MinorAxisWidth = "69";
ValidForParentMainAxisWidth = "15";
ValidForParentMinorAxisWidth = "15";
};
"Letterink-NibStyleId" = "6";
})
);
},
{
closed = 0;
nodes = (
(481,824,l,{
"Letterink-NibData" = {
AngleInDegrees = "28";
MainAxisWidth = "69";
MinorAxisWidth = "69";
ValidForParentMainAxisWidth = "15";
ValidForParentMinorAxisWidth = "15";
};
"Letterink-NibStyleId" = "6";
}),
(601,212,ls,{
"Letterink-NibData" = {
AngleInDegrees = "28";
MainAxisWidth = "69";
MinorAxisWidth = "69";
ValidForParentMainAxisWidth = "15";
ValidForParentMinorAxisWidth = "15";
};
"Letterink-NibStyleId" = "6";
}),
(630,68,o),
(665,-7,o),
(745,-7,cs,{
"Letterink-NibData" = {
AngleInDegrees = "28";
MainAxisWidth = "65";
MinorAxisWidth = "65";
ValidForParentMainAxisWidth = "15";
ValidForParentMinorAxisWidth = "15";
};
"Letterink-NibStyleId" = "7";
}),
(878,-7,o),
(993,141,o),
(1125,484,c,{
"Letterink-NibData" = {
AngleInDegrees = "28";
MainAxisWidth = "65";
MinorAxisWidth = "65";
ValidForParentMainAxisWidth = "15";
ValidForParentMinorAxisWidth = "15";
};
"Letterink-NibStyleId" = "7";
})
);
}
);
};
layerId = m01;
shapes = (
{
closed = 0;
nodes = (
(90,3,l,{
"Letterink-NibData" = {
AngleInDegrees = 28;
MainAxisWidth = 87;
MinorAxisWidth = 87;
ValidForParentMainAxisWidth = 15;
ValidForParentMinorAxisWidth = 15;
};
"Letterink-NibStyleId" = 6;
}),
(269,38,o),
(422,164,o),
(489,330,cs,{
"Letterink-NibData" = {
AngleInDegrees = 28;
MainAxisWidth = 87;
MinorAxisWidth = 87;
ValidForParentMainAxisWidth = 15;
ValidForParentMinorAxisWidth = 15;
};
"Letterink-NibStyleId" = 6;
}),
(593,591,o),
(546,771,o),
(370,771,cs,{
"Letterink-NibData" = {
AngleInDegrees = 28;
MainAxisWidth = 87;
MinorAxisWidth = 87;
ValidForParentMainAxisWidth = 15;
ValidForParentMinorAxisWidth = 15;
};
"Letterink-NibStyleId" = 6;
}),
(307,771,o),
(250,735,o),
(221,680,c,{
"Letterink-NibData" = {
AngleInDegrees = 28;
MainAxisWidth = 87;
MinorAxisWidth = 87;
ValidForParentMainAxisWidth = 15;
ValidForParentMinorAxisWidth = 15;
};
"Letterink-NibStyleId" = 6;
})
);
},
{
closed = 0;
nodes = (
(996,770,l,{
"Letterink-NibData" = {
AngleInDegrees = 28;
MainAxisWidth = 87;
MinorAxisWidth = 87;
ValidForParentMainAxisWidth = 15;
ValidForParentMinorAxisWidth = 15;
};
"Letterink-NibStyleId" = 6;
}),
(743,794,o),
(558,614,o),
(539,330,cs,{
"Letterink-NibData" = {
AngleInDegrees = 28;
MainAxisWidth = 87;
MinorAxisWidth = 87;
ValidForParentMainAxisWidth = 15;
ValidForParentMinorAxisWidth = 15;
};
"Letterink-NibStyleId" = 6;
}),
(527,134,o),
(590,12,o),
(702,12,cs,{
"Letterink-NibData" = {
AngleInDegrees = 28;
MainAxisWidth = 85;
MinorAxisWidth = 85;
ValidForParentMainAxisWidth = 15;
ValidForParentMinorAxisWidth = 15;
};
"Letterink-NibStyleId" = 7;
}),
(754,12,o),
(815,42,o),
(863,91,cs,{
"Letterink-NibData" = {
AngleInDegrees = 28;
MainAxisWidth = 85;
MinorAxisWidth = 85;
ValidForParentMainAxisWidth = 15;
ValidForParentMinorAxisWidth = 15;
};
"Letterink-NibStyleId" = 7;
}),
(935,164,o),
(1011,307,o),
(1096,476,c,{
"Letterink-NibData" = {
AngleInDegrees = 28;
MainAxisWidth = 85;
MinorAxisWidth = 85;
ValidForParentMainAxisWidth = 15;
ValidForParentMinorAxisWidth = 15;
};
"Letterink-NibStyleId" = 7;
})
);
}
);
userData = {
"Letterink-ComputationAllowed" = YES;
};
width = 932;
}
);
metricLeft = X.ss03;
note = X;
unicode = 88;
},
{
glyphname = Y;
kernLeft = Y;
kernRight = Y;
lastChange = "2024-08-20 14:42:37 +0000";
layers = (
{
anchors = (
{
name = bottom;
pos = (1019,132);
},
{
name = top;
pos = (679,922);
}
);
background = {
hints = (
{
horizontal = 1;
place = (719,70);
type = Stem;
},
{
horizontal = 1;
place = (355,70);
type = Stem;
},
{
horizontal = 1;
place = (100,81);
type = Stem;
},
{
horizontal = 1;
place = (-283,72);
type = Stem;
},
{
place = (438,75);
type = Stem;
},
{
place = (362,73);
type = Stem;
},
{
place = (175,74);
type = Stem;
},
{
place = (18,71);
type = Stem;
}
);
shapes = (
{
closed = 1;
nodes = (
(470,-282,o),
(510,-278,o),
(550,-263,cs),
(645,-227,o),
(703,-140,o),
(736,16,cs),
(886,730,ls),
(890,751,o),
(874,772,o),
(852,772,cs),
(840,772,o),
(825,766,o),
(818,746,cs),
(815,737,o),
(784,620,o),
(702,417,cs),
(688,383,o),
(677,357,o),
(671,343,cs),
(658,315,o),
(649,297,o),
(641,282,cs),
(627,256,o),
(616,240,o),
(603,227,cs),
(591,215,o),
(576,204,o),
(558,195,cs),
(540,186,o),
(520,181,o),
(498,181,cs),
(417,181,o),
(392,249,o),
(420,370,cs),
(429,410,o),
(441,445,o),
(456,491,cs),
(476,554,o),
(484,587,o),
(487,614,cs),
(493,671,o),
(477,710,o),
(446,739,cs),
(412,771,o),
(361,789,o),
(301,789,cs),
(239,789,o),
(167,770,o),
(108,732,cs),
(54,697,o),
(15,649,o),
(-1,590,cs),
(-14,542,o),
(-10,492,o),
(11,450,cs),
(30,412,o),
(62,384,o),
(114,367,cs),
(144,357,o),
(172,353,o),
(217,355,cs),
(243,356,o),
(253,358,o),
(265,362,cs),
(286,369,o),
(294,376,o),
(294,393,cs),
(294,407,o),
(289,416,o),
(281,429,cs),
(277,435,o),
(271,433,o),
(269,433,cs),
(265,433,o),
(266,433,o),
(264,433,cs),
(246,430,l),
(222,427,ls),
(213,426,o),
(204,425,o),
(192,425,cs),
(150,425,o),
(111,437,o),
(87,465,cs),
(63,493,o),
(57,532,o),
(68,572,cs),
(80,615,o),
(109,648,o),
(150,673,cs),
(194,700,o),
(247,715,o),
(290,718,cs),
(330,721,o),
(363,714,o),
(388,692,cs),
(410,673,o),
(416,650,o),
(412,616,cs),
(408,579,o),
(394,531,o),
(379,483,cs),
(361,425,o),
(354,405,o),
(347,373,cs),
(314,224,o),
(351,145,o),
(431,114,cs),
(454,105,o),
(482,100,o),
(504,100,cs),
(523,100,o),
(544,104,o),
(562,112,cs),
(580,120,o),
(596,130,o),
(611,142,cs),
(627,155,o),
(640,170,o),
(653,189,cs),
(666,208,o),
(678,228,o),
(688,246,cs),
(697,263,o),
(707,284,o),
(718,312,cs),
(722,323,o),
(728,338,o),
(736,357,c),
(668,29,ls),
(658,-20,o),
(638,-72,o),
(615,-111,cs),
(591,-151,o),
(567,-174,o),
(537,-190,cs),
(507,-206,o),
(478,-211,o),
(446,-211,cs),
(403,-211,o),
(369,-202,o),
(340,-186,cs),
(300,-164,o),
(277,-133,o),
(261,-98,cs),
(235,-39,o),
(230,27,o),
(227,41,cs),
(222,64,o),
(204,72,o),
(190,72,cs),
(168,72,o),
(150,52,o),
(153,30,cs),
(162,-38,o),
(173,-85,o),
(190,-123,cs),
(211,-170,o),
(243,-208,o),
(278,-234,cs),
(324,-268,o),
(377,-282,o),
(438,-282,cs)
);
}
);
};
layerId = m01;
shapes = (
{
closed = 0;
nodes = (
(1130,473,l,{
"Letterink-NibData" = {
AngleInDegrees = 28;
MainAxisWidth = 85;
MinorAxisWidth = 85;
ValidForParentMainAxisWidth = 15;
ValidForParentMinorAxisWidth = 15;
};
"Letterink-NibStyleId" = 7;
}),
(790,213,o),
(543,-6,o),
(484,-68,cs,{
"Letterink-NibData" = {
AngleInDegrees = 28;
MainAxisWidth = 85;
MinorAxisWidth = 85;
ValidForParentMainAxisWidth = 15;
ValidForParentMinorAxisWidth = 15;
};
"Letterink-NibStyleId" = 7;
}),
(400,-158,o),
(401,-247,o),
(475,-263,cs,{
"Letterink-NibData" = {
AngleInDegrees = 28;
MainAxisWidth = 85;
MinorAxisWidth = 85;
ValidForParentMainAxisWidth = 15;
ValidForParentMinorAxisWidth = 15;
};
"Letterink-NibStyleId" = 7;
}),
(552,-280,o),
(644,-190,o),
(679,-63,cs,{
"Letterink-NibData" = {
AngleInDegrees = 28;
MainAxisWidth = 87;
MinorAxisWidth = 87;
ValidForParentMainAxisWidth = 15;
ValidForParentMinorAxisWidth = 15;
};
"Letterink-NibStyleId" = 6;
}),
(927,830,l,{
"Letterink-NibData" = {
AngleInDegrees = 28;
MainAxisWidth = 85;
MinorAxisWidth = 85;
ValidForParentMainAxisWidth = 15;
ValidForParentMinorAxisWidth = 15;
};
"Letterink-NibStyleId" = 7;
}),
(817,598,o),
(739,398,o),
(646,272,cs,{
"Letterink-NibData" = {
AngleInDegrees = 28;
MainAxisWidth = 85;
MinorAxisWidth = 85;
ValidForParentMainAxisWidth = 15;
ValidForParentMinorAxisWidth = 15;
};
"Letterink-NibStyleId" = 7;
}),
(571,172,o),
(498,133,o),
(420,161,cs,{
"Letterink-NibData" = {
AngleInDegrees = 28;
MainAxisWidth = 85;
MinorAxisWidth = 85;
ValidForParentMainAxisWidth = 15;
ValidForParentMinorAxisWidth = 15;
};
"Letterink-NibStyleId" = 7;
}),
(352,185,o),
(325,272,o),
(353,374,cs,{
"Letterink-NibData" = {
AngleInDegrees = 28;
MainAxisWidth = 87;
MinorAxisWidth = 87;
ValidForParentMainAxisWidth = 15;
ValidForParentMinorAxisWidth = 15;
};
"Letterink-NibStyleId" = 6;
}),
(474,806,l,{
"Letterink-NibData" = {
AngleInDegrees = 28;
MainAxisWidth = 85;
MinorAxisWidth = 85;
ValidForParentMainAxisWidth = 15;
ValidForParentMinorAxisWidth = 15;
};
"Letterink-NibStyleId" = 7;
}),
(261,806,o),
(90,698,o),
(90,574,cs,{
"Letterink-NibData" = {
AngleInDegrees = 28;
MainAxisWidth = 85;
MinorAxisWidth = 85;
ValidForParentMainAxisWidth = 15;
ValidForParentMinorAxisWidth = 15;
};
"Letterink-NibStyleId" = 7;
}),
(90,496,o),
(157,455,o),
(246,480,c,{
"Letterink-NibData" = {
AngleInDegrees = 28;
MainAxisWidth = 85;
MinorAxisWidth = 85;
ValidForParentMainAxisWidth = 15;
ValidForParentMinorAxisWidth = 15;
};
"Letterink-NibStyleId" = 7;
})
);
}
);
userData = {
"Letterink-ComputationAllowed" = YES;
};
width = 964;
}
);
metricLeft = Y.ss03;
note = Y;
unicode = 89;
},
{
glyphname = Z;
kernLeft = Z;
kernRight = Z;
lastChange = "2024-08-20 14:42:42 +0000";
layers = (
{
background = {
shapes = (
{
closed = 1;
nodes = (
(608,-51,o),
(666,-36,o),
(713,-15,cs),
(762,7,o),
(819,47,o),
(882,97,cs),
(889,103,o),
(893,112,o),
(893,122,cs),
(893,139,o),
(879,153,o),
(862,153,cs),
(855,153,o),
(848,151,o),
(843,147,cs),
(781,100,ls),
(765,88,o),
(742,73,o),
(715,59,cs),
(681,41,o),
(659,35,o),
(637,32,cs),
(615,29,o),
(591,29,o),
(563,33,c),
(564,37,ls),
(565,39,o),
(564,39,o),
(555,42,cs),
(529,50,o),
(480,74,o),
(402,120,c),
(413,131,ls),
(459,177,o),
(573,300,o),
(636,369,cs),
(683,421,o),
(700,440,o),
(832,588,cs),
(895,659,ls),
(903,668,o),
(908,680,o),
(908,694,cs),
(908,722,o),
(884,746,o),
(856,746,cs),
(851,746,o),
(846,745,o),
(842,744,cs),
(826,740,o),
(811,737,o),
(795,735,cs),
(771,732,o),
(745,732,o),
(703,736,cs),
(675,739,o),
(654,742,o),
(629,746,cs),
(609,749,o),
(567,758,o),
(550,762,cs),
(508,771,o),
(472,779,o),
(406,777,cs),
(348,775,o),
(307,766,o),
(276,756,cs),
(235,743,o),
(200,725,o),
(169,690,cs),
(138,655,o),
(117,611,o),
(109,568,cs),
(98,509,o),
(112,457,o),
(147,418,cs),
(184,377,o),
(241,356,o),
(311,356,cs),
(332,356,o),
(348,358,o),
(362,360,cs),
(376,362,o),
(385,363,o),
(393,365,cs),
(397,366,o),
(401,367,o),
(404,371,cs),
(408,376,o),
(412,385,o),
(412,395,cs),
(412,409,o),
(404,422,o),
(394,431,cs),
(390,434,o),
(388,435,o),
(381,434,cs),
(376,433,o),
(424,441,o),
(376,433,cs),
(358,430,l),
(334,427,ls),
(325,426,o),
(316,425,o),
(304,425,cs),
(267,425,o),
(231,435,o),
(204,461,cs),
(177,487,o),
(171,518,o),
(176,548,cs),
(181,578,o),
(197,612,o),
(221,639,cs),
(245,666,o),
(276,682,o),
(305,691,cs),
(337,701,o),
(376,706,o),
(413,706,cs),
(465,706,o),
(504,696,o),
(533,689,cs),
(621,668,o),
(699,652,o),
(798,664,c),
(572,401,o),
(416,231,o),
(331,154,c),
(282,181,o),
(253,196,o),
(226,207,cs),
(165,232,o),
(118,234,o),
(69,215,cs),
(15,194,o),
(-7,160,o),
(-7,107,cs),
(-7,61,o),
(10,27,o),
(44,5,cs),
(77,-16,o),
(123,-23,o),
(172,-16,cs),
(235,-7,o),
(297,24,o),
(345,65,c),
(456,-1,o),
(506,-26,o),
(547,-36,cs)
);
},
{
closed = 1;
nodes = (
(65,124,o),
(73,136,o),
(89,144,cs),
(107,153,o),
(128,155,o),
(144,154,cs),
(174,152,o),
(214,137,o),
(273,106,c),
(261,95,ls),
(240,76,o),
(204,61,o),
(173,55,cs),
(143,49,o),
(117,51,o),
(96,61,cs),
(75,71,o),
(65,86,o),
(65,107,cs)
);
}
);
};
layerId = m01;
shapes = (
{
closed = 0;
nodes = (
(346,502,l,{
"Letterink-NibData" = {
AngleInDegrees = 28;
MainAxisWidth = 85;
MinorAxisWidth = 85;
ValidForParentMainAxisWidth = 15;
ValidForParentMinorAxisWidth = 15;
};
"Letterink-NibStyleId" = 7;
}),
(233,461,o),
(158,494,o),
(158,585,cs,{
"Letterink-NibData" = {
AngleInDegrees = 28;
MainAxisWidth = 85;
MinorAxisWidth = 85;
ValidForParentMainAxisWidth = 15;
ValidForParentMinorAxisWidth = 15;
};
"Letterink-NibStyleId" = 7;
}),
(158,701,o),
(280,767,o),
(440,753,cs,{
"Letterink-NibData" = {
AngleInDegrees = 28;
MainAxisWidth = 85;
MinorAxisWidth = 85;
ValidForParentMainAxisWidth = 15;
ValidForParentMinorAxisWidth = 15;
};
"Letterink-NibStyleId" = 7;
}),
(666,735,o),
(758,746,o),
(931,794,c,{
"Letterink-NibData" = {
AngleInDegrees = 28;
MainAxisWidth = 85;
MinorAxisWidth = 85;
ValidForParentMainAxisWidth = 15;
ValidForParentMinorAxisWidth = 15;
};
"Letterink-NibStyleId" = 7;
}),
(704,556,o),
(484,296,o),
(362,135,cs,{
"Letterink-NibData" = {
AngleInDegrees = 28;
MainAxisWidth = 87;
MinorAxisWidth = 87;
ValidForParentMainAxisWidth = 15;
ValidForParentMinorAxisWidth = 15;
};
"Letterink-NibStyleId" = 6;
}),
(311,66,o),
(260,-15,o),
(178,-15,cs,{
"Letterink-NibData" = {
AngleInDegrees = 28;
MainAxisWidth = 85;
MinorAxisWidth = 85;
ValidForParentMainAxisWidth = 15;
ValidForParentMinorAxisWidth = 15;
};
"Letterink-NibStyleId" = 7;
}),
(124,-15,o),
(90,20,o),
(90,68,cs,{
"Letterink-NibData" = {
AngleInDegrees = 28;
MainAxisWidth = 85;
MinorAxisWidth = 85;
ValidForParentMainAxisWidth = 15;
ValidForParentMinorAxisWidth = 15;
};
"Letterink-NibStyleId" = 7;
}),
(90,176,o),
(264,201,o),
(398,135,cs,{
"Letterink-NibData" = {
AngleInDegrees = 28;
MainAxisWidth = 85;
MinorAxisWidth = 85;
ValidForParentMainAxisWidth = 15;
ValidForParentMinorAxisWidth = 15;
};
"Letterink-NibStyleId" = 7;
}),
(470,99,o),
(554,29,o),
(649,29,cs,{
"Letterink-NibData" = {
AngleInDegrees = 28;
MainAxisWidth = 85;
MinorAxisWidth = 85;
ValidForParentMainAxisWidth = 15;
ValidForParentMinorAxisWidth = 15;
};
"Letterink-NibStyleId" = 7;
}),
(789,29,o),
(947,183,o),
(1054,475,c,{
"Letterink-NibData" = {
AngleInDegrees = 28;
MainAxisWidth = 85;
MinorAxisWidth = 85;
ValidForParentMainAxisWidth = 15;
ValidForParentMinorAxisWidth = 15;
};
"Letterink-NibStyleId" = 7;
})
);
}
);
userData = {
"Letterink-ComputationAllowed" = YES;
};
width = 885;
}
);
metricLeft = Z.ss03;
note = Z;
unicode = 90;
},
{
glyphname = a;
kernLeft = KO_a;
kernRight = KO_a;
lastChange = "2024-08-22 03:59:06 +0000";
layers = (
{
anchors = (
{
name = bottom;
pos = (341,9);
},
{
name = ogonek;
pos = (667,20);
},
{
name = top;
pos = (429,614);
}
);
background = {
shapes = (
{
pos = (9,0);
ref = u;
}
);
};
layerId = m01;
shapes = (
{
closed = 0;
nodes = (
(544,491,l,{
"Letterink-NibData" = {
AngleInDegrees = 28;
MainAxisWidth = 79;
MinorAxisWidth = 79;
ValidForParentMainAxisWidth = 15;
ValidForParentMinorAxisWidth = 15;
};
"Letterink-NibStyleId" = 1;
}),
(508,514,o),
(446,531,o),
(392,531,cs,{
"Letterink-NibData" = {
AngleInDegrees = 28;
MainAxisWidth = 79;
MinorAxisWidth = 79;
ValidForParentMainAxisWidth = 15;
ValidForParentMinorAxisWidth = 15;
};
"Letterink-NibStyleId" = 1;
}),
(219,531,o),
(72,357,o),
(72,199,cs,{
"Letterink-NibData" = {
AngleInDegrees = 28;
MainAxisWidth = 81;
MinorAxisWidth = 81;
ValidForParentMainAxisWidth = 15;
ValidForParentMinorAxisWidth = 15;
};
"Letterink-NibStyleId" = 2;
}),
(72,107,o),
(121,49,o),
(198,49,cs,{
"Letterink-NibData" = {
AngleInDegrees = 28;
MainAxisWidth = 79;
MinorAxisWidth = 79;
ValidForParentMainAxisWidth = 15;
ValidForParentMinorAxisWidth = 15;
};
"Letterink-NibStyleId" = 1;
}),
(258,49,o),
(322,85,o),
(374,153,cs,{
"Letterink-NibData" = {
AngleInDegrees = 28;
MainAxisWidth = 79;
MinorAxisWidth = 79;
ValidForParentMainAxisWidth = 15;
ValidForParentMinorAxisWidth = 15;
};
"Letterink-NibStyleId" = 1;
}),
(421,214,o),
(474,318,o),
(499,378,c,{
"Letterink-NibData" = {
AngleInDegrees = 28;
MainAxisWidth = 81;
MinorAxisWidth = 81;
ValidForParentMainAxisWidth = 15;
ValidForParentMinorAxisWidth = 15;
};
"Letterink-NibStyleId" = 2;
}),
(455,163,ls,{
"Letterink-NibData" = {
AngleInDegrees = 28;
MainAxisWidth = 81;
MinorAxisWidth = 81;
ValidForParentMainAxisWidth = 15;
ValidForParentMinorAxisWidth = 15;
};
"Letterink-NibStyleId" = 2;
}),
(439,82,o),
(471,27,o),
(534,27,cs,{
"Letterink-NibData" = {
AngleInDegrees = 28;
MainAxisWidth = 79;
MinorAxisWidth = 79;
ValidForParentMainAxisWidth = 15;
ValidForParentMinorAxisWidth = 15;
};
"Letterink-NibStyleId" = 1;
}),
(579,27,o),
(621,57,o),
(673,117,cs,{
"Letterink-NibData" = {
AngleInDegrees = 28;
MainAxisWidth = 79;
MinorAxisWidth = 79;
ValidForParentMainAxisWidth = 15;
ValidForParentMinorAxisWidth = 15;
};
"Letterink-NibStyleId" = "1";
}),
(760,218,o),
(864,394,o),
(906,479,c,{
"Letterink-NibData" = {
AngleInDegrees = 28;
MainAxisWidth = 79;
MinorAxisWidth = 79;
ValidForParentMainAxisWidth = 15;
ValidForParentMinorAxisWidth = 15;
};
"Letterink-NibStyleId" = "1";
})
);
}
);
userData = {
"Letterink-ComputationAllowed" = YES;
};
width = 732;
},
{
associatedMasterId = m01;
background = {
shapes = (
{
closed = 0;
nodes = (
(459,413,l,{
"Letterink-NibData" = {
AngleInDegrees = "28";
MainAxisWidth = "59";
MinorAxisWidth = "59";
ValidForParentMainAxisWidth = "15";
ValidForParentMinorAxisWidth = "15";
};
"Letterink-NibStyleId" = "2";
}),
(413,459,o),
(364,479,o),
(298,479,cs,{
"Letterink-NibData" = {
AngleInDegrees = "28";
MainAxisWidth = "55";
MinorAxisWidth = "55";
ValidForParentMainAxisWidth = "15";
ValidForParentMinorAxisWidth = "15";
};
"Letterink-NibStyleId" = "1";
}),
(176,479,o),
(77,358,o),
(77,208,cs,{
"Letterink-NibData" = {
AngleInDegrees = "28";
MainAxisWidth = "59";
MinorAxisWidth = "59";
ValidForParentMainAxisWidth = "15";
ValidForParentMinorAxisWidth = "15";
};
"Letterink-NibStyleId" = "2";
}),
(77,117,o),
(121,50,o),
(197,50,cs,{
"Letterink-NibData" = {
AngleInDegrees = "28";
MainAxisWidth = "55";
MinorAxisWidth = "55";
ValidForParentMainAxisWidth = "15";
ValidForParentMinorAxisWidth = "15";
};
"Letterink-NibStyleId" = "1";
}),
(246,50,o),
(285,80,o),
(328,134,cs,{
"Letterink-NibData" = {
AngleInDegrees = "28";
MainAxisWidth = "55";
MinorAxisWidth = "55";
ValidForParentMainAxisWidth = "15";
ValidForParentMinorAxisWidth = "15";
};
"Letterink-NibStyleId" = "1";
}),
(372,189,o),
(425,268,o),
(451,322,c,{
"Letterink-NibData" = {
AngleInDegrees = "28";
MainAxisWidth = "59";
MinorAxisWidth = "59";
ValidForParentMainAxisWidth = "15";
ValidForParentMinorAxisWidth = "15";
};
"Letterink-NibStyleId" = "2";
}),
(409,154,ls,{
"Letterink-NibData" = {
AngleInDegrees = "28";
MainAxisWidth = "59";
MinorAxisWidth = "59";
ValidForParentMainAxisWidth = "15";
ValidForParentMinorAxisWidth = "15";
};
"Letterink-NibStyleId" = "2";
}),
(384,52,o),
(393,-5,o),
(458,-5,cs,{
"Letterink-NibData" = {
AngleInDegrees = "28";
MainAxisWidth = "55";
MinorAxisWidth = "55";
ValidForParentMainAxisWidth = "15";
ValidForParentMinorAxisWidth = "15";
};
"Letterink-NibStyleId" = "1";
}),
(502,-5,o),
(552,21,o),
(620,103,cs,{
"Letterink-NibData" = {
AngleInDegrees = "28";
MainAxisWidth = "55";
MinorAxisWidth = "55";
ValidForParentMainAxisWidth = "15";
ValidForParentMinorAxisWidth = "15";
};
"Letterink-NibStyleId" = "1";
}),
(697,196,o),
(778,339,o),
(805,402,c,{
"Letterink-NibData" = {
AngleInDegrees = "28";
MainAxisWidth = "55";
MinorAxisWidth = "55";
ValidForParentMainAxisWidth = "15";
ValidForParentMinorAxisWidth = "15";
};
"Letterink-NibStyleId" = "1";
})
);
}
);
};
layerId = "A9F820C9-2C89-43B7-A73C-D7FC6E7C6C27";
name = Rialto;
shapes = (
{
closed = 0;
nodes = (
(463,357,l,{
"Letterink-NibData" = {
AngleInDegrees = 13.77404;
MainAxisWidth = 55;
MinorAxisWidth = 55;
ValidForParentMainAxisWidth = 15;
ValidForParentMinorAxisWidth = 15;
};
"Letterink-NibStyleId" = "1";
}),
(445,428,o),
(376,479,o),
(298,479,cs,{
"Letterink-NibData" = {
AngleInDegrees = 298;
MainAxisWidth = 55;
MinorAxisWidth = 55;
ValidForParentMainAxisWidth = 15;
ValidForParentMinorAxisWidth = 15;
};
"Letterink-NibStyleId" = "1";
}),
(176,479,o),
(77,358,o),
(77,208,cs,{
"Letterink-NibData" = {
AngleInDegrees = 208;
MainAxisWidth = 59;
MinorAxisWidth = 59;
ValidForParentMainAxisWidth = 15;
ValidForParentMinorAxisWidth = 15;
};
"Letterink-NibStyleId" = "2";
}),
(77,117,o),
(121,50,o),
(197,50,cs,{
"Letterink-NibData" = {
AngleInDegrees = 118;
MainAxisWidth = 55;
MinorAxisWidth = 55;
ValidForParentMainAxisWidth = 15;
ValidForParentMinorAxisWidth = 15;
};
"Letterink-NibStyleId" = "1";
}),
(246,50,o),
(285,80,o),
(328,134,cs,{
"Letterink-NibData" = {
AngleInDegrees = 66.8845;
MainAxisWidth = 55;
MinorAxisWidth = 55;
ValidForParentMainAxisWidth = 15;
ValidForParentMinorAxisWidth = 15;
};
"Letterink-NibStyleId" = "1";
}),
(403,227,o),
(470,386,o),
(508,489,c,{
"Letterink-NibData" = {
AngleInDegrees = 224.46359;
MainAxisWidth = 59;
MinorAxisWidth = 59;
ValidForParentMainAxisWidth = 15;
ValidForParentMinorAxisWidth = 15;
};
"Letterink-NibStyleId" = "2";
}),
(409,154,ls,{
"Letterink-NibData" = {
AngleInDegrees = 224.54298;
MainAxisWidth = 59;
MinorAxisWidth = 59;
ValidForParentMainAxisWidth = 15;
ValidForParentMinorAxisWidth = 15;
};
"Letterink-NibStyleId" = "2";
}),
(379,53,o),
(393,-5,o),
(458,-5,cs,{
"Letterink-NibData" = {
AngleInDegrees = 118;
MainAxisWidth = 55;
MinorAxisWidth = 55;
ValidForParentMainAxisWidth = 15;
ValidForParentMinorAxisWidth = 15;
};
"Letterink-NibStyleId" = "1";
}),
(502,-5,o),
(552,21,o),
(620,103,cs,{
"Letterink-NibData" = {
AngleInDegrees = 67.62329;
MainAxisWidth = 55;
MinorAxisWidth = 55;
ValidForParentMainAxisWidth = 15;
ValidForParentMinorAxisWidth = 15;
};
"Letterink-NibStyleId" = "1";
}),
(697,196,o),
(778,339,o),
(805,402,c,{
"Letterink-NibData" = {
AngleInDegrees = 51.19859;
MainAxisWidth = 55;
MinorAxisWidth = 55;
ValidForParentMainAxisWidth = 15;
ValidForParentMinorAxisWidth = 15;
};
"Letterink-NibStyleId" = "1";
})
);
}
);
userData = {
"Letterink-ComputationAllowed" = YES;
};
width = 670;
},
{
anchors = (
{
name = bottom;
pos = (334,0);
},
{
name = ogonek;
pos = (601,10);
},
{
name = top;
pos = (334,554);
}
);
associatedMasterId = m01;
background = {
shapes = (
{
pos = (-30,0);
ref = u;
}
);
};
layerId = "34A7B6C8-7C87-4E6B-8D4D-68639DBD334E";
name = "26 Jun 24 at 18:14";
shapes = (
{
closed = 0;
nodes = (
(489,410,l,{
"Letterink-NibData" = {
AngleInDegrees = 343;
MainAxisWidth = 59;
MinorAxisWidth = 59;
ValidForParentMainAxisWidth = 15;
ValidForParentMinorAxisWidth = 15;
};
"Letterink-NibStyleId" = "2";
}),
(461,439,o),
(407,463,o),
(356,463,cs,{
"Letterink-NibData" = {
AngleInDegrees = 298;
MainAxisWidth = 55;
MinorAxisWidth = 55;
ValidForParentMainAxisWidth = 15;
ValidForParentMinorAxisWidth = 15;
};
"Letterink-NibStyleId" = "1";
}),
(203,463,o),
(77,289,o),
(77,177,cs,{
"Letterink-NibData" = {
AngleInDegrees = 208;
MainAxisWidth = 59;
MinorAxisWidth = 59;
ValidForParentMainAxisWidth = 15;
ValidForParentMinorAxisWidth = 15;
};
"Letterink-NibStyleId" = "2";
}),
(77,104,o),
(121,50,o),
(197,50,cs,{
"Letterink-NibData" = {
AngleInDegrees = 118;
MainAxisWidth = 55;
MinorAxisWidth = 55;
ValidForParentMainAxisWidth = 15;
ValidForParentMinorAxisWidth = 15;
};
"Letterink-NibStyleId" = "1";
}),
(246,50,o),
(285,80,o),
(328,134,cs,{
"Letterink-NibData" = {
AngleInDegrees = 66.92754;
MainAxisWidth = 55;
MinorAxisWidth = 55;
ValidForParentMainAxisWidth = 15;
ValidForParentMinorAxisWidth = 15;
};
"Letterink-NibStyleId" = "1";
}),
(370,186,o),
(422,258,o),
(448,308,c,{
"Letterink-NibData" = {
AngleInDegrees = 222.21118;
MainAxisWidth = 59;
MinorAxisWidth = 59;
ValidForParentMainAxisWidth = 15;
ValidForParentMinorAxisWidth = 15;
};
"Letterink-NibStyleId" = "2";
}),
(409,154,ls,{
"Letterink-NibData" = {
AngleInDegrees = 221.24051;
MainAxisWidth = 59;
MinorAxisWidth = 59;
ValidForParentMainAxisWidth = 15;
ValidForParentMinorAxisWidth = 15;
};
"Letterink-NibStyleId" = "2";
}),
(385,52,o),
(393,-5,o),
(458,-5,cs,{
"Letterink-NibData" = {
AngleInDegrees = 118;
MainAxisWidth = 55;
MinorAxisWidth = 55;
ValidForParentMainAxisWidth = 15;
ValidForParentMinorAxisWidth = 15;
};
"Letterink-NibStyleId" = "1";
}),
(492,-5,o),
(529,19,o),
(578,73,cs,{
"Letterink-NibData" = {
AngleInDegrees = 70.15338;
MainAxisWidth = 55;
MinorAxisWidth = 55;
ValidForParentMainAxisWidth = 15;
ValidForParentMinorAxisWidth = 15;
};
"Letterink-NibStyleId" = 1;
}),
(664,168,o),
(753,326,o),
(805,401,c,{
"Letterink-NibData" = {
AngleInDegrees = 62.73486;
MainAxisWidth = 50;
MinorAxisWidth = 50;
ValidForParentMainAxisWidth = 15;
ValidForParentMinorAxisWidth = 15;
};
"Letterink-NibStyleId" = 5;
})
);
}
);
userData = {
"Letterink-ComputationAllowed" = YES;
};
width = 668;
}
);
note = a;
unicode = 97;
userData = {
KernOnName = a;
};
},
{
glyphname = aacute;
kernLeft = KO_a;
kernRight = KO_a;
lastChange = "2024-08-20 10:15:30 +0000";
layers = (
{
background = {
shapes = (
{
pos = (1,0);
ref = a;
},
{
closed = 1;
nodes = (
(278,587,o),
(285,590,o),
(291,595,cs,{
"Letterink-NibData" = {
AngleInDegrees = "50.81010055541992";
};
}),
(448,723,ls,{
"Letterink-NibData" = {
AngleInDegrees = "51.34019088745117";
};
}),
(458,731,o),
(461,741,o),
(461,750,cs),
(461,769,o),
(446,785,o),
(426,785,cs,{
"Letterink-NibData" = {
AngleInDegrees = "270";
};
}),
(418,785,o),
(410,782,o),
(404,777,cs,{
"Letterink-NibData" = {
AngleInDegrees = "230.1944293285419";
};
}),
(248,647,ls,{
"Letterink-NibData" = {
AngleInDegrees = "229.3987121582032";
};
}),
(241,641,o),
(236,632,o),
(236,621,cs,{
"Letterink-NibData" = {
AngleInDegrees = "180";
};
}),
(236,603,o),
(251,587,o),
(270,587,cs,{
"Letterink-NibData" = {
AngleInDegrees = "90";
};
})
);
}
);
};
layerId = m01;
shapes = (
{
ref = a;
},
{
pos = (97,-153);
ref = acutecomb;
}
);
width = 732;
}
);
metricLeft = a;
metricRight = a;
note = aacute;
unicode = 225;
},
{
glyphname = abreve;
kernLeft = KO_a;
kernRight = KO_a;
lastChange = "2024-08-20 10:15:30 +0000";
layers = (
{
background = {
shapes = (
{
closed = 1;
nodes = (
(218,614,o),
(278,571,o),
(347,571,cs,{
"Letterink-NibData" = {
AngleInDegrees = "90";
};
}),
(429,571,o),
(493,633,o),
(507,673,cs,{
"Letterink-NibData" = {
AngleInDegrees = "18.43495178222656";
};
}),
(509,679,o),
(510,683,o),
(510,688,cs),
(510,706,o),
(494,722,o),
(476,722,cs,{
"Letterink-NibData" = {
AngleInDegrees = "270";
};
}),
(462,722,o),
(449,713,o),
(444,702,cs,{
"Letterink-NibData" = {
AngleInDegrees = "204.7751464843749";
};
}),
(426,663,o),
(390,639,o),
(346,639,cs,{
"Letterink-NibData" = {
AngleInDegrees = "270";
};
}),
(303,639,o),
(271,662,o),
(255,701,cs,{
"Letterink-NibData" = {
AngleInDegrees = "337.3801371810667";
};
}),
(250,713,o),
(238,721,o),
(224,721,cs,{
"Letterink-NibData" = {
AngleInDegrees = "270";
};
}),
(206,721,o),
(191,707,o),
(191,688,cs,{
"Letterink-NibData" = {
AngleInDegrees = "180";
};
}),
(191,684,o),
(192,680,o),
(193,676,c,{
"Letterink-NibData" = {
AngleInDegrees = "158.0394348510806";
};
})
);
}
);
};
layerId = m01;
shapes = (
{
ref = a;
},
{
pos = (54,-183);
ref = brevecomb;
}
);
width = 732;
}
);
metricLeft = a;
metricRight = a;
note = abreve;
unicode = 259;
},
{
glyphname = abreveacute;
kernLeft = KO_a;
kernRight = KO_a;
lastChange = "2024-09-04 05:27:00 +0000";
layers = (
{
background = {
shapes = (
{
closed = 1;
nodes = (
(217,614,o),
(277,571,o),
(346,571,cs,{
"Letterink-NibData" = {
AngleInDegrees = "90";
};
}),
(428,571,o),
(492,633,o),
(506,673,cs,{
"Letterink-NibData" = {
AngleInDegrees = "18.43495300275481";
};
}),
(508,678,o),
(509,684,o),
(509,688,cs),
(509,706,o),
(493,722,o),
(475,722,cs,{
"Letterink-NibData" = {
AngleInDegrees = "270";
};
}),
(461,722,o),
(448,713,o),
(443,702,cs,{
"Letterink-NibData" = {
AngleInDegrees = "204.7751464843749";
};
}),
(425,663,o),
(389,639,o),
(345,639,cs,{
"Letterink-NibData" = {
AngleInDegrees = "270";
};
}),
(302,639,o),
(270,662,o),
(254,701,cs,{
"Letterink-NibData" = {
AngleInDegrees = "337.3801371810667";
};
}),
(249,713,o),
(237,721,o),
(223,721,cs,{
"Letterink-NibData" = {
AngleInDegrees = "270";
};
}),
(205,721,o),
(190,707,o),
(190,688,cs,{
"Letterink-NibData" = {
AngleInDegrees = "180";
};
}),
(190,684,o),
(191,680,o),
(192,676,c,{
"Letterink-NibData" = {
AngleInDegrees = "158.0394348510806";
};
})
);
},
{
closed = 1;
nodes = (
(339,735,o),
(346,738,o),
(352,743,cs,{
"Letterink-NibData" = {
AngleInDegrees = "50.81010055541992";
};
}),
(509,871,ls,{
"Letterink-NibData" = {
AngleInDegrees = "51.34019088745117";
};
}),
(519,879,o),
(522,889,o),
(522,898,cs),
(522,917,o),
(507,933,o),
(487,933,cs,{
"Letterink-NibData" = {
AngleInDegrees = "270";
};
}),
(479,933,o),
(471,930,o),
(465,925,cs,{
"Letterink-NibData" = {
AngleInDegrees = "230.1944293285419";
};
}),
(309,795,ls,{
"Letterink-NibData" = {
AngleInDegrees = "229.3987121582032";
};
}),
(302,789,o),
(297,780,o),
(297,769,cs,{
"Letterink-NibData" = {
AngleInDegrees = "180";
};
}),
(297,751,o),
(312,735,o),
(331,735,cs,{
"Letterink-NibData" = {
AngleInDegrees = "90";
};
})
);
},
{
pos = (1,0);
ref = a;
}
);
};
layerId = m01;
shapes = (
{
ref = a;
},
{
pos = (54,-183);
ref = brevecomb_acutecomb;
}
);
width = 732;
}
);
metricLeft = a;
metricRight = a;
note = uni1EAF;
unicode = 7855;
},
{
glyphname = abrevedotbelow;
kernLeft = KO_a;
kernRight = KO_a;
lastChange = "2024-08-20 10:15:30 +0000";
layers = (
{
background = {
shapes = (
{
closed = 1;
nodes = (
(166,-154,o),
(189,-178,o),
(221,-178,cs,{
"Letterink-NibData" = {
AngleInDegrees = "90";
};
}),
(262,-178,o),
(295,-141,o),
(295,-97,cs),
(295,-60,o),
(272,-41,o),
(240,-41,cs,{
"Letterink-NibData" = {
AngleInDegrees = "270";
};
}),
(198,-41,o),
(166,-73,o),
(166,-116,cs,{
"Letterink-NibData" = {
AngleInDegrees = "180";
};
})
);
},
{
closed = 1;
nodes = (
(217,614,o),
(277,571,o),
(346,571,cs,{
"Letterink-NibData" = {
AngleInDegrees = "90";
};
}),
(428,571,o),
(492,633,o),
(506,673,cs,{
"Letterink-NibData" = {
AngleInDegrees = "18.43495300275481";
};
}),
(508,678,o),
(509,684,o),
(509,688,cs),
(509,706,o),
(493,722,o),
(475,722,cs,{
"Letterink-NibData" = {
AngleInDegrees = "270";
};
}),
(461,722,o),
(448,713,o),
(443,702,cs,{
"Letterink-NibData" = {
AngleInDegrees = "204.7751464843749";
};
}),
(425,663,o),
(389,639,o),
(345,639,cs,{
"Letterink-NibData" = {
AngleInDegrees = "270";
};
}),
(302,639,o),
(270,662,o),
(254,701,cs,{
"Letterink-NibData" = {
AngleInDegrees = "337.3801371810667";
};
}),
(249,713,o),
(237,721,o),
(223,721,cs,{
"Letterink-NibData" = {
AngleInDegrees = "270";
};
}),
(205,721,o),
(190,707,o),
(190,688,cs,{
"Letterink-NibData" = {
AngleInDegrees = "180";
};
}),
(190,684,o),
(191,680,o),
(192,676,c,{
"Letterink-NibData" = {
AngleInDegrees = "158.0394348510806";
};
})
);
},
{
pos = (1,0);
ref = a;
}
);
};
layerId = m01;
shapes = (
{
ref = abreve;
},
{
pos = (-26,-21);
ref = dotbelowcomb;
}
);
width = 732;
}
);
metricLeft = a;
metricRight = a;
note = uni1EB7;
unicode = 7863;
},
{
glyphname = abrevegrave;
kernLeft = KO_a;
kernRight = KO_a;
lastChange = "2024-08-20 10:15:30 +0000";
layers = (
{
background = {
shapes = (
{
closed = 1;
nodes = (
(350,743,ls,{
"Letterink-NibData" = {
AngleInDegrees = "129.8055725097656";
};
}),
(356,738,o),
(363,736,o),
(371,736,cs,{
"Letterink-NibData" = {
AngleInDegrees = "90";
};
}),
(390,736,o),
(405,751,o),
(405,769,cs),
(405,780,o),
(400,789,o),
(393,795,cs,{
"Letterink-NibData" = {
AngleInDegrees = "309.8055725097656";
};
}),
(237,925,ls,{
"Letterink-NibData" = {
AngleInDegrees = "309.8055725097656";
};
}),
(231,930,o),
(223,933,o),
(215,933,cs,{
"Letterink-NibData" = {
AngleInDegrees = "270";
};
}),
(195,933,o),
(180,917,o),
(180,898,cs,{
"Letterink-NibData" = {
AngleInDegrees = "180";
};
}),
(180,889,o),
(183,879,o),
(193,871,cs,{
"Letterink-NibData" = {
AngleInDegrees = "129.1899008347677";
};
})
);
},
{
closed = 1;
nodes = (
(217,614,o),
(277,571,o),
(346,571,cs,{
"Letterink-NibData" = {
AngleInDegrees = "90";
};
}),
(428,571,o),
(492,633,o),
(506,673,cs,{
"Letterink-NibData" = {
AngleInDegrees = "18.43495300275481";
};
}),
(508,678,o),
(509,684,o),
(509,688,cs),
(509,706,o),
(493,722,o),
(475,722,cs,{
"Letterink-NibData" = {
AngleInDegrees = "270";
};
}),
(461,722,o),
(448,713,o),
(443,702,cs,{
"Letterink-NibData" = {
AngleInDegrees = "204.7751464843749";
};
}),
(425,663,o),
(389,639,o),
(345,639,cs,{
"Letterink-NibData" = {
AngleInDegrees = "270";
};
}),
(302,639,o),
(270,662,o),
(254,701,cs,{
"Letterink-NibData" = {
AngleInDegrees = "337.3801371810667";
};
}),
(249,713,o),
(237,721,o),
(223,721,cs,{
"Letterink-NibData" = {
AngleInDegrees = "270";
};
}),
(205,721,o),
(190,707,o),
(190,688,cs,{
"Letterink-NibData" = {
AngleInDegrees = "180";
};
}),
(190,684,o),
(191,680,o),
(192,676,c,{
"Letterink-NibData" = {
AngleInDegrees = "158.0394348510806";
};
})
);
}
);
};
layerId = m01;
shapes = (
{
ref = a;
},
{
pos = (54,-183);
ref = brevecomb_gravecomb;
}
);
width = 732;
}
);
metricLeft = a;
metricRight = a;
note = uni1EB1;
unicode = 7857;
},
{
glyphname = abrevehookabove;
kernLeft = KO_a;
kernRight = KO_a;
lastChange = "2024-08-22 03:59:06 +0000";
layers = (
{
background = {
shapes = (
{
closed = 1;
nodes = (
(217,614,o),
(277,571,o),
(346,571,cs,{
"Letterink-NibData" = {
AngleInDegrees = "90";
};
}),
(428,571,o),
(492,633,o),
(506,673,cs,{
"Letterink-NibData" = {
AngleInDegrees = "18.43495300275481";
};
}),
(508,678,o),
(509,684,o),
(509,688,cs),
(509,706,o),
(493,722,o),
(475,722,cs,{
"Letterink-NibData" = {
AngleInDegrees = "270";
};
}),
(461,722,o),
(448,713,o),
(443,702,cs,{
"Letterink-NibData" = {
AngleInDegrees = "204.7751464843749";
};
}),
(425,663,o),
(389,639,o),
(345,639,cs,{
"Letterink-NibData" = {
AngleInDegrees = "270";
};
}),
(302,639,o),
(270,662,o),
(254,701,cs,{
"Letterink-NibData" = {
AngleInDegrees = "337.3801371810667";
};
}),
(249,713,o),
(237,721,o),
(223,721,cs,{
"Letterink-NibData" = {
AngleInDegrees = "270";
};
}),
(205,721,o),
(190,707,o),
(190,688,cs,{
"Letterink-NibData" = {
AngleInDegrees = "180";
};
}),
(190,684,o),
(191,680,o),
(192,676,c,{
"Letterink-NibData" = {
AngleInDegrees = "158.0394348510806";
};
})
);
},
{
closed = 1;
nodes = (
(305,857,o),
(311,859,o),
(316,862,cs,{
"Letterink-NibData" = {
AngleInDegrees = "57.99462127685558";
};
}),
(324,867,o),
(345,885,o),
(367,885,cs,{
"Letterink-NibData" = {
AngleInDegrees = "90";
};
}),
(382,885,o),
(397,876,o),
(397,854,cs,{
"Letterink-NibData" = {
AngleInDegrees = "180";
};
}),
(397,834,o),
(384,811,o),
(358,782,cs,{
"Letterink-NibData" = {
AngleInDegrees = "225.0000000000001";
};
}),
(353,777,o),
(350,770,o),
(350,763,cs,{
"Letterink-NibData" = {
AngleInDegrees = "180";
};
}),
(350,746,o),
(363,733,o),
(380,733,cs,{
"Letterink-NibData" = {
AngleInDegrees = "90";
};
}),
(388,733,o),
(395,736,o),
(400,741,cs,{
"Letterink-NibData" = {
AngleInDegrees = "45.67404174804682";
};
}),
(443,783,o),
(464,820,o),
(464,860,cs),
(464,913,o),
(428,949,o),
(375,949,cs,{
"Letterink-NibData" = {
AngleInDegrees = "270";
};
}),
(347,949,o),
(321,939,o),
(281,912,cs,{
"Letterink-NibData" = {
AngleInDegrees = "236.3099365234376";
};
}),
(272,906,o),
(268,896,o),
(268,887,cs,{
"Letterink-NibData" = {
AngleInDegrees = "180";
};
}),
(268,870,o),
(282,857,o),
(298,857,cs,{
"Letterink-NibData" = {
AngleInDegrees = "90";
};
})
);
},
{
pos = (1,0);
ref = a;
}
);
};
layerId = m01;
shapes = (
{
ref = a;
},
{
pos = (54,-183);
ref = brevecomb_hookabovecomb;
}
);
width = 732;
}
);
metricLeft = a;
metricRight = a;
note = uni1EB3;
unicode = 7859;
},
{
glyphname = abrevetilde;
kernLeft = KO_a;
kernRight = KO_a;
lastChange = "2024-08-22 03:56:44 +0000";
layers = (
{
background = {
shapes = (
{
closed = 1;
nodes = (
(217,614,o),
(277,571,o),
(346,571,cs,{
"Letterink-NibData" = {
AngleInDegrees = "90";
};
}),
(428,571,o),
(492,633,o),
(506,673,cs,{
"Letterink-NibData" = {
AngleInDegrees = "18.43495300275481";
};
}),
(508,678,o),
(509,684,o),
(509,688,cs),
(509,706,o),
(493,722,o),
(475,722,cs,{
"Letterink-NibData" = {
AngleInDegrees = "270";
};
}),
(461,722,o),
(448,713,o),
(443,702,cs,{
"Letterink-NibData" = {
AngleInDegrees = "204.7751464843749";
};
}),
(425,663,o),
(389,639,o),
(345,639,cs,{
"Letterink-NibData" = {
AngleInDegrees = "270";
};
}),
(302,639,o),
(270,662,o),
(254,701,cs,{
"Letterink-NibData" = {
AngleInDegrees = "337.3801371810667";
};
}),
(249,713,o),
(237,721,o),
(223,721,cs,{
"Letterink-NibData" = {
AngleInDegrees = "270";
};
}),
(205,721,o),
(190,707,o),
(190,688,cs,{
"Letterink-NibData" = {
AngleInDegrees = "180";
};
}),
(190,684,o),
(191,680,o),
(192,676,c,{
"Letterink-NibData" = {
AngleInDegrees = "158.0394348510806";
};
})
);
},
{
closed = 1;
nodes = (
(309,766,o),
(322,777,o),
(326,791,cs,{
"Letterink-NibData" = {
AngleInDegrees = "15.25512027740484";
};
}),
(332,813,o),
(344,825,o),
(361,825,cs,{
"Letterink-NibData" = {
AngleInDegrees = "90";
};
}),
(400,825,o),
(445,761,o),
(504,761,cs,{
"Letterink-NibData" = {
AngleInDegrees = "90";
};
}),
(561,761,o),
(587,820,o),
(591,846,cs,{
"Letterink-NibData" = {
AngleInDegrees = "8.426969528198242";
};
}),
(595,873,o),
(577,887,o),
(559,887,cs,{
"Letterink-NibData" = {
AngleInDegrees = "270";
};
}),
(543,887,o),
(530,876,o),
(527,862,cs,{
"Letterink-NibData" = {
AngleInDegrees = "194.0362411455732";
};
}),
(521,838,o),
(511,826,o),
(498,826,cs,{
"Letterink-NibData" = {
AngleInDegrees = "270";
};
}),
(469,826,o),
(412,892,o),
(352,892,cs,{
"Letterink-NibData" = {
AngleInDegrees = "270";
};
}),
(294,892,o),
(264,832,o),
(260,808,cs,{
"Letterink-NibData" = {
AngleInDegrees = "189.4623260498047";
};
}),
(256,784,o),
(272,766,o),
(293,766,cs,{
"Letterink-NibData" = {
AngleInDegrees = "90";
};
})
);
},
{
pos = (1,0);
ref = a;
}
);
};
layerId = m01;
shapes = (
{
ref = a;
},
{
pos = (54,-183);
ref = brevecomb_tildecomb;
}
);
width = 732;
}
);
metricLeft = a;
metricRight = a;
note = uni1EB5;
unicode = 7861;
},
{
glyphname = acircumflex;
kernLeft = KO_a;
kernRight = KO_a;
lastChange = "2024-08-20 10:15:30 +0000";
layers = (
{
background = {
shapes = (
{
pos = (-11,0);
ref = a;
},
{
closed = 1;
nodes = (
(208,594,o),
(213,595,o),
(217,597,cs,{
"Letterink-NibData" = {
AngleInDegrees = "63.43495178222662";
};
}),
(335,656,l,{
"Letterink-NibData" = {
AngleInDegrees = "130.364536277659";
};
}),
(415,588,ls,{
"Letterink-NibData" = {
AngleInDegrees = "129.8055725097656";
};
}),
(421,583,o),
(428,580,o),
(436,580,cs,{
"Letterink-NibData" = {
AngleInDegrees = "90";
};
}),
(454,580,o),
(468,595,o),
(468,612,cs),
(468,622,o),
(464,631,o),
(457,637,cs,{
"Letterink-NibData" = {
AngleInDegrees = "310.9143981933599";
};
}),
(352,728,ls,{
"Letterink-NibData" = {
AngleInDegrees = "315.0000012522391";
};
}),
(348,732,o),
(343,732,o),
(339,730,cs,{
"Letterink-NibData" = {
AngleInDegrees = "243.8920898437499";
};
}),
(188,656,ls,{
"Letterink-NibData" = {
AngleInDegrees = "245.5560455322266";
};
}),
(177,651,o),
(169,640,o),
(169,627,cs,{
"Letterink-NibData" = {
AngleInDegrees = "180";
};
}),
(169,608,o),
(184,594,o),
(202,594,cs,{
"Letterink-NibData" = {
AngleInDegrees = "90";
};
})
);
}
);
};
layerId = m01;
shapes = (
{
ref = a;
},
{
pos = (43,-183);
ref = circumflexcomb;
}
);
width = 732;
}
);
metricLeft = a;
metricRight = a;
note = acircumflex;
unicode = 226;
},
{
glyphname = acircumflexacute;
kernLeft = KO_a;
kernRight = KO_a;
lastChange = "2024-08-20 10:15:30 +0000";
layers = (
{
background = {
shapes = (
{
closed = 1;
nodes = (
(172,709,o),
(179,712,o),
(185,717,cs,{
"Letterink-NibData" = {
AngleInDegrees = "50.81010055541992";
};
}),
(342,845,ls,{
"Letterink-NibData" = {
AngleInDegrees = "51.34019088745117";
};
}),
(352,853,o),
(355,863,o),
(355,872,cs),
(355,891,o),
(340,907,o),
(320,907,cs,{
"Letterink-NibData" = {
AngleInDegrees = "270";
};
}),
(312,907,o),
(304,904,o),
(298,899,cs,{
"Letterink-NibData" = {
AngleInDegrees = "230.1944293285419";
};
}),
(142,769,ls,{
"Letterink-NibData" = {
AngleInDegrees = "229.3987121582032";
};
}),
(135,763,o),
(130,754,o),
(130,743,cs,{
"Letterink-NibData" = {
AngleInDegrees = "180";
};
}),
(130,725,o),
(145,709,o),
(164,709,cs,{
"Letterink-NibData" = {
AngleInDegrees = "90";
};
})
);
},
{
closed = 1;
nodes = (
(219,594,o),
(224,595,o),
(228,597,cs,{
"Letterink-NibData" = {
AngleInDegrees = "63.43495178222662";
};
}),
(346,656,l,{
"Letterink-NibData" = {
AngleInDegrees = "130.364536277659";
};
}),
(426,588,ls,{
"Letterink-NibData" = {
AngleInDegrees = "129.8055725097656";
};
}),
(432,583,o),
(439,580,o),
(447,580,cs,{
"Letterink-NibData" = {
AngleInDegrees = "90";
};
}),
(465,580,o),
(479,595,o),
(479,612,cs),
(479,622,o),
(475,631,o),
(468,637,cs,{
"Letterink-NibData" = {
AngleInDegrees = "310.9143981933599";
};
}),
(363,728,ls,{
"Letterink-NibData" = {
AngleInDegrees = "315.0000012522391";
};
}),
(359,732,o),
(354,732,o),
(350,730,cs,{
"Letterink-NibData" = {
AngleInDegrees = "243.8920898437499";
};
}),
(199,656,ls,{
"Letterink-NibData" = {
AngleInDegrees = "245.5560455322266";
};
}),
(188,651,o),
(180,640,o),
(180,627,cs,{
"Letterink-NibData" = {
AngleInDegrees = "180";
};
}),
(180,608,o),
(195,594,o),
(213,594,cs,{
"Letterink-NibData" = {
AngleInDegrees = "90";
};
})
);
},
{
pos = (1,0);
ref = a;
}
);
};
layerId = m01;
shapes = (
{
ref = a;
},
{
pos = (43,-183);
ref = circumflexcomb_acutecomb;
}
);
width = 732;
}
);
metricLeft = a;
metricRight = a;
note = uni1EA5;
unicode = 7845;
},
{
glyphname = acircumflexdotbelow;
kernLeft = KO_a;
kernRight = KO_a;
lastChange = "2024-08-20 10:15:30 +0000";
layers = (
{
background = {
shapes = (
{
closed = 1;
nodes = (
(166,-154,o),
(189,-178,o),
(221,-178,cs,{
"Letterink-NibData" = {
AngleInDegrees = "90";
};
}),
(262,-178,o),
(295,-141,o),
(295,-97,cs),
(295,-60,o),
(272,-41,o),
(240,-41,cs,{
"Letterink-NibData" = {
AngleInDegrees = "270";
};
}),
(198,-41,o),
(166,-73,o),
(166,-116,cs,{
"Letterink-NibData" = {
AngleInDegrees = "180";
};
})
);
},
{
closed = 1;
nodes = (
(219,594,o),
(224,595,o),
(228,597,cs,{
"Letterink-NibData" = {
AngleInDegrees = "63.43495178222662";
};
}),
(346,656,l,{
"Letterink-NibData" = {
AngleInDegrees = "130.364536277659";
};
}),
(426,588,ls,{
"Letterink-NibData" = {
AngleInDegrees = "129.8055725097656";
};
}),
(432,583,o),
(439,580,o),
(447,580,cs,{
"Letterink-NibData" = {
AngleInDegrees = "90";
};
}),
(465,580,o),
(479,595,o),
(479,612,cs),
(479,622,o),
(475,631,o),
(468,637,cs,{
"Letterink-NibData" = {
AngleInDegrees = "310.9143981933599";
};
}),
(363,728,ls,{
"Letterink-NibData" = {
AngleInDegrees = "315.0000012522391";
};
}),
(359,732,o),
(354,732,o),
(350,730,cs,{
"Letterink-NibData" = {
AngleInDegrees = "243.8920898437499";
};
}),
(199,656,ls,{
"Letterink-NibData" = {
AngleInDegrees = "245.5560455322266";
};
}),
(188,651,o),
(180,640,o),
(180,627,cs,{
"Letterink-NibData" = {
AngleInDegrees = "180";
};
}),
(180,608,o),
(195,594,o),
(213,594,cs,{
"Letterink-NibData" = {
AngleInDegrees = "90";
};
})
);
},
{
pos = (1,0);
ref = a;
}
);
};
layerId = m01;
shapes = (
{
ref = acircumflex;
},
{
pos = (-26,-21);
ref = dotbelowcomb;
}
);
width = 732;
}
);
metricLeft = a;
metricRight = a;
note = uni1EAD;
unicode = 7853;
},
{
glyphname = acircumflexgrave;
kernLeft = KO_a;
kernRight = KO_a;
lastChange = "2024-09-04 05:25:23 +0000";
layers = (
{
background = {
shapes = (
{
closed = 1;
nodes = (
(219,594,o),
(224,595,o),
(228,597,cs,{
"Letterink-NibData" = {
AngleInDegrees = "63.43495178222662";
};
}),
(346,656,l,{
"Letterink-NibData" = {
AngleInDegrees = "130.364536277659";
};
}),
(426,588,ls,{
"Letterink-NibData" = {
AngleInDegrees = "129.8055725097656";
};
}),
(432,583,o),
(439,580,o),
(447,580,cs,{
"Letterink-NibData" = {
AngleInDegrees = "90";
};
}),
(465,580,o),
(479,595,o),
(479,612,cs),
(479,622,o),
(475,631,o),
(468,637,cs,{
"Letterink-NibData" = {
AngleInDegrees = "310.9143981933599";
};
}),
(363,728,ls,{
"Letterink-NibData" = {
AngleInDegrees = "315.0000012522391";
};
}),
(359,732,o),
(354,732,o),
(350,730,cs,{
"Letterink-NibData" = {
AngleInDegrees = "243.8920898437499";
};
}),
(199,656,ls,{
"Letterink-NibData" = {
AngleInDegrees = "245.5560455322266";
};
}),
(188,651,o),
(180,640,o),
(180,627,cs,{
"Letterink-NibData" = {
AngleInDegrees = "180";
};
}),
(180,608,o),
(195,594,o),
(213,594,cs,{
"Letterink-NibData" = {
AngleInDegrees = "90";
};
})
);
},
{
closed = 1;
nodes = (
(510,717,ls,{
"Letterink-NibData" = {
AngleInDegrees = "129.8055725097656";
};
}),
(516,712,o),
(523,710,o),
(531,710,cs,{
"Letterink-NibData" = {
AngleInDegrees = "90";
};
}),
(550,710,o),
(565,725,o),
(565,743,cs),
(565,754,o),
(560,763,o),
(553,769,cs,{
"Letterink-NibData" = {
AngleInDegrees = "309.8055725097656";
};
}),
(397,899,ls,{
"Letterink-NibData" = {
AngleInDegrees = "309.8055725097656";
};
}),
(391,904,o),
(383,907,o),
(375,907,cs,{
"Letterink-NibData" = {
AngleInDegrees = "270";
};
}),
(355,907,o),
(340,891,o),
(340,872,cs,{
"Letterink-NibData" = {
AngleInDegrees = "180";
};
}),
(340,863,o),
(343,853,o),
(353,845,cs,{
"Letterink-NibData" = {
AngleInDegrees = "129.1899008347677";
};
})
);
},
{
pos = (1,0);
ref = a;
}
);
};
layerId = m01;
shapes = (
{
ref = a;
},
{
pos = (43,-183);
ref = circumflexcomb_gravecomb;
}
);
width = 732;
}
);
metricLeft = a;
metricRight = a;
note = uni1EA7;
unicode = 7847;
},
{
glyphname = acircumflexhookabove;
kernLeft = KO_a;
kernRight = KO_a;
lastChange = "2024-09-04 04:53:15 +0000";
layers = (
{
background = {
shapes = (
{
closed = 1;
nodes = (
(219,594,o),
(224,595,o),
(228,597,cs,{
"Letterink-NibData" = {
AngleInDegrees = "63.43495178222662";
};
}),
(346,656,l,{
"Letterink-NibData" = {
AngleInDegrees = "130.364536277659";
};
}),
(426,588,ls,{
"Letterink-NibData" = {
AngleInDegrees = "129.8055725097656";
};
}),
(432,583,o),
(439,580,o),
(447,580,cs,{
"Letterink-NibData" = {
AngleInDegrees = "90";
};
}),
(465,580,o),
(479,595,o),
(479,612,cs),
(479,622,o),
(475,631,o),
(468,637,cs,{
"Letterink-NibData" = {
AngleInDegrees = "310.9143981933599";
};
}),
(363,728,ls,{
"Letterink-NibData" = {
AngleInDegrees = "315.0000012522391";
};
}),
(359,732,o),
(354,732,o),
(350,730,cs,{
"Letterink-NibData" = {
AngleInDegrees = "243.8920898437499";
};
}),
(199,656,ls,{
"Letterink-NibData" = {
AngleInDegrees = "245.5560455322266";
};
}),
(188,651,o),
(180,640,o),
(180,627,cs,{
"Letterink-NibData" = {
AngleInDegrees = "180";
};
}),
(180,608,o),
(195,594,o),
(213,594,cs,{
"Letterink-NibData" = {
AngleInDegrees = "90";
};
})
);
},
{
closed = 1;
nodes = (
(438,806,o),
(444,808,o),
(449,811,cs,{
"Letterink-NibData" = {
AngleInDegrees = "57.99462127685558";
};
}),
(457,816,o),
(478,834,o),
(500,834,cs,{
"Letterink-NibData" = {
AngleInDegrees = "90";
};
}),
(515,834,o),
(530,825,o),
(530,803,cs,{
"Letterink-NibData" = {
AngleInDegrees = "180";
};
}),
(530,783,o),
(517,760,o),
(491,731,cs,{
"Letterink-NibData" = {
AngleInDegrees = "225.0000000000001";
};
}),
(486,726,o),
(483,719,o),
(483,712,cs,{
"Letterink-NibData" = {
AngleInDegrees = "180";
};
}),
(483,695,o),
(496,682,o),
(513,682,cs,{
"Letterink-NibData" = {
AngleInDegrees = "90";
};
}),
(521,682,o),
(528,685,o),
(533,690,cs,{
"Letterink-NibData" = {
AngleInDegrees = "45.67404174804682";
};
}),
(576,732,o),
(597,769,o),
(597,809,cs),
(597,862,o),
(561,898,o),
(508,898,cs,{
"Letterink-NibData" = {
AngleInDegrees = "270";
};
}),
(480,898,o),
(454,888,o),
(414,861,cs,{
"Letterink-NibData" = {
AngleInDegrees = "236.3099365234376";
};
}),
(405,855,o),
(401,845,o),
(401,836,cs,{
"Letterink-NibData" = {
AngleInDegrees = "180";
};
}),
(401,819,o),
(415,806,o),
(431,806,cs,{
"Letterink-NibData" = {
AngleInDegrees = "90";
};
})
);
}
);
};
layerId = m01;
shapes = (
{
ref = a;
},
{
pos = (43,-183);
ref = circumflexcomb_hookabovecomb;
}
);
width = 732;
}
);
metricLeft = a;
metricRight = a;
note = uni1EA9;
unicode = 7849;
},
{
glyphname = acircumflextilde;
kernLeft = KO_a;
kernRight = KO_a;
lastChange = "2024-08-20 10:15:30 +0000";
layers = (
{
background = {
shapes = (
{
closed = 1;
nodes = (
(219,594,o),
(224,595,o),
(228,597,cs,{
"Letterink-NibData" = {
AngleInDegrees = "63.43495178222662";
};
}),
(346,656,l,{
"Letterink-NibData" = {
AngleInDegrees = "130.364536277659";
};
}),
(426,588,ls,{
"Letterink-NibData" = {
AngleInDegrees = "129.8055725097656";
};
}),
(432,583,o),
(439,580,o),
(447,580,cs,{
"Letterink-NibData" = {
AngleInDegrees = "90";
};
}),
(465,580,o),
(479,595,o),
(479,612,cs),
(479,622,o),
(475,631,o),
(468,637,cs,{
"Letterink-NibData" = {
AngleInDegrees = "310.9143981933599";
};
}),
(363,728,ls,{
"Letterink-NibData" = {
AngleInDegrees = "315.0000012522391";
};
}),
(359,732,o),
(354,732,o),
(350,730,cs,{
"Letterink-NibData" = {
AngleInDegrees = "243.8920898437499";
};
}),
(199,656,ls,{
"Letterink-NibData" = {
AngleInDegrees = "245.5560455322266";
};
}),
(188,651,o),
(180,640,o),
(180,627,cs,{
"Letterink-NibData" = {
AngleInDegrees = "180";
};
}),
(180,608,o),
(195,594,o),
(213,594,cs,{
"Letterink-NibData" = {
AngleInDegrees = "90";
};
})
);
},
{
closed = 1;
nodes = (
(271,753,o),
(284,764,o),
(288,778,cs,{
"Letterink-NibData" = {
AngleInDegrees = "15.25512027740484";
};
}),
(294,800,o),
(306,812,o),
(323,812,cs,{
"Letterink-NibData" = {
AngleInDegrees = "90";
};
}),
(362,812,o),
(407,748,o),
(466,748,cs,{
"Letterink-NibData" = {
AngleInDegrees = "90";
};
}),
(523,748,o),
(549,807,o),
(553,833,cs,{
"Letterink-NibData" = {
AngleInDegrees = "8.426969528198242";
};
}),
(557,860,o),
(539,874,o),
(521,874,cs,{
"Letterink-NibData" = {
AngleInDegrees = "270";
};
}),
(505,874,o),
(492,863,o),
(489,849,cs,{
"Letterink-NibData" = {
AngleInDegrees = "194.0362411455732";
};
}),
(483,825,o),
(473,813,o),
(460,813,cs,{
"Letterink-NibData" = {
AngleInDegrees = "270";
};
}),
(431,813,o),
(374,879,o),
(314,879,cs,{
"Letterink-NibData" = {
AngleInDegrees = "270";
};
}),
(256,879,o),
(226,819,o),
(222,795,cs,{
"Letterink-NibData" = {
AngleInDegrees = "189.4623260498047";
};
}),
(218,771,o),
(234,753,o),
(255,753,cs,{
"Letterink-NibData" = {
AngleInDegrees = "90";
};
})
);
}
);
};
layerId = m01;
shapes = (
{
ref = a;
},
{
pos = (43,-183);
ref = circumflexcomb_tildecomb;
}
);
width = 732;
}
);
metricLeft = a;
metricRight = a;
note = uni1EAB;
unicode = 7851;
},
{
glyphname = adotbelow;
kernLeft = KO_a;
kernRight = KO_a;
lastChange = "2024-08-20 10:15:30 +0000";
layers = (
{
background = {
shapes = (
{
closed = 1;
nodes = (
(166,-154,o),
(189,-178,o),
(221,-178,cs,{
"Letterink-NibData" = {
AngleInDegrees = "90";
};
}),
(262,-178,o),
(295,-141,o),
(295,-97,cs),
(295,-60,o),
(272,-41,o),
(240,-41,cs,{
"Letterink-NibData" = {
AngleInDegrees = "270";
};
}),
(198,-41,o),
(166,-73,o),
(166,-116,cs,{
"Letterink-NibData" = {
AngleInDegrees = "180";
};
})
);
},
{
pos = (1,0);
ref = a;
}
);
};
layerId = m01;
shapes = (
{
ref = a;
},
{
pos = (-26,-21);
ref = dotbelowcomb;
}
);
width = 732;
}
);
metricLeft = a;
metricRight = a;
note = uni1EA1;
unicode = 7841;
},
{
glyphname = agrave;
kernLeft = KO_a;
kernRight = KO_a;
lastChange = "2024-09-04 03:39:16 +0000";
layers = (
{
background = {
shapes = (
{
pos = (2,0);
ref = a;
},
{
closed = 1;
nodes = (
(405,573,ls,{
"Letterink-NibData" = {
AngleInDegrees = "125.5376815795898";
};
}),
(412,568,o),
(417,566,o),
(424,566,cs,{
"Letterink-NibData" = {
AngleInDegrees = "90";
};
}),
(443,566,o),
(458,582,o),
(458,601,cs),
(458,611,o),
(454,621,o),
(444,628,cs,{
"Letterink-NibData" = {
AngleInDegrees = "305.9650065275787";
};
}),
(280,747,ls,{
"Letterink-NibData" = {
AngleInDegrees = "305.5376892089841";
};
}),
(273,752,o),
(267,754,o),
(260,754,cs,{
"Letterink-NibData" = {
AngleInDegrees = "270";
};
}),
(241,754,o),
(226,738,o),
(226,720,cs,{
"Letterink-NibData" = {
AngleInDegrees = "180";
};
}),
(226,710,o),
(230,698,o),
(240,691,cs,{
"Letterink-NibData" = {
AngleInDegrees = "125.5705118765917";
};
})
);
}
);
};
layerId = m01;
shapes = (
{
ref = a;
},
{
pos = (97,-153);
ref = gravecomb;
}
);
width = 732;
}
);
metricLeft = a;
metricRight = a;
note = agrave;
unicode = 224;
},
{
glyphname = ahookabove;
kernLeft = KO_a;
kernRight = KO_a;
lastChange = "2024-08-22 03:58:48 +0000";
layers = (
{
background = {
shapes = (
{
closed = 1;
nodes = (
(273,702,o),
(279,704,o),
(284,707,cs,{
"Letterink-NibData" = {
AngleInDegrees = "57.99462127685558";
};
}),
(292,712,o),
(313,730,o),
(335,730,cs,{
"Letterink-NibData" = {
AngleInDegrees = "90";
};
}),
(350,730,o),
(365,721,o),
(365,699,cs,{
"Letterink-NibData" = {
AngleInDegrees = "180";
};
}),
(365,679,o),
(352,656,o),
(326,627,cs,{
"Letterink-NibData" = {
AngleInDegrees = "225.0000000000001";
};
}),
(321,622,o),
(318,615,o),
(318,608,cs,{
"Letterink-NibData" = {
AngleInDegrees = "180";
};
}),
(318,591,o),
(331,578,o),
(348,578,cs,{
"Letterink-NibData" = {
AngleInDegrees = "90";
};
}),
(356,578,o),
(363,581,o),
(368,586,cs,{
"Letterink-NibData" = {
AngleInDegrees = "45.67404174804682";
};
}),
(411,628,o),
(432,665,o),
(432,705,cs),
(432,758,o),
(396,794,o),
(343,794,cs,{
"Letterink-NibData" = {
AngleInDegrees = "270";
};
}),
(315,794,o),
(289,784,o),
(249,757,cs,{
"Letterink-NibData" = {
AngleInDegrees = "236.3099365234376";
};
}),
(240,751,o),
(236,741,o),
(236,732,cs,{
"Letterink-NibData" = {
AngleInDegrees = "180";
};
}),
(236,715,o),
(250,702,o),
(266,702,cs,{
"Letterink-NibData" = {
AngleInDegrees = "90";
};
})
);
},
{
pos = (1,0);
ref = a;
}
);
};
layerId = m01;
shapes = (
{
ref = a;
},
{
pos = (97,-153);
ref = hookabovecomb;
}
);
width = 732;
}
);
metricLeft = a;
metricRight = a;
note = uni1EA3;
unicode = 7843;
},
{
glyphname = atilde;
kernLeft = KO_a;
kernRight = KO_a;
lastChange = "2024-08-20 10:15:30 +0000";
layers = (
{
background = {
shapes = (
{
pos = (1,0);
ref = a;
},
{
closed = 1;
nodes = (
(200,581,o),
(213,592,o),
(217,606,cs,{
"Letterink-NibData" = {
AngleInDegrees = "15.25512027740484";
};
}),
(223,628,o),
(235,640,o),
(252,640,cs,{
"Letterink-NibData" = {
AngleInDegrees = "90";
};
}),
(291,640,o),
(336,576,o),
(395,576,cs,{
"Letterink-NibData" = {
AngleInDegrees = "90";
};
}),
(452,576,o),
(478,635,o),
(482,661,cs,{
"Letterink-NibData" = {
AngleInDegrees = "8.426969528198242";
};
}),
(486,688,o),
(468,702,o),
(450,702,cs,{
"Letterink-NibData" = {
AngleInDegrees = "270";
};
}),
(434,702,o),
(421,691,o),
(418,677,cs,{
"Letterink-NibData" = {
AngleInDegrees = "194.0362411455732";
};
}),
(412,653,o),
(402,641,o),
(389,641,cs,{
"Letterink-NibData" = {
AngleInDegrees = "270";
};
}),
(360,641,o),
(303,707,o),
(243,707,cs,{
"Letterink-NibData" = {
AngleInDegrees = "270";
};
}),
(185,707,o),
(155,647,o),
(151,623,cs,{
"Letterink-NibData" = {
AngleInDegrees = "189.4623260498047";
};
}),
(147,599,o),
(163,581,o),
(184,581,cs,{
"Letterink-NibData" = {
AngleInDegrees = "90";
};
})
);
}
);
};
layerId = m01;
shapes = (
{
ref = a;
},
{
pos = (97,-153);
ref = tildecomb;
}
);
width = 732;
}
);
metricLeft = a;
metricRight = a;
note = atilde;
unicode = 227;
},
{
glyphname = b;
kernLeft = KO_b;
kernRight = KO_b;
lastChange = "2024-09-04 07:40:55 +0000";
layers = (
{
background = {
shapes = (
{
closed = 0;
nodes = (
(776,427,l,{
"Letterink-NibData" = {
AngleInDegrees = "28";
MainAxisWidth = "55";
MinorAxisWidth = "55";
ValidForParentMainAxisWidth = "15";
ValidForParentMinorAxisWidth = "15";
};
"Letterink-NibStyleId" = "1";
}),
(693,289,o),
(539,267,o),
(462,277,cs,{
"Letterink-NibData" = {
AngleInDegrees = "28";
MainAxisWidth = "55";
MinorAxisWidth = "55";
ValidForParentMainAxisWidth = "15";
ValidForParentMinorAxisWidth = "15";
};
"Letterink-NibStyleId" = "1";
}),
(399,285,o),
(355,318,o),
(355,371,cs,{
"Letterink-NibData" = {
AngleInDegrees = "28";
MainAxisWidth = "59";
MinorAxisWidth = "59";
ValidForParentMainAxisWidth = "15";
ValidForParentMinorAxisWidth = "15";
};
"Letterink-NibStyleId" = "2";
}),
(355,413,o),
(385,445,o),
(426,445,cs,{
"Letterink-NibData" = {
AngleInDegrees = "28";
MainAxisWidth = "55";
MinorAxisWidth = "55";
ValidForParentMainAxisWidth = "15";
ValidForParentMinorAxisWidth = "15";
};
"Letterink-NibStyleId" = "1";
}),
(498,445,o),
(528,357,o),
(497,240,cs,{
"Letterink-NibData" = {
AngleInDegrees = "28";
MainAxisWidth = "55";
MinorAxisWidth = "55";
ValidForParentMainAxisWidth = "15";
ValidForParentMinorAxisWidth = "15";
};
"Letterink-NibStyleId" = "1";
}),
(461,108,o),
(377,22,o),
(286,22,cs,{
"Letterink-NibData" = {
AngleInDegrees = "28";
MainAxisWidth = "55";
MinorAxisWidth = "55";
ValidForParentMainAxisWidth = "15";
ValidForParentMinorAxisWidth = "15";
};
"Letterink-NibStyleId" = "1";
}),
(117,22,o),
(114,223,o),
(144,385,cs,{
"Letterink-NibData" = {
AngleInDegrees = "28";
MainAxisWidth = "59";
MinorAxisWidth = "59";
ValidForParentMainAxisWidth = "15";
ValidForParentMinorAxisWidth = "15";
};
"Letterink-NibStyleId" = "2";
}),
(194,661,o),
(263,812,o),
(332,799,cs,{
"Letterink-NibData" = {
AngleInDegrees = "28";
MainAxisWidth = "55";
MinorAxisWidth = "55";
ValidForParentMainAxisWidth = "15";
ValidForParentMinorAxisWidth = "15";
};
"Letterink-NibStyleId" = "1";
}),
(388,789,o),
(376,725,o),
(290,587,cs,{
"Letterink-NibData" = {
AngleInDegrees = "28";
MainAxisWidth = "50";
MinorAxisWidth = "50";
ValidForParentMainAxisWidth = "15";
ValidForParentMinorAxisWidth = "15";
};
"Letterink-NibStyleId" = "1";
}),
(144,355,l,{
"Letterink-NibData" = {
AngleInDegrees = "28";
MainAxisWidth = "59";
MinorAxisWidth = "59";
ValidForParentMainAxisWidth = "15";
ValidForParentMinorAxisWidth = "15";
};
"Letterink-NibStyleId" = "2";
})
);
}
);
};
layerId = m01;
shapes = (
{
closed = 0;
nodes = (
(849,475,l,{
"Letterink-NibData" = {
AngleInDegrees = 28;
MainAxisWidth = 79;
MinorAxisWidth = 79;
ValidForParentMainAxisWidth = 15;
ValidForParentMinorAxisWidth = 15;
};
"Letterink-NibStyleId" = 1;
}),
(759,325,o),
(590,300,o),
(506,312,cs,{
"Letterink-NibData" = {
AngleInDegrees = 28;
MainAxisWidth = 79;
MinorAxisWidth = 79;
ValidForParentMainAxisWidth = 15;
ValidForParentMinorAxisWidth = 15;
};
"Letterink-NibStyleId" = 1;
}),
(437,322,o),
(388,357,o),
(388,415,cs,{
"Letterink-NibData" = {
AngleInDegrees = 28;
MainAxisWidth = 81;
MinorAxisWidth = 81;
ValidForParentMainAxisWidth = 15;
ValidForParentMinorAxisWidth = 15;
};
"Letterink-NibStyleId" = "2";
}),
(388,461,o),
(421,496,o),
(466,496,cs,{
"Letterink-NibData" = {
AngleInDegrees = 28;
MainAxisWidth = 79;
MinorAxisWidth = 79;
ValidForParentMainAxisWidth = 15;
ValidForParentMinorAxisWidth = 15;
};
"Letterink-NibStyleId" = 1;
}),
(545,496,o),
(578,400,o),
(544,271,cs,{
"Letterink-NibData" = {
AngleInDegrees = 28;
MainAxisWidth = 79;
MinorAxisWidth = 79;
ValidForParentMainAxisWidth = 15;
ValidForParentMinorAxisWidth = 15;
};
"Letterink-NibStyleId" = 1;
}),
(503,126,o),
(414,34,o),
(313,34,cs,{
"Letterink-NibData" = {
AngleInDegrees = 28;
MainAxisWidth = 79;
MinorAxisWidth = 79;
ValidForParentMainAxisWidth = 15;
ValidForParentMinorAxisWidth = 15;
};
"Letterink-NibStyleId" = 1;
}),
(152,34,o),
(108,230,o),
(190,575,cs,{
"Letterink-NibData" = {
AngleInDegrees = 28;
MainAxisWidth = 81;
MinorAxisWidth = 81;
ValidForParentMainAxisWidth = 15;
ValidForParentMinorAxisWidth = 15;
};
"Letterink-NibStyleId" = 2;
}),
(235,764,o),
(328,961,o),
(360,950,cs,{
"Letterink-NibData" = {
AngleInDegrees = 28;
MainAxisWidth = 79;
MinorAxisWidth = 79;
ValidForParentMainAxisWidth = 15;
ValidForParentMinorAxisWidth = 15;
};
"Letterink-NibStyleId" = "1";
}),
(391,940,o),
(361,800,o),
(265,633,cs,{
"Letterink-NibData" = {
AngleInDegrees = 28;
MainAxisWidth = 79;
MinorAxisWidth = 79;
ValidForParentMainAxisWidth = 15;
ValidForParentMinorAxisWidth = 15;
};
"Letterink-NibStyleId" = 1;
}),
(174,474,l,{
"Letterink-NibData" = {
AngleInDegrees = 28;
MainAxisWidth = 79;
MinorAxisWidth = 79;
ValidForParentMainAxisWidth = 15;
ValidForParentMinorAxisWidth = 15;
};
"Letterink-NibStyleId" = 1;
})
);
},
{
closed = 0;
nodes = (
(353,929,l,{
"Letterink-NibData" = {
AngleInDegrees = 28;
MainAxisWidth = 81;
MinorAxisWidth = 81;
ValidForParentMainAxisWidth = 15;
ValidForParentMinorAxisWidth = 15;
};
"Letterink-NibStyleId" = 2;
}),
(233,643,l,{
"Letterink-NibData" = {
AngleInDegrees = 28;
MainAxisWidth = 79;
MinorAxisWidth = 79;
ValidForParentMainAxisWidth = 15;
ValidForParentMinorAxisWidth = 15;
};
"Letterink-NibStyleId" = 1;
})
);
}
);
userData = {
"Letterink-ComputationAllowed" = YES;
};
width = 675;
},
{
associatedMasterId = m01;
background = {
shapes = (
{
ref = h.ss01;
}
);
};
layerId = "19461BFA-3939-46FA-9B03-97791FD5061E";
name = OK1;
shapes = (
{
closed = 0;
nodes = (
(750,408,ls,{
"Letterink-NibData" = {
AngleInDegrees = 246.65981;
MainAxisWidth = 55;
MinorAxisWidth = 55;
ValidForParentMainAxisWidth = 15;
ValidForParentMinorAxisWidth = 15;
};
"Letterink-NibStyleId" = 1;
}),
(670,307,o),
(543,267,o),
(457,277,cs,{
"Letterink-NibData" = {
AngleInDegrees = 303.79279;
MainAxisWidth = 55;
MinorAxisWidth = 55;
ValidForParentMainAxisWidth = 15;
ValidForParentMinorAxisWidth = 15;
};
"Letterink-NibStyleId" = 1;
}),
(386,285,o),
(332,329,o),
(332,377,cs,{
"Letterink-NibData" = {
AngleInDegrees = 28;
MainAxisWidth = 81;
MinorAxisWidth = 81;
ValidForParentMainAxisWidth = 15;
ValidForParentMinorAxisWidth = 15;
};
"Letterink-NibStyleId" = 2;
}),
(332,410,o),
(357,445,o),
(400,445,cs,{
"Letterink-NibData" = {
AngleInDegrees = 118;
MainAxisWidth = 55;
MinorAxisWidth = 55;
ValidForParentMainAxisWidth = 15;
ValidForParentMinorAxisWidth = 15;
};
"Letterink-NibStyleId" = 1;
}),
(450,445,o),
(484,399,o),
(484,308,cs,{
"Letterink-NibData" = {
AngleInDegrees = 208;
MainAxisWidth = 55;
MinorAxisWidth = 55;
ValidForParentMainAxisWidth = 15;
ValidForParentMinorAxisWidth = 15;
};
"Letterink-NibStyleId" = 1;
}),
(484,231,o),
(441,152,o),
(394,95,cs,{
"Letterink-NibData" = {
AngleInDegrees = 247.52263;
MainAxisWidth = 55;
MinorAxisWidth = 55;
ValidForParentMainAxisWidth = 15;
ValidForParentMinorAxisWidth = 15;
};
"Letterink-NibStyleId" = 1;
}),
(354,55,o),
(308,32,o),
(260,32,cs,{
"Letterink-NibData" = {
AngleInDegrees = 298;
MainAxisWidth = 59;
MinorAxisWidth = 59;
ValidForParentMainAxisWidth = 15;
ValidForParentMinorAxisWidth = 15;
};
"Letterink-NibStyleId" = 2;
}),
(198,32,o),
(149,71,o),
(135,131,cs,{
"Letterink-NibData" = {
AngleInDegrees = 7.0755;
MainAxisWidth = 59;
MinorAxisWidth = 59;
ValidForParentMainAxisWidth = 15;
ValidForParentMinorAxisWidth = 15;
};
"Letterink-NibStyleId" = 2;
}),
(120,198,o),
(140,306,o),
(158,379,cs,{
"Letterink-NibData" = {
AngleInDegrees = 32.02199;
MainAxisWidth = 59;
MinorAxisWidth = 59;
ValidForParentMainAxisWidth = 15;
ValidForParentMinorAxisWidth = 15;
};
"Letterink-NibStyleId" = 2;
}),
(227,660,o),
(343,842,o),
(409,788,cs,{
"Letterink-NibData" = {
AngleInDegrees = 152.82449;
MainAxisWidth = 55;
MinorAxisWidth = 45;
ValidForParentMainAxisWidth = 15;
ValidForParentMinorAxisWidth = 15;
};
"Letterink-NibStyleId" = 4;
}),
(436,766,o),
(407,702,o),
(328,593,cs,{
"Letterink-NibData" = {
AngleInDegrees = 28;
MainAxisWidth = 79;
MinorAxisWidth = 79;
ValidForParentMainAxisWidth = 15;
ValidForParentMinorAxisWidth = 15;
};
"Letterink-NibStyleId" = 1;
}),
(161,361,l,{
"Letterink-NibData" = {
AngleInDegrees = 235.50653;
MainAxisWidth = 45;
MinorAxisWidth = 45;
ValidForParentMainAxisWidth = 15;
ValidForParentMinorAxisWidth = 15;
};
"Letterink-NibStyleId" = 3;
})
);
}
);
userData = {
"Letterink-ComputationAllowed" = YES;
};
width = 649;
},
{
associatedMasterId = m01;
background = {
anchors = (
{
name = bottom;
pos = (322,0);
},
{
name = center;
pos = (342,277);
},
{
name = ogonek;
pos = (588,10);
},
{
name = top;
pos = (362,554);
},
{
name = topright;
pos = (414,540);
}
);
shapes = (
{
pos = (19,0);
ref = o;
}
);
};
layerId = "0041BCFC-8C28-425F-88BC-FDEDACCE156D";
name = Loop;
shapes = (
{
closed = 0;
nodes = (
(756,427,l,{
"Letterink-NibData" = {
AngleInDegrees = 28;
MainAxisWidth = 79;
MinorAxisWidth = 79;
ValidForParentMainAxisWidth = 15;
ValidForParentMinorAxisWidth = 15;
};
"Letterink-NibStyleId" = "1";
}),
(673,289,o),
(519,267,o),
(442,277,cs,{
"Letterink-NibData" = {
AngleInDegrees = 28;
MainAxisWidth = 79;
MinorAxisWidth = 79;
ValidForParentMainAxisWidth = 15;
ValidForParentMinorAxisWidth = 15;
};
"Letterink-NibStyleId" = "1";
}),
(379,285,o),
(335,318,o),
(335,371,cs,{
"Letterink-NibData" = {
AngleInDegrees = 28;
MainAxisWidth = 81;
MinorAxisWidth = 81;
ValidForParentMainAxisWidth = 15;
ValidForParentMinorAxisWidth = 15;
};
"Letterink-NibStyleId" = "2";
}),
(335,413,o),
(365,445,o),
(406,445,cs,{
"Letterink-NibData" = {
AngleInDegrees = 28;
MainAxisWidth = 79;
MinorAxisWidth = 79;
ValidForParentMainAxisWidth = 15;
ValidForParentMinorAxisWidth = 15;
};
"Letterink-NibStyleId" = "1";
}),
(478,445,o),
(508,357,o),
(477,240,cs,{
"Letterink-NibData" = {
AngleInDegrees = 28;
MainAxisWidth = 79;
MinorAxisWidth = 79;
ValidForParentMainAxisWidth = 15;
ValidForParentMinorAxisWidth = 15;
};
"Letterink-NibStyleId" = 1;
}),
(441,108,o),
(357,22,o),
(266,22,cs,{
"Letterink-NibData" = {
AngleInDegrees = 28;
MainAxisWidth = 79;
MinorAxisWidth = 79;
ValidForParentMainAxisWidth = 15;
ValidForParentMinorAxisWidth = 15;
};
"Letterink-NibStyleId" = "1";
}),
(97,22,o),
(94,223,o),
(124,385,cs,{
"Letterink-NibData" = {
AngleInDegrees = 28;
MainAxisWidth = 81;
MinorAxisWidth = 81;
ValidForParentMainAxisWidth = 15;
ValidForParentMinorAxisWidth = 15;
};
"Letterink-NibStyleId" = 2;
}),
(174,661,o),
(243,812,o),
(312,799,cs,{
"Letterink-NibData" = {
AngleInDegrees = 28;
MainAxisWidth = 79;
MinorAxisWidth = 79;
ValidForParentMainAxisWidth = 15;
ValidForParentMinorAxisWidth = 15;
};
"Letterink-NibStyleId" = 1;
}),
(368,789,o),
(356,725,o),
(270,587,cs,{
"Letterink-NibData" = {
AngleInDegrees = 28;
MainAxisWidth = 50;
MinorAxisWidth = 50;
ValidForParentMainAxisWidth = 15;
ValidForParentMinorAxisWidth = 15;
};
"Letterink-NibStyleId" = 1;
}),
(124,355,l,{
"Letterink-NibData" = {
AngleInDegrees = 28;
MainAxisWidth = 81;
MinorAxisWidth = 81;
ValidForParentMainAxisWidth = 15;
ValidForParentMinorAxisWidth = 15;
};
"Letterink-NibStyleId" = 2;
})
);
}
);
userData = {
"Letterink-ComputationAllowed" = YES;
};
width = 601;
}
);
note = b;
unicode = 98;
userData = {
KernOnName = b;
};
},
{
glyphname = c;
kernLeft = KO_c;
kernRight = KO_c.ss01;
lastChange = "2025-03-09 08:16:03 +0000";
layers = (
{
anchors = (
{
name = bottom;
pos = (434,0);
},
{
name = top;
pos = (339,610);
}
);
background = {
shapes = (
{
closed = 0;
nodes = (
(386,371,l,{
"Letterink-NibData" = {
AngleInDegrees = "28";
MainAxisWidth = "59";
MinorAxisWidth = "59";
ValidForParentMainAxisWidth = "15";
ValidForParentMinorAxisWidth = "15";
};
"Letterink-NibStyleId" = "2";
}),
(410,448,o),
(348,502,o),
(263,490,cs,{
"Letterink-NibData" = {
AngleInDegrees = "28";
MainAxisWidth = "55";
MinorAxisWidth = "55";
ValidForParentMainAxisWidth = "15";
ValidForParentMinorAxisWidth = "15";
};
"Letterink-NibStyleId" = "1";
}),
(154,475,o),
(65,360,o),
(65,217,cs,{
"Letterink-NibData" = {
AngleInDegrees = "28";
MainAxisWidth = "59";
MinorAxisWidth = "59";
ValidForParentMainAxisWidth = "15";
ValidForParentMinorAxisWidth = "15";
};
"Letterink-NibStyleId" = "2";
}),
(65,103,o),
(135,20,o),
(242,20,cs,{
"Letterink-NibData" = {
AngleInDegrees = "118";
MainAxisWidth = "55";
MinorAxisWidth = "55";
ValidForParentMainAxisWidth = "15";
ValidForParentMinorAxisWidth = "15";
};
"Letterink-NibStyleId" = "1";
}),
(314,20,o),
(382,63,o),
(444,128,cs,{
"Letterink-NibData" = {
AngleInDegrees = "67.38779";
MainAxisWidth = "55";
MinorAxisWidth = "55";
ValidForParentMainAxisWidth = "15";
ValidForParentMinorAxisWidth = "15";
};
"Letterink-NibStyleId" = "1";
}),
(511,198,o),
(575,294,o),
(643,408,c,{
"Letterink-NibData" = {
AngleInDegrees = "62.69515";
MainAxisWidth = "55";
MinorAxisWidth = "55";
ValidForParentMainAxisWidth = "15";
ValidForParentMinorAxisWidth = "15";
};
"Letterink-NibStyleId" = "1";
})
);
}
);
};
layerId = m01;
shapes = (
{
closed = 0;
nodes = (
(468,427,l,{
"Letterink-NibData" = {
AngleInDegrees = 28;
MainAxisWidth = 81;
MinorAxisWidth = 81;
ValidForParentMainAxisWidth = 15;
ValidForParentMinorAxisWidth = 15;
};
"Letterink-NibStyleId" = 2;
}),
(480,494,o),
(422,548,o),
(339,548,cs,{
"Letterink-NibData" = {
AngleInDegrees = 28;
MainAxisWidth = 79;
MinorAxisWidth = 79;
ValidForParentMainAxisWidth = 15;
ValidForParentMinorAxisWidth = 15;
};
"Letterink-NibStyleId" = 1;
}),
(199,548,o),
(85,410,o),
(85,241,cs,{
"Letterink-NibData" = {
AngleInDegrees = 28;
MainAxisWidth = 81;
MinorAxisWidth = 81;
ValidForParentMainAxisWidth = 15;
ValidForParentMinorAxisWidth = 15;
};
"Letterink-NibStyleId" = 2;
}),
(85,116,o),
(154,31,o),
(254,31,cs,{
"Letterink-NibData" = {
AngleInDegrees = 28;
MainAxisWidth = 79;
MinorAxisWidth = 79;
ValidForParentMainAxisWidth = 15;
ValidForParentMinorAxisWidth = 15;
};
"Letterink-NibStyleId" = 1;
}),
(398,31,o),
(539,172,o),
(726,479,c,{
"Letterink-NibData" = {
AngleInDegrees = 28;
MainAxisWidth = 79;
MinorAxisWidth = 79;
ValidForParentMainAxisWidth = 15;
ValidForParentMinorAxisWidth = 15;
};
"Letterink-NibStyleId" = 1;
})
);
}
);
userData = {
"Letterink-ComputationAllowed" = YES;
};
width = 552;
}
);
note = c;
unicode = 99;
userData = {
KernOnName = c;
};
},
{
glyphname = d;
kernLeft = KO_d;
kernRight = KO_d;
lastChange = "2025-03-09 08:16:21 +0000";
layers = (
{
anchors = (
{
name = bottom;
pos = (367,0);
},
{
name = center;
pos = (550,760);
},
{
name = top;
pos = (557,892);
},
{
name = topright;
pos = (713,950);
}
);
layerId = m01;
shapes = (
{
closed = 0;
nodes = (
(907,479,l,{
"Letterink-NibData" = {
AngleInDegrees = 28;
MainAxisWidth = 79;
MinorAxisWidth = 79;
ValidForParentMainAxisWidth = 15;
ValidForParentMinorAxisWidth = 15;
};
"Letterink-NibStyleId" = 1;
}),
(861,388,o),
(761,218,o),
(674,117,cs,{
"Letterink-NibData" = {
AngleInDegrees = 28;
MainAxisWidth = 79;
MinorAxisWidth = 79;
ValidForParentMainAxisWidth = 15;
ValidForParentMinorAxisWidth = 15;
};
"Letterink-NibStyleId" = 1;
}),
(618,52,o),
(577,27,o),
(534,27,cs,{
"Letterink-NibData" = {
AngleInDegrees = 28;
MainAxisWidth = 79;
MinorAxisWidth = 79;
ValidForParentMainAxisWidth = 15;
ValidForParentMinorAxisWidth = 15;
};
"Letterink-NibStyleId" = 1;
}),
(469,27,o),
(450,84,o),
(477,183,cs,{
"Letterink-NibData" = {
AngleInDegrees = 28;
MainAxisWidth = 81;
MinorAxisWidth = 81;
ValidForParentMainAxisWidth = 15;
ValidForParentMinorAxisWidth = 15;
};
"Letterink-NibStyleId" = 2;
}),
(666,887,ls,{
"Letterink-NibData" = {
AngleInDegrees = 28;
MainAxisWidth = 79;
MinorAxisWidth = 79;
ValidForParentMainAxisWidth = 15;
ValidForParentMinorAxisWidth = 15;
};
"Letterink-NibStyleId" = 1;
}),
(611,685,o),
(504,312,o),
(382,155,cs,{
"Letterink-NibData" = {
AngleInDegrees = 28;
MainAxisWidth = 79;
MinorAxisWidth = 79;
ValidForParentMainAxisWidth = 15;
ValidForParentMinorAxisWidth = 15;
};
"Letterink-NibStyleId" = 1;
}),
(328,85,o),
(263,45,o),
(201,45,cs,{
"Letterink-NibData" = {
AngleInDegrees = 28;
MainAxisWidth = 79;
MinorAxisWidth = 79;
ValidForParentMainAxisWidth = 15;
ValidForParentMinorAxisWidth = 15;
};
"Letterink-NibStyleId" = 1;
}),
(125,45,o),
(73,106,o),
(73,200,cs,{
"Letterink-NibData" = {
AngleInDegrees = 28;
MainAxisWidth = 81;
MinorAxisWidth = 81;
ValidForParentMainAxisWidth = 15;
ValidForParentMinorAxisWidth = 15;
};
"Letterink-NibStyleId" = 2;
}),
(73,362,o),
(229,531,o),
(384,531,cs,{
"Letterink-NibData" = {
AngleInDegrees = 28;
MainAxisWidth = 81;
MinorAxisWidth = 81;
ValidForParentMainAxisWidth = 15;
ValidForParentMinorAxisWidth = 15;
};
"Letterink-NibStyleId" = 2;
}),
(411,531,o),
(434,526,o),
(450,518,c,{
"Letterink-NibData" = {
AngleInDegrees = 28;
MainAxisWidth = 79;
MinorAxisWidth = 79;
ValidForParentMainAxisWidth = 15;
ValidForParentMinorAxisWidth = 15;
};
"Letterink-NibStyleId" = 1;
})
);
}
);
userData = {
"Letterink-ComputationAllowed" = YES;
};
width = 733;
},
{
associatedMasterId = m01;
background = {
shapes = (
{
closed = 0;
nodes = (
(383,460,l,{
"Letterink-NibData" = {
AngleInDegrees = "331.6900634765625";
MainAxisWidth = "55";
MinorAxisWidth = "55";
ValidForParentMainAxisWidth = "15";
ValidForParentMinorAxisWidth = "15";
};
"Letterink-NibStyleId" = "1";
}),
(365,472,o),
(334,479,o),
(297,479,cs,{
"Letterink-NibData" = {
AngleInDegrees = "298";
MainAxisWidth = "55";
MinorAxisWidth = "55";
ValidForParentMainAxisWidth = "15";
ValidForParentMinorAxisWidth = "15";
};
"Letterink-NibStyleId" = "1";
}),
(178,479,o),
(77,364,o),
(77,219,cs,{
"Letterink-NibData" = {
AngleInDegrees = "208";
MainAxisWidth = "59";
MinorAxisWidth = "59";
ValidForParentMainAxisWidth = "15";
ValidForParentMinorAxisWidth = "15";
};
"Letterink-NibStyleId" = "2";
}),
(77,123,o),
(121,50,o),
(196,50,cs,{
"Letterink-NibData" = {
AngleInDegrees = "118";
MainAxisWidth = "55";
MinorAxisWidth = "55";
ValidForParentMainAxisWidth = "15";
ValidForParentMinorAxisWidth = "15";
};
"Letterink-NibStyleId" = "1";
}),
(244,50,o),
(286,77,o),
(334,137,cs,{
"Letterink-NibData" = {
AngleInDegrees = "66.70318603515625";
MainAxisWidth = "55";
MinorAxisWidth = "55";
ValidForParentMainAxisWidth = "15";
ValidForParentMinorAxisWidth = "15";
};
"Letterink-NibStyleId" = "1";
}),
(463,298,o),
(589,658,o),
(627,762,c,{
"Letterink-NibData" = {
AngleInDegrees = "227.2603149414062";
MainAxisWidth = "59";
MinorAxisWidth = "59";
ValidForParentMainAxisWidth = "15";
ValidForParentMinorAxisWidth = "15";
};
"Letterink-NibStyleId" = "2";
}),
(417,161,ls,{
"Letterink-NibData" = {
AngleInDegrees = "227.4059753417969";
MainAxisWidth = "59";
MinorAxisWidth = "59";
ValidForParentMainAxisWidth = "15";
ValidForParentMinorAxisWidth = "15";
};
"Letterink-NibStyleId" = "2";
}),
(386,73,o),
(401,15,o),
(467,15,cs,{
"Letterink-NibData" = {
AngleInDegrees = "118";
MainAxisWidth = "55";
MinorAxisWidth = "55";
ValidForParentMainAxisWidth = "15";
ValidForParentMinorAxisWidth = "15";
};
"Letterink-NibStyleId" = "1";
}),
(502,15,o),
(540,32,o),
(580,75,cs,{
"Letterink-NibData" = {
AngleInDegrees = "71.05191802978516";
MainAxisWidth = "55";
MinorAxisWidth = "55";
ValidForParentMainAxisWidth = "15";
ValidForParentMinorAxisWidth = "15";
};
"Letterink-NibStyleId" = "1";
}),
(651,151,o),
(764,342,o),
(805,402,c,{
"Letterink-NibData" = {
AngleInDegrees = "62.34609603881836";
MainAxisWidth = "50";
MinorAxisWidth = "50";
ValidForParentMainAxisWidth = "15";
ValidForParentMinorAxisWidth = "15";
};
"Letterink-NibStyleId" = "5";
})
);
}
);
};
hints = (
{
horizontal = 1;
place = (798,-20);
target = down;
type = TopGhost;
},
{
horizontal = 1;
place = (445,72);
type = Stem;
},
{
horizontal = 1;
place = (-29,21);
target = up;
type = BottomGhost;
},
{
place = (453,74);
type = Stem;
},
{
place = (56,78);
type = Stem;
},
{
horizontal = 1;
place = (533,-20);
target = down;
type = TopGhost;
},
{
horizontal = 1;
place = (429,71);
type = Stem;
},
{
horizontal = 1;
place = (15,71);
type = Stem;
},
{
place = (371,65);
type = Stem;
},
{
place = (15,79);
type = Stem;
},
{
horizontal = 1;
place = (533,-20);
target = down;
type = TopGhost;
},
{
horizontal = 1;
place = (429,71);
type = Stem;
},
{
horizontal = 1;
place = (1,71);
type = Stem;
},
{
place = (371,65);
type = Stem;
},
{
place = (15,79);
type = Stem;
}
);
layerId = "E31F6B47-31A4-4391-A2C1-9B16AA0A30BE";
name = OPT1;
shapes = (
{
closed = 0;
nodes = (
(488,421,l,{
"Letterink-NibData" = {
AngleInDegrees = 343;
MainAxisWidth = 59;
MinorAxisWidth = 59;
ValidForParentMainAxisWidth = 15;
ValidForParentMinorAxisWidth = 15;
};
"Letterink-NibStyleId" = "2";
}),
(457,444,o),
(413,457,o),
(366,457,cs,{
"Letterink-NibData" = {
AngleInDegrees = 28;
MainAxisWidth = 79;
MinorAxisWidth = 79;
ValidForParentMainAxisWidth = 15;
ValidForParentMinorAxisWidth = 15;
};
"Letterink-NibStyleId" = "1";
}),
(212,457,o),
(77,326,o),
(77,177,cs,{
"Letterink-NibData" = {
AngleInDegrees = 28;
MainAxisWidth = 81;
MinorAxisWidth = 81;
ValidForParentMainAxisWidth = 15;
ValidForParentMinorAxisWidth = 15;
};
"Letterink-NibStyleId" = "2";
}),
(77,101,o),
(123,46,o),
(185,46,cs,{
"Letterink-NibData" = {
AngleInDegrees = 118;
MainAxisWidth = 55;
MinorAxisWidth = 55;
ValidForParentMainAxisWidth = 15;
ValidForParentMinorAxisWidth = 15;
};
"Letterink-NibStyleId" = "1";
}),
(239,46,o),
(287,77,o),
(332,137,cs,{
"Letterink-NibData" = {
AngleInDegrees = 66.92754;
MainAxisWidth = 55;
MinorAxisWidth = 55;
ValidForParentMainAxisWidth = 15;
ValidForParentMinorAxisWidth = 15;
};
"Letterink-NibStyleId" = "1";
}),
(419,253,o),
(572,595,o),
(629,766,c,{
"Letterink-NibData" = {
AngleInDegrees = 222.21118;
MainAxisWidth = 59;
MinorAxisWidth = 59;
ValidForParentMainAxisWidth = 15;
ValidForParentMinorAxisWidth = 15;
};
"Letterink-NibStyleId" = "2";
}),
(409,141,ls,{
"Letterink-NibData" = {
AngleInDegrees = 221.24051;
MainAxisWidth = 59;
MinorAxisWidth = 59;
ValidForParentMainAxisWidth = 15;
ValidForParentMinorAxisWidth = 15;
};
"Letterink-NibStyleId" = "2";
}),
(392,48,o),
(411,0,o),
(464,0,cs,{
"Letterink-NibData" = {
AngleInDegrees = 118;
MainAxisWidth = 55;
MinorAxisWidth = 55;
ValidForParentMainAxisWidth = 15;
ValidForParentMinorAxisWidth = 15;
};
"Letterink-NibStyleId" = "1";
}),
(508,0,o),
(553,32,o),
(616,108,cs,{
"Letterink-NibData" = {
AngleInDegrees = 67.38779;
MainAxisWidth = 55;
MinorAxisWidth = 55;
ValidForParentMainAxisWidth = 15;
ValidForParentMinorAxisWidth = 15;
};
"Letterink-NibStyleId" = "1";
}),
(702,211,o),
(771,334,o),
(815,398,c,{
"Letterink-NibData" = {
AngleInDegrees = 62.69515;
MainAxisWidth = 55;
MinorAxisWidth = 55;
ValidForParentMainAxisWidth = 15;
ValidForParentMinorAxisWidth = 15;
};
"Letterink-NibStyleId" = "1";
})
);
}
);
userData = {
"Letterink-ComputationAllowed" = YES;
};
width = 680;
}
);
note = d;
unicode = 100;
userData = {
KernOnName = d;
};
},
{
glyphname = dcroat;
kernLeft = KO_d;
kernRight = KO_d;
lastChange = "2024-08-19 11:34:56 +0000";
layers = (
{
background = {
shapes = (
{
closed = 1;
nodes = (
(351,784,o),
(347,707,o),
(405,706,cs,{
"Letterink-NibData" = {
AngleInDegrees = "360";
};
}),
(591,701,o),
(714,695,o),
(899,692,cs,{
"Letterink-NibData" = {
AngleInDegrees = "360";
};
}),
(955,691,o),
(960,768,o),
(901,771,cs,{
"Letterink-NibData" = {
AngleInDegrees = "0";
};
}),
(716,774,o),
(593,779,o),
(407,783,cs,{
"Letterink-NibData" = {
AngleInDegrees = "360";
};
})
);
}
);
};
layerId = m01;
shapes = (
{
ref = d;
},
{
closed = 0;
nodes = (
(740,671,l,{
"Letterink-NibData" = {
AngleInDegrees = 28;
MainAxisWidth = 79;
MinorAxisWidth = 79;
ValidForParentMainAxisWidth = 15;
ValidForParentMinorAxisWidth = 15;
};
"Letterink-NibStyleId" = "1";
}),
(317,689,l,{
"Letterink-NibData" = {
AngleInDegrees = 28;
MainAxisWidth = 79;
MinorAxisWidth = 79;
ValidForParentMainAxisWidth = 15;
ValidForParentMinorAxisWidth = 15;
};
"Letterink-NibStyleId" = "1";
})
);
}
);
userData = {
"Letterink-ComputationAllowed" = YES;
};
width = 733;
}
);
metricLeft = d;
metricRight = d;
note = dcroat;
unicode = 273;
},
{
glyphname = e;
kernLeft = KO_e;
kernRight = KO_e;
lastChange = "2024-08-21 05:31:35 +0000";
layers = (
{
anchors = (
{
name = bottom;
pos = (293,9);
},
{
name = ogonek;
pos = (520,20);
},
{
name = top;
pos = (336,614);
}
);
background = {
shapes = (
{
closed = 0;
nodes = (
(85,200,ls,{
"Letterink-NibData" = {
AngleInDegrees = "115.80651";
MainAxisWidth = "50";
MinorAxisWidth = "50";
ValidForParentMainAxisWidth = "15";
ValidForParentMinorAxisWidth = "15";
};
"Letterink-NibStyleId" = "3";
}),
(137,200,o),
(219,223,o),
(272,252,cs,{
"Letterink-NibData" = {
AngleInDegrees = "28";
MainAxisWidth = "55";
MinorAxisWidth = "55";
ValidForParentMainAxisWidth = "15";
ValidForParentMinorAxisWidth = "15";
};
"Letterink-NibStyleId" = "1";
}),
(330,284,o),
(364,332,o),
(364,384,cs,{
"Letterink-NibData" = {
AngleInDegrees = "11.75646";
MainAxisWidth = "55";
MinorAxisWidth = "48.13065";
ValidForParentMainAxisWidth = "15";
ValidForParentMinorAxisWidth = "15";
};
"Letterink-NibStyleId" = "1";
}),
(364,442,o),
(323,480,o),
(262,480,cs,{
"Letterink-NibData" = {
AngleInDegrees = "298";
MainAxisWidth = "55";
MinorAxisWidth = "55";
ValidForParentMainAxisWidth = "15";
ValidForParentMinorAxisWidth = "15";
};
"Letterink-NibStyleId" = "1";
}),
(158,480,o),
(72,371,o),
(72,233,cs,{
"Letterink-NibData" = {
AngleInDegrees = "208";
MainAxisWidth = "59";
MinorAxisWidth = "59";
ValidForParentMainAxisWidth = "15";
ValidForParentMinorAxisWidth = "15";
};
"Letterink-NibStyleId" = "2";
}),
(72,113,o),
(138,32,o),
(236,32,cs,{
"Letterink-NibData" = {
AngleInDegrees = "118";
MainAxisWidth = "55";
MinorAxisWidth = "55";
ValidForParentMainAxisWidth = "15";
ValidForParentMinorAxisWidth = "15";
};
"Letterink-NibStyleId" = "1";
}),
(300,32,o),
(366,66,o),
(425,124,cs,{
"Letterink-NibData" = {
AngleInDegrees = "72.51853";
MainAxisWidth = "55";
MinorAxisWidth = "55";
ValidForParentMainAxisWidth = "15";
ValidForParentMinorAxisWidth = "15";
};
"Letterink-NibStyleId" = "1";
}),
(482,180,o),
(561,289,o),
(641,424,c,{
"Letterink-NibData" = {
AngleInDegrees = "64.56310000000001";
MainAxisWidth = "55";
MinorAxisWidth = "55";
ValidForParentMainAxisWidth = "15";
ValidForParentMinorAxisWidth = "15";
};
"Letterink-NibStyleId" = "1";
})
);
}
);
};
layerId = m01;
shapes = (
{
closed = 0;
nodes = (
(94,165,l,{
"Letterink-NibData" = {
AngleInDegrees = 28;
MainAxisWidth = 79;
MinorAxisWidth = 79;
ValidForParentMainAxisWidth = 15;
ValidForParentMinorAxisWidth = 15;
};
"Letterink-NibStyleId" = "1";
}),
(172,213,o),
(252,269,o),
(301,311,cs,{
"Letterink-NibData" = {
AngleInDegrees = 28;
MainAxisWidth = 79;
MinorAxisWidth = 79;
ValidForParentMainAxisWidth = 15;
ValidForParentMinorAxisWidth = 15;
};
"Letterink-NibStyleId" = 1;
}),
(375,376,o),
(407,420,o),
(408,465,cs,{
"Letterink-NibData" = {
AngleInDegrees = 28;
MainAxisWidth = 79;
MinorAxisWidth = 79;
ValidForParentMainAxisWidth = 15;
ValidForParentMinorAxisWidth = 15;
};
"Letterink-NibStyleId" = "1";
}),
(408,506,o),
(374,534,o),
(325,534,cs,{
"Letterink-NibData" = {
AngleInDegrees = 28;
MainAxisWidth = 79;
MinorAxisWidth = 79;
ValidForParentMainAxisWidth = 15;
ValidForParentMinorAxisWidth = 15;
};
"Letterink-NibStyleId" = "1";
}),
(223,535,o),
(86,392,o),
(86,237,cs,{
"Letterink-NibData" = {
AngleInDegrees = 28;
MainAxisWidth = 81;
MinorAxisWidth = 81;
ValidForParentMainAxisWidth = 15;
ValidForParentMinorAxisWidth = 15;
};
"Letterink-NibStyleId" = "2";
}),
(86,111,o),
(155,31,o),
(270,30,cs,{
"Letterink-NibData" = {
AngleInDegrees = 28;
MainAxisWidth = 79;
MinorAxisWidth = 79;
ValidForParentMainAxisWidth = 15;
ValidForParentMinorAxisWidth = 15;
};
"Letterink-NibStyleId" = 1;
}),
(414,31,o),
(557,166,o),
(747,479,c,{
"Letterink-NibData" = {
AngleInDegrees = 28;
MainAxisWidth = 79;
MinorAxisWidth = 79;
ValidForParentMainAxisWidth = 15;
ValidForParentMinorAxisWidth = 15;
};
"Letterink-NibStyleId" = 1;
})
);
}
);
userData = {
"Letterink-ComputationAllowed" = YES;
};
width = 573;
}
);
note = e;
unicode = 101;
userData = {
KernOnName = e;
};
},
{
glyphname = eacute;
kernLeft = KO_e;
kernRight = KO_e;
lastChange = "2024-08-06 05:50:10 +0000";
layers = (
{
background = {
shapes = (
{
ref = e;
},
{
closed = 1;
nodes = (
(202,567,o),
(209,570,o),
(215,575,cs,{
"Letterink-NibData" = {
AngleInDegrees = "50.81010055541992";
};
}),
(372,703,ls,{
"Letterink-NibData" = {
AngleInDegrees = "51.34019088745117";
};
}),
(382,711,o),
(385,721,o),
(385,730,cs),
(385,749,o),
(370,765,o),
(350,765,cs,{
"Letterink-NibData" = {
AngleInDegrees = "270";
};
}),
(342,765,o),
(334,762,o),
(328,757,cs,{
"Letterink-NibData" = {
AngleInDegrees = "230.1944293285419";
};
}),
(172,627,ls,{
"Letterink-NibData" = {
AngleInDegrees = "229.3987121582032";
};
}),
(165,621,o),
(160,612,o),
(160,601,cs,{
"Letterink-NibData" = {
AngleInDegrees = "180";
};
}),
(160,583,o),
(175,567,o),
(194,567,cs,{
"Letterink-NibData" = {
AngleInDegrees = "90";
};
})
);
}
);
};
layerId = m01;
shapes = (
{
ref = e;
},
{
pos = (4,-153);
ref = acutecomb;
}
);
width = 573;
}
);
metricLeft = e;
metricRight = e;
note = eacute;
unicode = 233;
},
{
glyphname = ecircumflex;
kernLeft = KO_e;
kernRight = KO_e;
lastChange = "2024-08-06 05:50:10 +0000";
layers = (
{
background = {
shapes = (
{
ref = e;
},
{
closed = 1;
nodes = (
(201,594,o),
(206,595,o),
(210,597,cs,{
"Letterink-NibData" = {
AngleInDegrees = "63.43495178222662";
};
}),
(328,656,l,{
"Letterink-NibData" = {
AngleInDegrees = "130.364536277659";
};
}),
(408,588,ls,{
"Letterink-NibData" = {
AngleInDegrees = "129.8055725097656";
};
}),
(414,583,o),
(421,580,o),
(429,580,cs,{
"Letterink-NibData" = {
AngleInDegrees = "90";
};
}),
(447,580,o),
(461,595,o),
(461,612,cs),
(461,622,o),
(457,631,o),
(450,637,cs,{
"Letterink-NibData" = {
AngleInDegrees = "310.9143981933599";
};
}),
(345,728,ls,{
"Letterink-NibData" = {
AngleInDegrees = "315.0000012522391";
};
}),
(341,732,o),
(336,732,o),
(332,730,cs,{
"Letterink-NibData" = {
AngleInDegrees = "243.8920898437499";
};
}),
(181,656,ls,{
"Letterink-NibData" = {
AngleInDegrees = "245.5560455322266";
};
}),
(170,651,o),
(162,640,o),
(162,627,cs,{
"Letterink-NibData" = {
AngleInDegrees = "180";
};
}),
(162,608,o),
(177,594,o),
(195,594,cs,{
"Letterink-NibData" = {
AngleInDegrees = "90";
};
})
);
}
);
};
layerId = m01;
shapes = (
{
ref = e;
},
{
pos = (-50,-183);
ref = circumflexcomb;
}
);
width = 573;
}
);
metricLeft = e;
metricRight = e;
note = ecircumflex;
unicode = 234;
},
{
glyphname = ecircumflexacute;
kernLeft = KO_e;
kernRight = KO_e;
lastChange = "2024-08-06 05:50:10 +0000";
layers = (
{
background = {
shapes = (
{
closed = 1;
nodes = (
(154,709,o),
(161,712,o),
(167,717,cs,{
"Letterink-NibData" = {
AngleInDegrees = "50.81010055541992";
};
}),
(324,845,ls,{
"Letterink-NibData" = {
AngleInDegrees = "51.34019088745117";
};
}),
(334,853,o),
(337,863,o),
(337,872,cs),
(337,891,o),
(322,907,o),
(302,907,cs,{
"Letterink-NibData" = {
AngleInDegrees = "270";
};
}),
(294,907,o),
(286,904,o),
(280,899,cs,{
"Letterink-NibData" = {
AngleInDegrees = "230.1944293285419";
};
}),
(124,769,ls,{
"Letterink-NibData" = {
AngleInDegrees = "229.3987121582032";
};
}),
(117,763,o),
(112,754,o),
(112,743,cs,{
"Letterink-NibData" = {
AngleInDegrees = "180";
};
}),
(112,725,o),
(127,709,o),
(146,709,cs,{
"Letterink-NibData" = {
AngleInDegrees = "90";
};
})
);
},
{
closed = 1;
nodes = (
(201,594,o),
(206,595,o),
(210,597,cs,{
"Letterink-NibData" = {
AngleInDegrees = "63.43495178222662";
};
}),
(328,656,l,{
"Letterink-NibData" = {
AngleInDegrees = "130.364536277659";
};
}),
(408,588,ls,{
"Letterink-NibData" = {
AngleInDegrees = "129.8055725097656";
};
}),
(414,583,o),
(421,580,o),
(429,580,cs,{
"Letterink-NibData" = {
AngleInDegrees = "90";
};
}),
(447,580,o),
(461,595,o),
(461,612,cs),
(461,622,o),
(457,631,o),
(450,637,cs,{
"Letterink-NibData" = {
AngleInDegrees = "310.9143981933599";
};
}),
(345,728,ls,{
"Letterink-NibData" = {
AngleInDegrees = "315.0000012522391";
};
}),
(341,732,o),
(336,732,o),
(332,730,cs,{
"Letterink-NibData" = {
AngleInDegrees = "243.8920898437499";
};
}),
(181,656,ls,{
"Letterink-NibData" = {
AngleInDegrees = "245.5560455322266";
};
}),
(170,651,o),
(162,640,o),
(162,627,cs,{
"Letterink-NibData" = {
AngleInDegrees = "180";
};
}),
(162,608,o),
(177,594,o),
(195,594,cs,{
"Letterink-NibData" = {
AngleInDegrees = "90";
};
})
);
}
);
};
layerId = m01;
shapes = (
{
ref = e;
},
{
pos = (-50,-183);
ref = circumflexcomb_acutecomb;
}
);
width = 573;
}
);
metricLeft = e;
metricRight = e;
note = uni1EBF;
unicode = 7871;
},
